<svg xmlns="http://www.w3.org/2000/svg"  viewBox="0 0 100 100" width="50px" height="50px"><circle cx="52" cy="52" r="44" opacity=".35"/><circle cx="50" cy="50" r="44" fill="#f2f2f2"/><circle cx="50" cy="50" r="37.5" fill="#d47f56"/><circle cx="50" cy="50" r="31.005" fill="#ffc571"/><circle cx="50" cy="50" r="28" fill="#d9eeff"/><path fill="#9ba7c5" d="M50.56,72.044c-0.08-0.82,0.53-1.56,1.35-1.63l0,0c0.83-0.08,1.56,0.53,1.63,1.35l0,0	c0.08,0.83-0.53,1.561-1.351,1.63l0,0c-0.05,0.011-0.09,0.011-0.14,0.011l0,0C51.28,73.405,50.63,72.825,50.56,72.044z M43.59,72.615c-0.79-0.221-1.26-1.051-1.03-1.851l0,0c0.22-0.8,1.05-1.26,1.85-1.04l0,0c0.8,0.23,1.26,1.061,1.04,1.86l0,0	c-0.19,0.66-0.79,1.09-1.45,1.09l0,0C43.87,72.674,43.73,72.655,43.59,72.615z M58.479,70.365c-0.37-0.74-0.069-1.641,0.67-2.011	l0,0c0.74-0.38,1.641-0.069,2.011,0.671l0,0c0.37,0.739,0.069,1.64-0.67,2.01l0,0l0,0l0,0c-0.21,0.109-0.44,0.16-0.671,0.16l0,0	C59.27,71.195,58.74,70.884,58.479,70.365z M65.25,65.924c-0.61-0.56-0.65-1.51-0.09-2.12l0,0c0.55-0.609,1.5-0.66,2.109-0.1l0,0	c0.62,0.56,0.66,1.51,0.101,2.12l0,0c-0.301,0.319-0.7,0.489-1.11,0.489l0,0C65.899,66.314,65.54,66.184,65.25,65.924z M69.979,59.344c-0.77-0.3-1.16-1.17-0.859-1.939l0,0c0.3-0.771,1.17-1.16,1.939-0.86l0,0c0.771,0.3,1.16,1.17,0.86,1.94l0,0l0,0	l0,0c-0.23,0.6-0.8,0.96-1.4,0.96l0,0C70.34,59.445,70.16,59.415,69.979,59.344z M26.9,54.354c-0.15-0.81,0.39-1.59,1.2-1.75l0,0	c0.82-0.149,1.6,0.391,1.75,1.2l0,0c0.15,0.82-0.38,1.601-1.19,1.75l0,0c-0.1,0.021-0.19,0.03-0.28,0.03l0,0	C27.67,55.584,27.04,55.084,26.9,54.354z M70.5,50.004c0-0.02,0-0.03,0-0.05l0,0c0-0.01,0-0.021,0-0.04l0,0	c0-0.83,0.66-1.5,1.49-1.5l0,0c0.829-0.01,1.51,0.66,1.51,1.49l0,0c0,0.02,0,0.029,0,0.05l0,0c0,0.02,0,0.03,0,0.05l0,0	c0,0.82-0.67,1.5-1.5,1.5l0,0C71.17,51.504,70.5,50.825,70.5,50.004z M28.09,47.474c-0.81-0.149-1.35-0.93-1.2-1.739l0,0l0,0l0,0	c0.15-0.82,0.93-1.36,1.74-1.21l0,0c0.82,0.149,1.36,0.93,1.21,1.75l0,0c-0.13,0.72-0.77,1.229-1.48,1.229l0,0	C28.27,47.504,28.18,47.495,28.09,47.474z M69.09,42.525v-0.011c-0.3-0.77,0.08-1.64,0.85-1.939l0,0c0.771-0.3,1.641,0.08,1.95,0.85	l0,0l0,0l0,0c0.3,0.771-0.08,1.64-0.85,1.94l0,0c-0.181,0.069-0.37,0.109-0.55,0.109l0,0C69.89,43.474,69.319,43.115,69.09,42.525z M30.48,39.735c-0.71-0.431-0.93-1.36-0.49-2.061l0,0l0,0l0,0c0.43-0.7,1.36-0.92,2.06-0.49l0,0c0.71,0.44,0.93,1.36,0.49,2.061	v0.01c-0.28,0.45-0.77,0.71-1.28,0.71l0,0C31,39.964,30.72,39.884,30.48,39.735z M65.1,36.134c-0.56-0.609-0.52-1.56,0.09-2.12l0,0	c0.61-0.56,1.561-0.52,2.12,0.09l0,0c0.561,0.61,0.521,1.561-0.09,2.12l0,0c-0.29,0.271-0.65,0.4-1.01,0.4l0,0	C65.8,36.624,65.399,36.455,65.1,36.134z M35.5,33.384c-0.5-0.66-0.37-1.6,0.29-2.1l0,0c0.66-0.5,1.6-0.38,2.1,0.279l0,0	c0.5,0.66,0.37,1.601-0.29,2.11v-0.01c-0.27,0.21-0.59,0.31-0.9,0.31l0,0C36.25,33.974,35.8,33.775,35.5,33.384z M59.08,31.615	c-0.74-0.37-1.05-1.271-0.681-2.011l0,0c0.36-0.739,1.261-1.05,2.011-0.68l0,0c0.739,0.37,1.04,1.271,0.68,2.01l0,0	c-0.26,0.53-0.8,0.83-1.35,0.83l0,0C59.52,31.764,59.29,31.724,59.08,31.615z M42.48,29.264c-0.23-0.8,0.23-1.63,1.03-1.85l0,0	c0,0,0,0,0-0.01l0,0c0.79-0.221,1.62,0.239,1.85,1.029l0,0c0.23,0.801-0.23,1.63-1.03,1.86l0,0c-0.14,0.04-0.27,0.06-0.41,0.06l0,0	C43.27,30.354,42.67,29.924,42.48,29.264z M51.83,29.584c-0.83-0.08-1.44-0.81-1.36-1.63l0,0c0.07-0.83,0.8-1.44,1.63-1.36l0,0	c0,0,0,0-0.01,0l0,0c0.83,0.07,1.44,0.8,1.37,1.62l0,0c-0.07,0.78-0.73,1.37-1.5,1.37l0,0C51.92,29.584,51.87,29.584,51.83,29.584z"/><rect width="3" height="33.941" x="48.503" y="33.027" fill="#40396e" transform="rotate(45.001 50.004 49.997)"/><path fill="#40396e" d="M36,58.495c-2.166,0-3.993,1.386-4.687,3.313c0.529-0.191,1.092-0.313,1.687-0.313	c2.761,0,5,2.239,5,5c0,0.595-0.122,1.158-0.313,1.687C39.614,67.488,41,65.661,41,63.495C41,60.733,38.761,58.495,36,58.495z"/><circle cx="50" cy="50" r="5" fill="#40396e"/><path fill="#40396e" d="M50,89c-21.505,0-39-17.495-39-39s17.495-39,39-39s39,17.495,39,39S71.505,89,50,89z M50,14	C30.149,14,14,30.15,14,50s16.149,36,36,36s36-16.149,36-36S69.851,14,50,14z"/></svg>