<svg xmlns="http://www.w3.org/2000/svg"  viewBox="0 0 100 100" width="50px" height="50px"><path d="M17.542,94c-3.584,0-6.5-2.916-6.5-6.5V40.187c-1.232-1.184-2-2.848-2-4.687v-11c0-1.839,0.768-3.503,2-4.687V16.5 c0-3.584,2.916-6.5,6.5-6.5h6c4.479,4.5,5.571,2.075,6.295,4.876l5.927-2.752c0.852-0.409,1.809-0.624,2.775-0.624 c0.269,0,0.533,0.017,0.788,0.048l49.854,5.586c3.293,0.368,5.776,3.146,5.776,6.459v13.615c0,3.365-2.526,6.147-5.877,6.47 l-50.156,4.815h-0.239c-0.683,0-1.724-0.062-2.876-0.596c0,0-0.206-0.096-5.768-2.678V87.5c0,3.584-2.916,6.5-6.5,6.5H17.542z" opacity=".35"/><path fill="#f2f2f2" d="M15.542,92c-3.584,0-6.5-2.916-6.5-6.5V38.187c-1.232-1.184-2-2.848-2-4.687v-11 c0-1.839,0.768-3.503,2-4.687V14.5c0-3.584,2.916-6.5,6.5-6.5h6c3.023,0,5.571,2.075,6.295,4.876l5.927-2.752 C34.615,9.715,35.572,9.5,36.539,9.5c0.269,0,0.533,0.017,0.788,0.048l49.854,5.586c3.293,0.368,5.776,3.146,5.776,6.459v13.615 c0,3.365-2.526,6.147-5.877,6.47l-50.156,4.815h-0.239c-0.683,0-1.724-0.062-2.876-0.596c0,0-0.206-0.096-5.768-2.678V85.5 c0,3.584-2.916,6.5-6.5,6.5H15.542z"/><rect width="6" height="71" x="15.542" y="14.5" fill="#707cc0"/><polygon fill="#f4665c" points="50,38.681 38,39.857 38,16 50,16"/><polygon fill="#f2f2f2" points="61,37.383 50,38.979 50,17.277 61,18.553"/><polygon fill="#f4665c" points="73,36.551 61,37.383 61,18.617 73,20.054"/><polygon fill="#f2f2f2" points="85,35.35 73,36.551 73,20.161 85,21.617"/><rect width="8" height="8" x="15" y="24" fill="#9aa2e6"/><path fill="#40396e" d="M21.542,87h-6c-0.828,0-1.5-0.672-1.5-1.5V35h-0.5c-0.828,0-1.5-0.672-1.5-1.5v-11 c0-0.828,0.672-1.5,1.5-1.5h0.5v-6.5c0-0.828,0.672-1.5,1.5-1.5h6c0.828,0,1.5,0.672,1.5,1.5V21h0.5c0.828,0,1.5,0.672,1.5,1.5v11 c0,0.828-0.672,1.5-1.5,1.5h-0.5v50.5C23.042,86.328,22.37,87,21.542,87z M17.042,84h3V33.5c0-0.828,0.672-1.5,1.5-1.5h0.5v-8 h-0.5c-0.828,0-1.5-0.672-1.5-1.5V16h-3v6.5c0,0.828-0.672,1.5-1.5,1.5h-0.5v8h0.5c0.828,0,1.5,0.672,1.5,1.5V84z"/><path fill="#40396e" d="M36.542,41.5c-0.371,0-0.731-0.138-1.009-0.39c-0.312-0.284-0.491-0.688-0.491-1.11V16 c0-0.427,0.182-0.834,0.5-1.118s0.746-0.424,1.167-0.372l49.916,5.593c0.759,0.085,1.333,0.727,1.333,1.49v13.615 c0,0.772-0.587,1.419-1.356,1.493l-49.916,4.792C36.638,41.498,36.59,41.5,36.542,41.5z M38.042,17.678v20.671l46.916-4.504 v-10.91L38.042,17.678z M86.458,35.208h0.01H86.458z"/><path fill="#40396e" d="M22.543,24c-0.565,0-1.107-0.321-1.361-0.868c-0.349-0.752-0.022-1.644,0.729-1.992l14-6.5 c0.748-0.348,1.643-0.023,1.992,0.729c0.349,0.752,0.022,1.644-0.729,1.992l-14,6.5C22.97,23.955,22.755,24,22.543,24z"/><path fill="#40396e" d="M36.541,41.5c-0.212,0-0.426-0.045-0.631-0.14l-14-6.5c-0.751-0.349-1.077-1.24-0.729-1.992 c0.35-0.752,1.239-1.075,1.992-0.729l14,6.5c0.751,0.349,1.077,1.24,0.729,1.992C37.648,41.179,37.106,41.5,36.541,41.5z"/><path fill="#40396e" d="M23.54,27.511c-0.711,0-1.343-0.508-1.474-1.233c-0.147-0.814,0.394-1.595,1.209-1.742l13-2.352 c0.807-0.15,1.595,0.393,1.742,1.209c0.147,0.814-0.394,1.595-1.209,1.742l-13,2.352C23.719,27.503,23.629,27.511,23.54,27.511z"/><path fill="#40396e" d="M36.544,33.841c-0.089,0-0.179-0.008-0.269-0.024l-13-2.352c-0.815-0.147-1.356-0.928-1.209-1.742 c0.147-0.816,0.932-1.36,1.742-1.209l13,2.352c0.815,0.147,1.356,0.928,1.209,1.742C37.887,33.333,37.255,33.841,36.544,33.841z"/></svg>