<svg xmlns="http://www.w3.org/2000/svg"  viewBox="0 0 100 100" width="50px" height="50px"><path d="M81.574,33.388c-0.915-4.906-3.285-9.43-6.899-13.053c-4.723-4.724-11-7.325-17.675-7.325	c-10.491,0-19.662,6.503-23.315,16c-9.937,0.033-18.125,7.636-19.09,17.33C8.904,48.832,5,54.523,5,61.01c0,8.822,7.178,16,16,16	h5.896c-1.199,3.658,0.354,7.626,3.711,9.473c1.17,0.655,2.507,1.002,3.867,1.002c2.457,0,4.815-1.135,6.297-3.021l5.898-7.453	h3.227c-1.199,3.658,0.354,7.626,3.687,9.459c1.188,0.675,2.543,1.031,3.918,1.031c2.458,0,4.744-1.107,6.271-3.037l5.898-7.453	H77.5c12.131,0,22-9.869,22-22C99.5,44.271,91.766,35.305,81.574,33.388z" opacity=".35"/><path fill="#f2f2f2" d="M79.574,31.388c-0.915-4.906-3.285-9.43-6.899-13.053c-4.723-4.724-11-7.325-17.675-7.325	c-10.491,0-19.662,6.503-23.315,16c-9.937,0.033-18.125,7.636-19.09,17.33C6.904,46.832,3,52.523,3,59.01c0,8.822,7.178,16,16,16	h5.896c-1.199,3.658,0.354,7.626,3.711,9.473c1.17,0.655,2.507,1.002,3.867,1.002c2.457,0,4.815-1.135,6.297-3.021l5.898-7.453	h3.227c-1.199,3.658,0.354,7.626,3.687,9.459c1.188,0.675,2.543,1.031,3.918,1.031c2.458,0,4.744-1.107,6.271-3.037l5.898-7.453	H75.5c12.131,0,22-9.869,22-22C97.5,42.271,89.766,33.305,79.574,31.388z"/><path fill="#94cfff" d="M75.5,37.505c-0.708,0-1.4,0.064-2.084,0.156c0.049-0.547,0.084-1.097,0.084-1.656	c0-10.217-8.283-18.5-18.5-18.5c-9.695,0-17.634,7.461-18.422,16.953c-1.49-0.61-3.118-0.953-4.828-0.953	c-7.042,0-12.75,5.708-12.75,12.75c0,1.133,0.162,2.226,0.44,3.272c-0.147-0.007-0.291-0.022-0.44-0.022c-5.247,0-9.5,4.253-9.5,9.5	s4.253,9.5,9.5,9.5h56.5c8.56,0,15.5-6.94,15.5-15.5S84.06,37.505,75.5,37.505z"/><polygon fill="#ffe385" points="72.5,56 65,56 68.429,48 61.5,48 55,62 61,62 55.5,77.5"/><polygon fill="#ffe385" points="49.5,56 42,56 45.429,48 38.5,48 32,62 38,62 32.5,77.5"/><path fill="#40396e" d="M55.499,80.5c-0.508,0-1.01-0.13-1.453-0.376c-1.287-0.71-1.866-2.236-1.374-3.627l2.304-6.491	H42.251l-7.397,9.355c-0.888,1.122-2.558,1.456-3.808,0.763c-1.287-0.71-1.866-2.236-1.374-3.627l2.304-6.491H19	c-6.065,0-11-4.935-11-11c0-5.6,4.206-10.236,9.625-10.914c-0.083-0.617-0.125-1.23-0.125-1.836c0-7.857,6.393-14.25,14.25-14.25	c1.216,0,2.413,0.153,3.579,0.457c1.69-9.367,9.99-16.457,19.671-16.457c11.028,0,20,8.972,20,20c0,0.003,0,0.006,0,0.009	c0.169-0.006,0.335-0.009,0.5-0.009c9.374,0,17,7.626,17,17s-7.626,17-17,17H65.251l-7.397,9.355	C57.28,80.085,56.422,80.5,55.499,80.5z M41.524,67.006H57.1c0.487,0,0.944,0.236,1.226,0.635c0.281,0.397,0.351,0.907,0.188,1.367	L55.5,77.5l7.848-9.925c0.284-0.359,0.718-0.569,1.177-0.569H75.5c7.72,0,14-6.28,14-14s-6.28-14-14-14	c-0.564,0-1.163,0.045-1.885,0.142c-0.453,0.058-0.906-0.088-1.236-0.402c-0.329-0.315-0.497-0.764-0.457-1.218	C71.976,36.933,72,36.449,72,36.006c0-9.374-7.626-17-17-17c-8.767,0-16.202,6.842-16.927,15.576	c-0.04,0.477-0.304,0.905-0.712,1.155c-0.406,0.25-0.909,0.291-1.352,0.108c-1.361-0.558-2.795-0.84-4.26-0.84	c-6.203,0-11.25,5.047-11.25,11.25c0,0.941,0.131,1.913,0.39,2.887c0.122,0.462,0.018,0.955-0.283,1.327	c-0.3,0.371-0.775,0.58-1.237,0.556l-0.18-0.011c-0.063-0.004-0.126-0.009-0.189-0.009c-4.411,0-8,3.589-8,8s3.589,8,8,8h15.1	c0.487,0,0.944,0.236,1.226,0.635c0.281,0.397,0.351,0.907,0.188,1.367L32.5,77.5l7.848-9.925	C40.632,67.216,41.065,67.006,41.524,67.006z"/></svg>