<svg xmlns="http://www.w3.org/2000/svg"  viewBox="0 0 100 100" width="50px" height="50px"><path d="M83.265,17.313C79.815,11.308,73.016,8,64.117,8c-8.088,0-17.342,2.709-26.057,7.628	c-11.913,6.726-20.544,16.269-23.086,25.529c-1.401,5.111-0.908,9.964,1.427,14.033c2.338,4.07,6.263,6.938,11.394,8.338	c1.242,0.868,2.628,1.623,4.139,2.254c0.576,0.47,1.188,0.921,1.83,1.347c0.098,0.112,0.196,0.225,0.297,0.337	c0.073,0.15,0.148,0.301,0.227,0.451c0.074,0.458,0.17,0.918,0.287,1.38c-0.083,0.742-0.104,1.502-0.061,2.273	c-0.291,0.835-0.486,1.711-0.585,2.623c-0.309,0.547-0.567,1.126-0.774,1.729c-3.532,3.917-3.182,10.099,0.921,14.358	c2.144,2.223,4.983,3.532,7.837,3.626c1.604,0.73,3.277,1.111,4.913,1.111c1.059,0,2.098-0.158,3.084-0.467	c0.736,0.126,1.468,0.189,2.187,0.189c2.307,0,4.484-0.657,6.301-1.884c3.469-0.212,6.485-1.651,8.591-4.11	c3.346-0.958,6.03-2.957,7.695-5.77c0.203-0.343,0.389-0.695,0.558-1.056c3.079-1.703,5.335-4.248,6.459-7.34	c0.302-0.831,0.517-1.688,0.645-2.565c2.674-2.462,4.353-5.54,4.797-8.869c0.176-1.318,0.161-2.646-0.045-3.968	c2.078-3.148,2.985-6.609,2.638-10.138c-0.168-1.707-0.648-3.395-1.412-4.988c1.267-3.631,1.341-7.286,0.198-10.707	c-0.662-1.984-1.74-3.833-3.169-5.457C85.768,24.059,85.062,20.447,83.265,17.313z" opacity=".35"/><path fill="#f2f2f2" d="M81.265,15.313C77.815,9.308,71.016,6,62.117,6c-8.088,0-17.342,2.709-26.057,7.628	c-11.913,6.726-20.544,16.269-23.086,25.529c-1.401,5.111-0.908,9.964,1.427,14.033c2.338,4.07,6.263,6.938,11.394,8.338	c1.242,0.868,2.628,1.623,4.139,2.254c0.576,0.47,1.188,0.921,1.83,1.347c0.098,0.112,0.196,0.225,0.297,0.337	c0.073,0.15,0.148,0.301,0.227,0.451c0.074,0.458,0.17,0.918,0.287,1.38c-0.083,0.742-0.104,1.502-0.061,2.273	c-0.291,0.835-0.486,1.711-0.585,2.623c-0.309,0.547-0.567,1.126-0.774,1.729c-3.532,3.917-3.182,10.099,0.921,14.358	c2.144,2.223,4.983,3.532,7.837,3.626c1.604,0.73,3.277,1.111,4.913,1.111c1.059,0,2.098-0.158,3.084-0.467	c0.736,0.126,1.468,0.189,2.187,0.189c2.307,0,4.484-0.657,6.301-1.884c3.469-0.212,6.485-1.651,8.591-4.11	c3.346-0.958,6.03-2.957,7.695-5.77c0.203-0.343,0.389-0.695,0.558-1.056c3.079-1.703,5.335-4.248,6.459-7.34	c0.302-0.831,0.517-1.688,0.645-2.565c2.674-2.462,4.353-5.54,4.797-8.869c0.176-1.318,0.161-2.646-0.045-3.968	c2.078-3.148,2.985-6.609,2.638-10.138c-0.168-1.707-0.648-3.395-1.412-4.988c1.267-3.631,1.341-7.286,0.198-10.707	c-0.662-1.984-1.74-3.833-3.169-5.457C83.768,22.059,83.062,18.447,81.265,15.313z"/><path fill="#70bfff" d="M44.825,86.518c-1.131,0-2.352-0.448-3.518-1.28c-0.332,0.115-0.691,0.176-1.065,0.176	c-1.21,0-2.481-0.599-3.488-1.644c-1.744-1.812-2.022-4.288-0.634-5.639c0.271-0.263,0.583-0.464,0.931-0.602	c0.027-1.297,0.48-2.382,1.32-3.095c0.008-0.007,0.017-0.014,0.024-0.021c-0.152-1.494,0.123-2.793,0.804-3.787	c-0.295-1.357-0.274-2.62,0.061-3.716c-0.401-1.057-0.621-2.072-0.655-3.031c-0.441-0.705-0.795-1.4-1.056-2.076	c-0.531-0.523-1.007-1.063-1.419-1.606c-1.052-0.623-1.986-1.315-2.787-2.063c-1.855-0.665-3.434-1.539-4.7-2.604	c-4.016-0.834-6.985-2.758-8.604-5.577c-1.454-2.533-1.729-5.672-0.794-9.078c2.063-7.512,9.73-15.783,20.012-21.586	C46.9,14.975,55.232,12.5,62.117,12.5c6.472,0,11.27,2.148,13.51,6.05c1.55,2.699,1.754,6.028,0.609,9.687	c2.027,1.372,3.44,3.141,4.118,5.169c0.944,2.827,0.453,5.977-1.417,9.169c1.364,1.554,2.146,3.266,2.327,5.103	c0.274,2.798-0.881,5.567-3.354,8.067c0.724,1.515,0.988,3.038,0.786,4.543c-0.344,2.577-2.004,4.8-4.823,6.479	c0.218,1.269,0.123,2.474-0.284,3.598c-0.815,2.241-2.821,3.914-5.709,4.79c-0.083,0.922-0.348,1.764-0.791,2.512	c-1.125,1.901-3.275,3.022-6.105,3.201c-0.198,0.584-0.486,1.108-0.861,1.566c-1.045,1.276-2.646,1.952-4.63,1.952	c-0.499,0-1.021-0.044-1.558-0.13c-0.18,0.283-0.388,0.541-0.626,0.771c-0.819,0.794-1.932,1.216-3.214,1.216	c-0.896,0-1.868-0.207-2.865-0.606c-0.023,0.021-0.048,0.042-0.072,0.063C46.524,86.233,45.718,86.518,44.825,86.518z"/><path fill="#94cfff" d="M40.277,82.174c-0.823-1.079-1.348-2.242-1.587-3.314c-0.599-0.117-1.152-0.015-1.524,0.346	c-0.777,0.755-0.478,2.332,0.668,3.522c1.148,1.19,2.706,1.542,3.483,0.787c0.037-0.036,0.06-0.083,0.093-0.123	C41.016,83.034,40.631,82.638,40.277,82.174z"/><path fill="#94cfff" d="M46.173,78.649c-2.712-2.37-4.58-5.164-5.326-7.639c-0.018,0.016-0.039,0.028-0.056,0.045	c-1.882,1.824-0.84,6.188,2.331,9.748c3.169,3.56,7.266,4.967,9.148,3.143c0.385-0.373,0.641-0.856,0.789-1.413	C50.868,81.941,48.43,80.621,46.173,78.649z"/><path fill="#94cfff" d="M52.25,72.253c-5.534-2.134-9.905-5.451-12.148-8.818c-0.12,3.755,3.47,8.801,9.16,12.363	c6.926,4.337,14.331,4.831,16.538,1.103c0.5-0.844,0.675-1.837,0.59-2.911C62.602,74.797,57.476,74.27,52.25,72.253z"/><path fill="#94cfff" d="M56.932,62.417c-7.891,0.681-15.09-0.689-19.779-3.361c2.931,4.089,9.642,7.605,17.799,8.823	c11.489,1.715,21.456-1.773,22.26-7.791c0.208-1.557-0.229-3.13-1.173-4.638C71.99,59.017,65.033,61.718,56.932,62.417z"/><path fill="#94cfff" d="M78.932,33.881c-0.697-2.088-2.278-3.766-4.51-4.997c-2.495,6.479-9.313,13.697-18.75,19.023	c-9.563,5.398-19.441,7.514-26.347,6.228c5.025,4.546,16.335,5.395,28.127,1.578C71.792,51.073,81.409,41.298,78.932,33.881z"/><path fill="#94cfff" d="M44.36,44.832c-1.085,0-2.04-0.224-2.781-0.739c-1.112-0.773-1.734-1.85-1.802-3.116	c-0.168-3.147,3.315-6.334,4.014-6.941c0.709-0.615,1.78-0.539,2.395,0.17c0.615,0.707,0.541,1.78-0.167,2.397	c-1.233,1.074-2.907,3.13-2.847,4.196c0.005,0.107,0.015,0.272,0.348,0.503c1.008,0.7,6.771-0.935,11.064-4.498	c4.371-3.63,7.184-7.577,7.339-10.297c0.046-0.804-0.153-1.426-0.609-1.902c-1.496-1.559-10.346,0.17-18.017,5.166	c-9.714,6.503-10.729,11.779-10.737,11.83c-0.158,0.915-1.022,1.549-1.94,1.404c-0.916-0.143-1.552-0.983-1.423-1.901	c0.094-0.677,1.239-6.817,12.226-14.171c6.764-4.405,18.598-8.599,22.348-4.678c1.112,1.161,1.647,2.698,1.547,4.447	c-0.214,3.742-3.334,8.378-8.563,12.718C53.581,42.058,48.177,44.83,44.36,44.832z"/><path fill="#40396e" d="M62.117,14c5.694,0,10.173,1.75,12.209,5.296c1.537,2.678,1.469,6.021,0.095,9.588 c2.232,1.231,3.813,2.909,4.51,4.997c0.923,2.765,0.164,5.858-1.892,8.89c1.576,1.473,2.548,3.18,2.732,5.053 c0.266,2.7-1.138,5.34-3.733,7.626c0.945,1.508,1.381,3.08,1.173,4.638c-0.328,2.458-2.202,4.483-5.067,5.914 c0.429,1.348,0.468,2.657,0.034,3.849c-0.771,2.12-2.888,3.52-5.79,4.138c0.085,1.074-0.09,2.067-0.59,2.911 c-0.994,1.679-3.048,2.491-5.632,2.491c-0.128,0-0.257-0.002-0.388-0.006c-0.087,0.804-0.346,1.521-0.817,2.097 c-0.778,0.951-2,1.402-3.468,1.402c-0.756,0-1.577-0.119-2.436-0.352c-0.147,0.557-0.404,1.04-0.789,1.413 c-0.557,0.54-1.309,0.796-2.174,0.796c-1.008,0-2.169-0.348-3.354-0.996c-0.133,0.312-0.303,0.596-0.55,0.805 c-0.375,0.317-0.844,0.467-1.366,0.467c-1.035,0-2.279-0.588-3.415-1.625c-0.032,0.04-0.055,0.086-0.093,0.123 c-0.277,0.269-0.653,0.397-1.075,0.397c-0.761,0-1.67-0.419-2.409-1.185c-1.146-1.19-1.445-2.768-0.668-3.522 c0.275-0.267,0.649-0.392,1.067-0.392c0.148,0,0.301,0.016,0.457,0.046c-0.309-1.391-0.124-2.624,0.652-3.282 c0.207-0.175,0.45-0.284,0.707-0.361c-0.402-1.738-0.189-3.261,0.741-4.163c0.018-0.017,0.038-0.029,0.056-0.045 c-0.473-1.569-0.484-3.003,0.022-4.125c-0.529-1.212-0.801-2.383-0.767-3.449c-0.55-0.826-0.984-1.654-1.262-2.47 c-0.654-0.617-1.219-1.255-1.687-1.909c-1.169-0.666-2.178-1.415-3.007-2.231c-1.937-0.658-3.572-1.56-4.82-2.689 c-3.66-0.681-6.486-2.317-7.986-4.93c-4.33-7.541,4.022-20.352,18.654-28.611C47.745,16.22,55.702,14,62.117,14 M62.117,11 c-7.24,0-15.621,2.48-23.599,6.983c-10.618,5.993-18.558,14.613-20.721,22.497c-1.043,3.799-0.718,7.333,0.94,10.221 c1.789,3.115,4.972,5.255,9.236,6.22c1.28,1.015,2.814,1.86,4.576,2.52c0.76,0.682,1.62,1.317,2.567,1.897 c0.35,0.444,0.737,0.882,1.156,1.31c0.233,0.557,0.519,1.123,0.857,1.693c0.068,0.854,0.256,1.736,0.562,2.638 c-0.238,1.039-0.262,2.171-0.071,3.361c-0.536,1.005-0.795,2.187-0.763,3.492c-0.653,0.757-1.069,1.702-1.231,2.772 c-0.195,0.134-0.378,0.285-0.549,0.451c-1.99,1.934-1.728,5.34,0.597,7.755c1.29,1.338,2.955,2.104,4.57,2.104 c0.267,0,0.53-0.021,0.787-0.063c1.248,0.762,2.552,1.168,3.796,1.168c0.965,0,1.866-0.242,2.645-0.706 c0.902,0.284,1.787,0.43,2.625,0.43c1.68,0,3.154-0.568,4.262-1.642c0.085-0.082,0.167-0.167,0.246-0.253 c0.302,0.025,0.599,0.038,0.891,0.038c2.413,0,4.47-0.889,5.79-2.502c0.282-0.344,0.526-0.715,0.73-1.111 c2.886-0.39,5.111-1.72,6.367-3.843c0.393-0.665,0.675-1.382,0.843-2.148c2.868-1.085,4.885-2.956,5.775-5.406 c0.382-1.052,0.538-2.184,0.467-3.352c2.701-1.858,4.353-4.302,4.719-7.038c0.194-1.455,0.016-2.953-0.519-4.422 c2.32-2.637,3.384-5.553,3.091-8.533c-0.177-1.802-0.868-3.536-2.024-5.11c1.674-3.268,2.038-6.513,1.044-9.49 c-0.68-2.035-1.981-3.831-3.814-5.287c0.925-3.664,0.579-7.03-1.035-9.84C74.409,13.416,69.149,11,62.117,11L62.117,11z"/></svg>