<svg xmlns="http://www.w3.org/2000/svg"  viewBox="0 0 100 100" width="50px" height="50px"><path d="M95.362,36.723l-0.702-0.331c0.437-1.403,0.437-2.923-0.041-4.328	c-0.628-1.914-2.036-3.454-3.833-4.271l0.269-0.757c0.979-2.768,0.291-5.77-1.795-7.831c-1.414-1.401-3.285-2.173-5.268-2.173	c-0.88,0-1.749,0.153-2.596,0.462l-1.99,0.459c-1.204-2.302-2.134-4.051-4.865-4.051c-0.681,0-1.353,0.098-1.997,0.287l-2.186-0.524	c-1.28-2.491-2.117-4.479-4.973-4.5c-2.774,0-5.31,1.521-6.617,3.97l-0.608,1.14c-0.727-0.245-1.493-0.373-2.272-0.373	c-2.763,0-5.168,1.523-6.359,3.873l-1.099-0.386c-0.806-0.285-1.647-0.43-2.5-0.43c-1.94,0-3.783,0.742-5.192,2.095	c-2.05,1.971-2.807,4.885-1.974,7.604l0.419,1.366c-1.569,0.857-2.793,2.294-3.375,4.052c-0.318,0.976-0.415,1.994-0.305,2.986	c-6.826,2.799-12.413,8.256-15.316,15.111c-2.288,0.296-4.507,1.011-6.622,2.135C6.969,55.813,2.922,62.484,3.001,69.716	C3.117,80.349,11.864,89,22.5,89H69c0.077,0,0.154-0.001,0.231-0.004C69.32,88.999,69.41,89,69.5,89C79.701,89,88,80.701,88,70.5	c0-0.546-0.024-1.092-0.072-1.635c0.474-0.294,0.919-0.644,1.328-1.046c2.087-2.064,2.777-5.065,1.799-7.835l-0.271-0.767	c1.793-0.813,3.197-2.338,3.812-4.204c0.491-1.443,0.496-2.981,0.061-4.396l0.703-0.332c2.652-1.251,4.3-3.85,4.3-6.782	C99.659,40.573,98.013,37.976,95.362,36.723z" opacity=".35"/><path fill="#f2f2f2" d="M93.362,34.723l-0.702-0.331c0.437-1.403,0.437-2.923-0.041-4.328	c-0.628-1.914-2.036-3.454-3.833-4.271l0.269-0.757c0.979-2.768,0.291-5.77-1.795-7.831c-1.414-1.401-3.285-2.173-5.268-2.173	c-0.88,0-1.749,0.153-2.596,0.462l-0.537,0.197c-1.204-2.302-3.587-3.79-6.317-3.79c-0.681,0-1.353,0.098-1.997,0.287l-0.488-0.951	c-1.28-2.491-3.814-4.052-6.671-4.072c-2.774,0-5.31,1.521-6.617,3.97l-0.608,1.14c-0.727-0.245-1.493-0.373-2.272-0.373	c-2.763,0-5.168,1.523-6.359,3.873l-1.099-0.386c-0.806-0.285-1.647-0.43-2.5-0.43c-1.94,0-3.783,0.742-5.192,2.095	c-2.05,1.971-2.807,4.885-1.974,7.604l0.419,1.366c-1.569,0.857-2.793,2.294-3.375,4.052c-0.318,0.976-0.415,1.994-0.305,2.986	c-6.826,2.799-12.413,8.256-15.316,15.111c-2.288,0.296-4.507,1.011-6.622,2.135C4.969,53.813,0.922,60.484,1.001,67.716	C1.117,78.349,9.864,87,20.5,87H67c0.077,0,0.154-0.001,0.231-0.004C67.32,86.999,67.41,87,67.5,87C77.701,87,86,78.701,86,68.5	c0-0.546-0.024-1.092-0.072-1.635c0.474-0.294,0.919-0.644,1.328-1.046c2.087-2.064,2.777-5.065,1.799-7.835l-0.271-0.767	c1.793-0.813,3.197-2.338,3.812-4.204c0.491-1.443,0.496-2.981,0.061-4.396l0.703-0.332c2.652-1.251,4.3-3.85,4.3-6.782	C97.659,38.573,96.013,35.976,93.362,34.723z"/><path fill="#f9b84f" d="M83.592,47.25c-0.227-0.256-0.322-0.602-0.253-0.937c0.068-0.335,0.29-0.618,0.6-0.764l6.647-3.14	c0.764-0.361,0.764-1.448,0-1.808l-6.647-3.14c-0.31-0.146-0.532-0.429-0.6-0.764c-0.069-0.335,0.026-0.682,0.253-0.937l2.723-3.052	c0.22-0.246,0.163-0.514,0.128-0.618s-0.15-0.354-0.473-0.42l-4.518-0.929c-0.309-0.063-0.574-0.257-0.729-0.53	c-0.154-0.274-0.182-0.601-0.076-0.897l2.281-6.445c0.282-0.798-0.493-1.564-1.287-1.272l-6.163,2.263	c-0.124,0.047-0.253,0.069-0.382,0.069c-0.182,0-0.363-0.045-0.526-0.135c-0.278-0.153-0.475-0.42-0.539-0.731l-0.859-4.156	c-0.072-0.347-0.375-0.505-0.628-0.505c-0.154,0-0.293,0.054-0.414,0.161l-2.806,2.488c-0.201,0.178-0.459,0.274-0.723,0.274	c-0.067,0-0.135-0.006-0.203-0.019c-0.331-0.062-0.615-0.275-0.768-0.575l-3.355-6.524c-0.369-0.717-1.392-0.725-1.772-0.013	l-3.564,6.681c-0.156,0.295-0.439,0.503-0.768,0.562c-0.064,0.012-0.13,0.018-0.194,0.018c-0.264,0-0.522-0.096-0.723-0.274	l-2.951-2.618c-0.12-0.107-0.26-0.161-0.414-0.161c-0.252,0-0.555,0.158-0.628,0.505l-0.861,4.16	c-0.064,0.308-0.258,0.573-0.532,0.727c-0.165,0.093-0.349,0.139-0.533,0.139c-0.123,0-0.247-0.021-0.366-0.063l-6.703-2.352	c-0.774-0.272-1.527,0.452-1.287,1.236l2.07,6.758c0.091,0.292,0.054,0.609-0.102,0.873c-0.156,0.263-0.417,0.449-0.717,0.511	l-3.769,0.774c-0.323,0.066-0.438,0.316-0.473,0.42c-0.034,0.104-0.091,0.372,0.129,0.618l2.602,2.918	c0.227,0.256,0.322,0.602,0.253,0.937c-0.068,0.335-0.29,0.618-0.6,0.764L41.8,37.611c-9.418,0.957-17.035,7.994-18.873,17.123	c-2.512-0.475-5.392-0.24-8.312,1.312c-4.344,2.309-7.167,6.679-7.113,11.598C7.578,74.758,13.369,80.5,20.5,80.5H67v-0.025	c0.167,0.007,0.331,0.025,0.5,0.025c6.627,0,12-5.373,12-12c0-3.812-1.783-7.202-4.554-9.4c0.05-0.007,0.099-0.019,0.149-0.019	c0.129,0,0.258,0.023,0.382,0.069l6.162,2.272c0.795,0.293,1.571-0.473,1.289-1.271l-2.28-6.455	c-0.106-0.296-0.078-0.623,0.076-0.897c0.154-0.273,0.42-0.468,0.729-0.53l4.518-0.929c0.323-0.066,0.438-0.316,0.473-0.42	c0.035-0.104,0.091-0.372-0.128-0.618L83.592,47.25z"/><circle cx="63.25" cy="42" r="12.5" fill="#ffc571"/><path fill="#94cfff" d="M78,68.5C78,74.29,73.29,79,67.5,79c-0.07,0-0.14-0.01-0.2-0.01l-0.24-0.01	c-0.02-0.01-0.04-0.01-0.06-0.01c-0.09,0-0.17,0.01-0.26,0.03H20.5C14.16,79,9,73.84,9,67.5S14.16,56,20.5,56	c0.69,0,1.42,0.07,2.15,0.21c0.8,0.16,1.58-0.37,1.75-1.18C26.27,45.74,34.51,39,44,39c10.25,0,18.8,7.68,19.88,17.86	c0.05,0.41,0.26,0.79,0.59,1.04c0.34,0.25,0.76,0.35,1.17,0.28C66.3,58.06,66.91,58,67.5,58C73.29,58,78,62.71,78,68.5z"/><path fill="#40396e" d="M91.23,39.24l-6.15-2.9l2.35-2.63c0.52-0.58,0.68-1.37,0.44-2.09c-0.24-0.73-0.84-1.27-1.6-1.42	l-1.48-0.3l-2.57-0.53l2.12-6c0.33-0.92,0.1-1.93-0.6-2.61c-0.69-0.69-1.7-0.91-2.62-0.57l-5.72,2.1l-0.76-3.69	c-0.21-1-1.07-1.7-2.1-1.7c-0.51,0-1.01,0.19-1.41,0.54l-2.41,2.14l-3.11-6.06c-0.43-0.83-1.27-1.35-2.2-1.36c-0.01,0-0.02,0-0.02,0	c-0.93,0-1.77,0.51-2.21,1.33l-3.32,6.22l-2.56-2.27c-0.4-0.35-0.89-0.54-1.41-0.54c-1.03,0-1.89,0.7-2.1,1.7l-0.76,3.7l-6.27-2.2	c-0.89-0.31-1.87-0.1-2.56,0.56c-0.68,0.65-0.93,1.63-0.66,2.53l1.94,6.33l-3.32,0.68c-0.76,0.15-1.35,0.68-1.6,1.42	c-0.24,0.73-0.07,1.51,0.44,2.09l2.19,2.46c-9.25,1.13-17.02,7.94-19.41,16.9c-0.66-0.06-1.32-0.07-1.98-0.02	c-0.24,0.01-0.48,0.03-0.72,0.06c-1.77,0.19-3.52,0.73-5.17,1.61C8.97,57.35,5.94,62.3,6,67.66C6.09,75.57,12.59,82,20.5,82H67	c0.06,0,0.12,0,0.18-0.01C67.29,82,67.39,82,67.5,82C74.94,82,81,75.94,81,68.5c0-2.23-0.54-4.38-1.55-6.29l1.67,0.62	c0.92,0.34,1.92,0.12,2.62-0.57c0.7-0.68,0.93-1.69,0.6-2.61l-2.12-6.01l3.32-0.68l0.73-0.15c0.76-0.16,1.35-0.69,1.59-1.41	c0.25-0.73,0.09-1.52-0.43-2.1l-2.35-2.63l6.15-2.91c0.88-0.41,1.43-1.28,1.43-2.26C92.66,40.53,92.11,39.66,91.23,39.24z M83.3,44.19c-0.74,0.35-1.27,1.03-1.43,1.82c-0.03,0.17-0.05,0.34-0.05,0.52c0,0.63,0.23,1.24,0.65,1.72l1.72,1.92l-3.04,0.63	c-0.73,0.15-1.36,0.61-1.73,1.26c-0.37,0.66-0.44,1.44-0.19,2.14l1.93,5.45l-5.15-1.9c-0.41-0.15-0.84-0.21-1.27-0.14	c-0.59,0.09-1.08,0.51-1.24,1.09c-0.16,0.58,0.04,1.2,0.51,1.57C76.55,62.28,78,65.28,78,68.5C78,74.29,73.29,79,67.5,79	c-0.07,0-0.14-0.01-0.2-0.01l-0.24-0.01c-0.02-0.01-0.04-0.01-0.06-0.01c-0.09,0-0.17,0.01-0.26,0.03H20.5	C14.23,79,9.07,73.9,9,67.63c-0.05-4.23,2.38-8.16,6.32-10.26c1.3-0.69,2.63-1.12,3.99-1.29c0.2-0.02,0.39-0.04,0.59-0.05	c0.91-0.06,1.83,0,2.75,0.18c0.8,0.15,1.58-0.37,1.75-1.18c1.71-8.5,8.93-15.05,17.55-15.93c0.18-0.02,0.36-0.07,0.52-0.15	l0.54-0.27c0.74-0.35,1.27-1.03,1.43-1.82s-0.06-1.62-0.6-2.23l-1.6-1.8l2.29-0.47c0.71-0.14,1.34-0.59,1.71-1.21	c0.37-0.63,0.46-1.39,0.24-2.08l-1.78-5.81l5.78,2.03c0.7,0.24,1.48,0.17,2.12-0.19c0.66-0.37,1.12-1,1.27-1.73l0.56-2.69l1.83,1.62	c0.58,0.53,1.4,0.75,2.18,0.61c0.79-0.14,1.45-0.63,1.82-1.33l3.12-5.84l2.91,5.67c0.36,0.71,1.05,1.22,1.83,1.37	c0.79,0.15,1.61-0.08,2.2-0.61L72,20.68l0.56,2.68c0.15,0.74,0.62,1.38,1.28,1.74c0.65,0.36,1.46,0.43,2.15,0.17l5.17-1.9	l-1.93,5.44c-0.25,0.7-0.18,1.48,0.19,2.14c0.36,0.65,1,1.11,1.73,1.26l3.04,0.62l-1.72,1.93c-0.54,0.61-0.76,1.44-0.6,2.24	c0.16,0.79,0.7,1.47,1.43,1.82l5.69,2.68L83.3,44.19z"/></svg>