<svg xmlns="http://www.w3.org/2000/svg"  viewBox="0 0 100 100" width="50px" height="50px"><path d="M85.5,10.006H77c-3.584,0-6.5,2.916-6.5,6.5v24.967c-7.687-14.628-20.943-27.674-22.995-29.648	c-1.217-1.17-2.817-1.814-4.505-1.814s-3.288,0.645-4.506,1.815C35.577,14.631,10,39.818,10,60.115C10,79.351,24.804,95,43,95	c11.472,0,21.587-6.224,27.5-15.643V88.5h0c0,0.002,0,0.004,0,0.006c0,3.584,2.916,6.5,6.5,6.5h8.5c3.584,0,6.5-2.916,6.5-6.5v-72	C92,12.922,89.084,10.006,85.5,10.006z" opacity=".35"/><path fill="#f2f2f2" d="M83.5,8.006H75c-3.584,0-6.5,2.916-6.5,6.5v24.967C60.813,24.845,47.557,11.798,45.505,9.825	C44.288,8.655,42.688,8.011,41,8.011s-3.288,0.645-4.506,1.815C33.577,12.631,8,37.818,8,58.115C8,77.351,22.804,93,41,93	c11.472,0,21.587-6.224,27.5-15.643V86.5h0c0,0.002,0,0.004,0,0.006c0,3.584,2.916,6.5,6.5,6.5h8.5c3.584,0,6.5-2.916,6.5-6.5v-72	C90,10.922,87.084,8.006,83.5,8.006z"/><path fill="#40396e" d="M83.5,13.005H75c-0.828,0-1.5,0.672-1.5,1.5s0.672,1.5,1.5,1.5h7v6h-2.5c-0.828,0-1.5,0.672-1.5,1.5	s0.672,1.5,1.5,1.5H82v6h-2.5c-0.828,0-1.5,0.672-1.5,1.5s0.672,1.5,1.5,1.5H82v6h-2.5c-0.828,0-1.5,0.672-1.5,1.5	s0.672,1.5,1.5,1.5H82v6h-5.5c-0.828,0-1.5,0.672-1.5,1.5s0.672,1.5,1.5,1.5H82v6h-2.5c-0.828,0-1.5,0.672-1.5,1.5	s0.672,1.5,1.5,1.5H82v6h-2.5c-0.828,0-1.5,0.672-1.5,1.5s0.672,1.5,1.5,1.5H82v6h-2.5c-0.828,0-1.5,0.672-1.5,1.5	s0.672,1.5,1.5,1.5H82v6h-7c-0.828,0-1.5,0.672-1.5,1.5s0.672,1.5,1.5,1.5h8.5c0.828,0,1.5-0.672,1.5-1.5v-72	C85,13.677,84.328,13.005,83.5,13.005z"/><path fill="#d9eeff" d="M67.5,58.115C67.5,73.792,55.636,86.5,41,86.5S14.5,73.792,14.5,58.115C14.5,40,41,14.511,41,14.511	S67.5,40,67.5,58.115z"/><path fill="#70bfff" d="M65.85,49.418C64.157,50.441,59.205,53,52,53c-7.5,0-12.5-7-23-7c-6.603,0-11.042,2.417-12.944,3.708	c-0.974,2.909-1.556,5.749-1.556,8.408C14.5,73.792,26.364,86.5,41,86.5s26.5-12.708,26.5-28.385	C67.5,55.369,66.884,52.428,65.85,49.418z"/><path fill="#40396e" d="M41,88c-15.439,0-28-13.406-28-29.885c0-18.54,25.859-43.627,26.96-44.686	c0.581-0.559,1.499-0.559,2.08,0C43.141,14.488,69,39.575,69,58.115C69,74.594,56.439,88,41,88z M41,16.627	c-4.853,4.911-25,26.225-25,41.488C16,72.939,27.215,85,41,85s25-12.061,25-26.885C66,42.842,45.853,21.536,41,16.627z"/></svg>