<svg xmlns="http://www.w3.org/2000/svg"  viewBox="0 0 100 100" width="50px" height="50px"><path d="M80.572,33.378C78.398,21.793,68.207,13,56,13	c-10.489,0-19.658,6.503-23.313,16c-9.94,0.032-18.131,7.638-19.092,17.337C7.904,48.828,4,54.517,4,61	c0,8.474,6.622,15.431,14.962,15.967C21.487,84.555,28.682,90,37,90h38c9.374,0,17-7.626,17-17c0-0.761-0.051-1.517-0.151-2.264	C96.063,66.624,98.5,60.954,98.5,55C98.5,44.26,90.765,35.292,80.572,33.378z" opacity=".35"/><path fill="#f2f2f2" d="M78.572,31.378C76.398,19.793,66.207,11,54,11c-10.489,0-19.658,6.503-23.313,16	c-9.94,0.032-18.131,7.638-19.092,17.337C5.904,46.828,2,52.517,2,59c0,8.474,6.622,15.431,14.962,15.967	C19.487,82.555,26.682,88,35,88h38c9.374,0,17-7.626,17-17c0-0.761-0.051-1.517-0.151-2.264C94.063,64.624,96.5,58.954,96.5,53	C96.5,42.26,88.765,33.292,78.572,31.378z"/><path fill="#70bfff" d="M90,53c0-8.56-6.94-15.5-15.5-15.5c-0.708,0-1.4,0.064-2.084,0.156C72.465,37.11,72.5,36.559,72.5,36	c0-10.217-8.283-18.5-18.5-18.5c-9.695,0-17.634,7.461-18.422,16.953c-1.49-0.61-3.118-0.953-4.828-0.953	C23.708,33.5,18,39.208,18,46.25c0,1.133,0.162,2.226,0.44,3.272C18.293,49.516,18.148,49.5,18,49.5c-5.247,0-9.5,4.253-9.5,9.5	s4.253,9.5,9.5,9.5h4.525C22.519,68.667,22.5,68.831,22.5,69c0,6.904,5.596,12.5,12.5,12.5h38c5.799,0,10.5-4.701,10.5-10.5	c0-1.682-0.406-3.267-1.109-4.676C86.941,63.623,90,58.675,90,53z"/><path fill="#d9eeff" d="M82,71c0,4.96-4.04,9-9,9H35c-6.07,0-11-4.93-11-11s4.93-11,11-11c0.66,0,1.35,0.07,2.05,0.2	s1.4-0.25,1.67-0.91C41.26,51.04,47.26,47,54,47c8.11,0,14.95,5.81,16.26,13.82c0.13,0.8,0.86,1.35,1.66,1.25	C72.33,62.02,72.68,62,73,62C77.96,62,82,66.04,82,71z"/><path fill="#40396e" d="M73,83H35c-7.383,0-13.45-5.745-13.965-13H18c-6.065,0-11-4.935-11-11	c0-5.6,4.207-10.235,9.625-10.914c-0.083-0.617-0.125-1.229-0.125-1.836C16.5,38.393,22.893,32,30.75,32	c1.216,0,2.414,0.153,3.579,0.457C36.02,23.091,44.32,16,54,16c11.028,0,20,8.972,20,20c0,0.003,0,0.006,0,0.009	C74.169,36.003,74.335,36,74.5,36c9.374,0,17,7.626,17,17c0,5.518-2.74,10.727-7.231,13.894C84.755,68.211,85,69.587,85,71	C85,77.617,79.617,83,73,83z M18,51c-4.411,0-8,3.589-8,8s3.589,8,8,8h4.525c0.409,0,0.799,0.167,1.082,0.461	c0.283,0.295,0.434,0.692,0.417,1.101l-0.014,0.234C24.006,68.863,24,68.931,24,69c0,6.065,4.935,11,11,11h38c4.962,0,9-4.037,9-9	c0-1.394-0.32-2.741-0.951-4.006c-0.351-0.703-0.099-1.559,0.577-1.96C85.93,62.479,88.5,57.979,88.5,53c0-7.72-6.28-14-14-14	c-0.56,0-1.158,0.045-1.884,0.143c-0.452,0.058-0.907-0.088-1.236-0.402c-0.33-0.314-0.498-0.762-0.458-1.216	C70.975,36.925,71,36.44,71,36c0-9.374-7.626-17-17-17c-8.767,0-16.202,6.843-16.927,15.577c-0.04,0.477-0.304,0.905-0.711,1.155	c-0.409,0.25-0.911,0.289-1.353,0.108C33.649,35.283,32.216,35,30.75,35c-6.203,0-11.25,5.047-11.25,11.25	c0,0.942,0.131,1.914,0.389,2.888c0.123,0.462,0.018,0.955-0.283,1.327c-0.3,0.371-0.75,0.577-1.237,0.556l-0.19-0.011	C18.12,51.005,18.061,51,18,51z"/></svg>