<svg xmlns="http://www.w3.org/2000/svg"  viewBox="0 0 100 100" width="50px" height="50px"><path d="M84.91,52.39C87.94,56.93,93,65.3,93,70.41C93,77.9,86.94,84,79.51,84c-7.44,0-13.49-6.1-13.49-13.59	c0-2.45,1.16-5.65,2.71-8.81c-2.31,2.11-5.36,3.4-8.71,3.4c-2.59,0-5-0.78-7.03-2.1c0.67,2.1,1.03,4.32,1.03,6.6	c0,11.86-9.65,21.5-21.5,21.5c-11.85,0-21.5-9.64-21.5-21.5c0-7.04,3.38-13.5,9-17.49V23.5c0-6.89,5.61-12.5,12.5-12.5	s12.5,5.61,12.5,12.5v28.51c0.76,0.54,1.47,1.12,2.15,1.75c-0.09-0.61-0.15-1.23-0.15-1.86c0-4.64,4.13-11.81,7.59-17	c1.19-1.79,3.21-2.86,5.41-2.86s4.22,1.07,5.41,2.86c0.21,0.31,0.41,0.62,0.62,0.94c0.34-5.15,5.14-13.07,8.05-17.44	c1.19-1.79,3.21-2.86,5.41-2.86c2.19,0,4.21,1.07,5.4,2.85C87.94,22.93,93,31.3,93,36.41c0,6.83-5.03,12.48-11.55,13.43	C82.86,50.27,84.09,51.15,84.91,52.39z" opacity=".35"/><path fill="#f2f2f2" d="M82.91,50.39C85.94,54.93,91,63.3,91,68.41C91,75.9,84.94,82,77.51,82c-7.44,0-13.49-6.1-13.49-13.59	c0-2.45,1.16-5.65,2.71-8.81c-2.31,2.11-5.36,3.4-8.71,3.4c-2.59,0-5-0.78-7.03-2.1c0.67,2.1,1.03,4.32,1.03,6.6	c0,11.86-9.65,21.5-21.5,21.5c-11.85,0-21.5-9.64-21.5-21.5c0-7.04,3.38-13.5,9-17.49V21.5c0-6.89,5.61-12.5,12.5-12.5	s12.5,5.61,12.5,12.5v28.51c0.76,0.54,1.47,1.12,2.15,1.75c-0.09-0.61-0.15-1.23-0.15-1.86c0-4.64,4.13-11.81,7.59-17	c1.19-1.79,3.21-2.86,5.41-2.86s4.22,1.07,5.41,2.86c0.21,0.31,0.41,0.62,0.62,0.94c0.34-5.15,5.14-13.07,8.05-17.44	c1.19-1.79,3.21-2.86,5.41-2.86c2.19,0,4.21,1.07,5.4,2.85C85.94,20.93,91,29.3,91,34.41c0,6.83-5.03,12.48-11.55,13.43	C80.86,48.27,82.09,49.15,82.91,50.39z"/><path fill="#d9eeff" d="M36.52,53.5v-32c0-3.314-2.686-6-6-6s-6,2.686-6,6v32H36.52z"/><path fill="#70bfff" d="M36.52,53.756V30h-12v23.756c-5.296,2.315-9,7.594-9,13.744c0,8.284,6.716,15,15,15	c8.284,0,15-6.716,15-15C45.52,61.35,41.816,56.072,36.52,53.756z"/><rect width="5.5" height="3" x="31.02" y="48" fill="#40396e"/><rect width="5.5" height="3" x="31.02" y="42" fill="#40396e"/><rect width="5.5" height="3" x="31.02" y="36" fill="#40396e"/><rect width="5.5" height="3" x="31.02" y="30" fill="#40396e"/><rect width="5.5" height="3" x="31.02" y="24" fill="#40396e"/><path fill="#40396e" d="M30.52,84c-9.098,0-16.5-7.402-16.5-16.5c0-6.222,3.501-11.885,9-14.692V21.5	c0-4.136,3.364-7.5,7.5-7.5s7.5,3.364,7.5,7.5v31.308c5.499,2.809,9,8.471,9,14.692C47.02,76.598,39.618,84,30.52,84z M30.52,17	c-2.481,0-4.5,2.019-4.5,4.5v32.257c0,0.596-0.353,1.136-0.899,1.374C20.2,57.283,17.02,62.138,17.02,67.5	c0,7.444,6.056,13.5,13.5,13.5s13.5-6.056,13.5-13.5c0-5.362-3.18-10.217-8.101-12.369c-0.546-0.238-0.899-0.778-0.899-1.374V21.5	C35.02,19.019,33.001,17,30.52,17z"/><path fill="#70bfff" d="M84.495,34.407C84.495,30.49,77.507,20,77.507,20S70.52,30.49,70.52,34.407s3.128,7.093,6.988,7.093	C81.367,41.5,84.495,38.325,84.495,34.407z"/><path fill="#40396e" d="M77.507,43c-4.68,0-8.487-3.854-8.487-8.593c0-4.248,6.498-14.126,7.239-15.238	c0.557-0.836,1.94-0.835,2.497-0.001c0.741,1.113,7.239,10.991,7.239,15.239C85.995,39.146,82.188,43,77.507,43z M77.507,22.771	c-2.496,4-5.487,9.492-5.487,11.637c0,3.084,2.461,5.593,5.487,5.593s5.488-2.509,5.488-5.593	C82.995,32.261,80.004,26.77,77.507,22.771z"/><path fill="#70bfff" d="M64.52,49.902c0-3.644-6.5-13.402-6.5-13.402s-6.5,9.758-6.5,13.402s2.91,6.598,6.5,6.598	S64.52,53.546,64.52,49.902z"/><path fill="#40396e" d="M58.02,58c-4.411,0-8-3.633-8-8.098c0-3.899,5.624-12.541,6.751-14.233	c0.557-0.836,1.94-0.836,2.497,0c1.127,1.692,6.751,10.334,6.751,14.233C66.02,54.367,62.431,58,58.02,58z M58.02,39.275	c-2.297,3.695-5,8.678-5,10.627c0,2.811,2.243,5.098,5,5.098s5-2.287,5-5.098C63.02,47.951,60.317,42.97,58.02,39.275z"/><path fill="#70bfff" d="M84.495,68.407C84.495,64.49,77.507,54,77.507,54S70.52,64.49,70.52,68.407s3.128,7.093,6.988,7.093	C81.367,75.5,84.495,72.325,84.495,68.407z"/><path fill="#40396e" d="M77.507,77c-4.68,0-8.487-3.854-8.487-8.593c0-4.248,6.498-14.126,7.239-15.238	c0.557-0.836,1.94-0.835,2.497-0.001c0.741,1.113,7.239,10.991,7.239,15.239C85.995,73.146,82.188,77,77.507,77z M77.507,56.771	c-2.496,4-5.487,9.492-5.487,11.637c0,3.084,2.461,5.593,5.487,5.593s5.488-2.509,5.488-5.593	C82.995,66.261,80.004,60.77,77.507,56.771z"/></svg>