<svg xmlns="http://www.w3.org/2000/svg"  viewBox="0 0 100 100" width="50px" height="50px"><path d="M69.999,56.474C69.993,54.974,70,26.01,70,24.5	c0-2.321-1.22-4.352-3.051-5.502C66.43,11.194,59.933,5,52,5c-8.271,0-15,6.729-15,15v32.763C30.746,57.33,27,64.575,27,72.5	C27,86.009,37.99,97,51.5,97S76,86.009,76,72.5C76,66.549,73.802,60.87,69.999,56.474z" opacity=".35"/><path fill="#f2f2f2" d="M67.999,54.474C67.993,52.974,68,24.01,68,22.5c0-2.321-1.22-4.352-3.051-5.502	C64.43,9.194,57.933,3,50,3c-8.271,0-15,6.729-15,15v32.763C28.746,55.33,25,62.575,25,70.5C25,84.009,35.99,95,49.5,95	S74,84.009,74,70.5C74,64.549,71.802,58.87,67.999,54.474z"/><path fill="#f4665c" d="M58.5,54.928c0-13.943,0-35.226,0-36.928c0-4.694-3.806-8.5-8.5-8.5s-8.5,3.806-8.5,8.5	c0,3.225,0,21.51,0,36.393c-5.922,2.947-10,9.043-10,16.107c0,9.941,8.059,18,18,18s18-8.059,18-18	C67.5,63.841,63.875,58.041,58.5,54.928z"/><path fill="#d9eeff" d="M58.5,37c0-9.556,0-17.957,0-19c0-4.694-3.806-8.5-8.5-8.5s-8.5,3.806-8.5,8.5c0,2.002,0,9.808,0,19	H58.5z"/><path fill="#b73b3b" d="M58.5,48h-6c-0.828,0-1.5-0.672-1.5-1.5l0,0c0-0.828,0.672-1.5,1.5-1.5h6V48z"/><path fill="#b73b3b" d="M58.5,40h-6c-0.828,0-1.5-0.672-1.5-1.5l0,0c0-0.828,0.672-1.5,1.5-1.5h6V40z"/><path fill="#b73b3b" d="M58.5,56h-6c-0.828,0-1.5-0.672-1.5-1.5l0,0c0-0.828,0.672-1.5,1.5-1.5h6V56z"/><path fill="#70bfff" d="M58.5,32h-6c-0.828,0-1.5-0.672-1.5-1.5l0,0c0-0.828,0.672-1.5,1.5-1.5h6V32z"/><path fill="#70bfff" d="M58.5,24h-6c-0.828,0-1.5-0.672-1.5-1.5l0,0c0-0.828,0.672-1.5,1.5-1.5h6V24z"/><line x1="58.5" x2="61.5" y1="54.5" y2="54.5" fill="none" stroke="#40396e" stroke-linecap="round" stroke-linejoin="round" stroke-miterlimit="10" stroke-width="3"/><line x1="58.5" x2="61.5" y1="22.5" y2="22.5" fill="none" stroke="#40396e" stroke-linecap="round" stroke-linejoin="round" stroke-miterlimit="10" stroke-width="3"/><line x1="58.5" x2="61.5" y1="30.5" y2="30.5" fill="none" stroke="#40396e" stroke-linecap="round" stroke-linejoin="round" stroke-miterlimit="10" stroke-width="3"/><line x1="58.5" x2="61.5" y1="38.5" y2="38.5" fill="none" stroke="#40396e" stroke-linecap="round" stroke-linejoin="round" stroke-miterlimit="10" stroke-width="3"/><line x1="58.5" x2="61.5" y1="46.5" y2="46.5" fill="none" stroke="#40396e" stroke-linecap="round" stroke-linejoin="round" stroke-miterlimit="10" stroke-width="3"/><path fill="none" stroke="#40396e" stroke-linejoin="round" stroke-miterlimit="10" stroke-width="3" d="M58.5,54.928	c0-13.943,0-35.226,0-36.928c0-4.694-3.806-8.5-8.5-8.5s-8.5,3.806-8.5,8.5c0,3.225,0,21.51,0,36.393	c-5.922,2.947-10,9.043-10,16.107c0,9.941,8.059,18,18,18s18-8.059,18-18C67.5,63.841,63.875,58.041,58.5,54.928z"/></svg>