<svg xmlns="http://www.w3.org/2000/svg"  viewBox="0 0 100 100" width="50px" height="50px"><path d="M82.91,64.25C84.23,66.18,85,68.5,85,71c0,6.62-5.38,12-12,12c-2.82,0-4.85-0.91-5.41-1.19	c-0.76-0.38-1.41-0.89-1.94-1.49C64.42,85.36,59.97,89,54.5,89c-3.21,0-5.86-1.6-6.6-2.09c-1.45-0.97-2.43-2.43-2.77-4.13	C44.87,81.49,45,80.18,45.5,79H36c-3.58,0-6.5-2.92-6.5-6.5c0-0.17,0.01-0.33,0.03-0.5H24.5c-3.58,0-6.5-2.92-6.5-6.5	c0-0.94,0.974-3.245,1.344-4.055C14.184,58.045,10,53.62,10,47c0-10.29,8.22-18.69,18.44-18.99C32.65,19,41.83,13,52,13	s19.35,6,23.56,15.01C85.78,28.31,94,36.71,94,47C94,54.65,89.45,61.24,82.91,64.25z" opacity=".35"/><path fill="#f2f2f2" d="M80.91,62.25C82.23,64.18,83,66.5,83,69c0,6.62-5.38,12-12,12c-2.82,0-4.85-0.91-5.41-1.19	c-0.76-0.38-1.41-0.89-1.94-1.49C62.42,83.36,57.97,87,52.5,87c-3.21,0-5.86-1.6-6.6-2.09c-1.45-0.97-2.43-2.43-2.77-4.13	C42.87,79.49,43,78.18,43.5,77H34c-3.58,0-6.5-2.92-6.5-6.5c0-0.17,0.01-0.33,0.03-0.5H22.5c-3.58,0-6.5-2.92-6.5-6.5	c0-0.94,0.2-1.83,0.57-2.64C11.41,57.46,8,51.62,8,45c0-10.29,8.22-18.69,18.44-18.99C30.65,17,39.83,11,50,11s19.35,6,23.56,15.01	C83.78,26.31,92,34.71,92,45C92,52.65,87.45,59.24,80.91,62.25z"/><path fill="#94cfff" d="M73,32.5c-1.359,0-2.663,0.224-3.888,0.624C67.315,24.212,59.442,17.5,50,17.5	s-17.315,6.712-19.112,15.624C29.663,32.724,28.359,32.5,27,32.5c-6.904,0-12.5,5.596-12.5,12.5S20.096,57.5,27,57.5	c0.169,0,45.831,0,46,0c6.904,0,12.5-5.596,12.5-12.5S79.904,32.5,73,32.5z"/><path fill="#40396e" d="M73,59H27c-7.72,0-14-6.28-14-14s6.28-14,14-14c0.937,0,1.87,0.095,2.79,0.283	C32.315,22.339,40.574,16,50,16s17.685,6.339,20.21,15.283C71.13,31.095,72.063,31,73,31c7.72,0,14,6.28,14,14S80.72,59,73,59z M27,34c-6.065,0-11,4.935-11,11s4.935,11,11,11h46c6.065,0,11-4.935,11-11s-4.935-11-11-11c-1.154,0-2.306,0.185-3.422,0.55	c-0.405,0.134-0.851,0.086-1.222-0.13c-0.37-0.216-0.63-0.579-0.715-0.999C65.956,25.064,58.537,19,50,19	s-15.956,6.064-17.642,14.421c-0.085,0.42-0.345,0.783-0.715,0.999c-0.371,0.216-0.817,0.264-1.222,0.13	C29.306,34.185,28.154,34,27,34z"/><path fill="#40396e" d="M56.5,53h-14c-0.828,0-1.5-0.672-1.5-1.5s0.672-1.5,1.5-1.5h14c1.654,0,3-1.346,3-3s-1.346-3-3-3	c-0.516,0-1.139,0.249-1.336,0.345c-0.742,0.361-1.64,0.059-2.006-0.683c-0.365-0.74-0.067-1.635,0.671-2.004	C53.964,41.591,55.184,41,56.5,41c3.309,0,6,2.691,6,6S59.809,53,56.5,53z"/><path fill="#40396e" d="M52.5,82c-1.899,0-3.64-1.124-3.832-1.252c-0.689-0.46-0.876-1.391-0.416-2.08	s1.392-0.876,2.08-0.416C50.646,78.458,51.658,79,52.5,79c2.061,0,3.5-1.439,3.5-3.5c0-1.93-1.57-3.5-3.5-3.5H34	c-0.828,0-1.5-0.672-1.5-1.5S33.172,69,34,69h18.5c3.584,0,6.5,2.916,6.5,6.5C59,79.206,56.206,82,52.5,82z"/><path fill="#40396e" d="M71,76c-1.802,0-3.036-0.591-3.171-0.658c-0.741-0.371-1.041-1.271-0.671-2.013	c0.371-0.74,1.271-1.039,2.013-0.671l0,0C69.172,72.658,69.914,73,71,73c2.206,0,4-1.794,4-4s-1.794-4-4-4H22.5	c-0.828,0-1.5-0.672-1.5-1.5s0.672-1.5,1.5-1.5H71c3.859,0,7,3.141,7,7S74.859,76,71,76z"/></svg>