<svg xmlns="http://www.w3.org/2000/svg"  viewBox="0 0 100 100" width="50px" height="50px"><path d="M89.037,46.815l-13.92,8.233c-2.08,1.209-4.628,1.268-6.759,0.151	c-5.706-2.99-16.588-8.917-17.507-11.085c-1.63,2.06-4.09,3.41-6.81,3.59c-0.27,3.94-3,7.46-7.02,8.54	c-0.14,0.04-0.28,0.05-0.42,0.08c0.89,0.44,1.71,1.01,2.42,1.72c2.21,2.21,3.03,5.28,2.46,8.14c0.39,0.44,0.74,0.93,1.04,1.45	c1.16,2.01,1.49,4.34,0.95,6.58c0.18-0.07,0.36-0.14,0.54-0.21c1.24-3.5,4.57-6.01,8.49-6.01s7.25,2.51,8.49,6.01	c1.29,0.46,2.45,1.2,3.39,2.16c-1-3.09-0.29-6.62,2.15-9.06c1.68-1.68,3.92-2.61,6.3-2.61c1.06,0,2.09,0.19,3.06,0.54	c0.97-0.35,2-0.54,3.06-0.54c2.38,0,4.61,0.93,6.29,2.61c2.53,2.52,3.22,6.2,2.07,9.35c1.15,3.16,0.46,6.83-2.07,9.36	c-1.68,1.68-3.91,2.6-6.29,2.6c-1.06,0-2.1-0.18-3.06-0.53c-0.97,0.35-2,0.53-3.06,0.53c-2.38,0-4.62-0.92-6.3-2.6	c-0.04-0.05-0.08-0.09-0.12-0.14c-0.94,2.47-2.92,4.43-5.42,5.31c-1.24,3.5-4.57,6.01-8.49,6.01s-7.25-2.51-8.49-6.01	c-3.5-1.24-6.01-4.57-6.01-8.49c0-0.48,0.04-0.95,0.11-1.4c-0.93,2.75-3.7,4.58-6.71,5.39c-0.76,0.21-1.54,0.31-2.33,0.31	c-2.24,0-4.34-0.84-5.94-2.25c-0.58,0.12-1.18,0.18-1.79,0.18c-2.4,0-4.66-0.94-6.36-2.64c-2.21-2.21-3.03-5.29-2.46-8.14	c-1.92-2.19-2.75-5.26-1.94-8.28c0.8-2.96,3.03-5.25,5.82-6.2c0.94-2.75,3.07-5.32,6.09-6.13c-2.54-0.09-4.93-0.99-6.72-2.79	c-1.79-1.79-2.78-4.17-2.78-6.71c0-1.48,0.33-2.9,0.96-4.19c-3.27-2.2-4.95-6.32-3.88-10.34c1.06-3.94,4.52-6.75,8.54-7.02	c0.27-3.94,3-7.46,7.02-8.54c0.81-0.22,1.64-0.33,2.47-0.33c1.65,0,3.29,0.44,4.74,1.28c1.28,0.73,2.34,1.74,3.14,2.93	c1.29-0.63,2.71-0.97,4.19-0.97c2.54,0,4.92,0.99,6.71,2.79c1.77,1.76,3.08,4.12,3.11,6.62c0.03-0.91,0.23-1.9,0.71-3.09	c0.923-2.279,11.821-8.549,17.581-11.605c2.171-1.152,5.78-1.076,7.885,0.192l12.602,7.744c2.086,1.256,3.369,3.506,3.388,5.941	l0.114,15.46C92.29,43.22,91.21,45.552,89.037,46.815z" opacity=".35"/><path fill="#f2f2f2" d="M87.037,44.815l-13.92,8.233c-2.08,1.209-4.628,1.268-6.759,0.151	c-5.706-2.99-16.588-8.917-17.507-11.085c-1.63,2.06-4.09,3.41-6.81,3.59c-0.27,3.94-3,7.46-7.02,8.54	c-0.14,0.04-0.28,0.05-0.42,0.08c0.89,0.44,1.71,1.01,2.42,1.72c2.21,2.21,3.03,5.28,2.46,8.14c0.39,0.44,0.74,0.93,1.04,1.45	c1.16,2.01,1.49,4.34,0.95,6.58c0.18-0.07,0.36-0.14,0.54-0.21c1.24-3.5,4.57-6.01,8.49-6.01s7.25,2.51,8.49,6.01	c1.29,0.46,2.45,1.2,3.39,2.16c-1-3.09-0.29-6.62,2.15-9.06c1.68-1.68,3.92-2.61,6.3-2.61c1.06,0,2.09,0.19,3.06,0.54	c0.97-0.35,2-0.54,3.06-0.54c2.38,0,4.61,0.93,6.29,2.61c2.53,2.52,3.22,6.2,2.07,9.35c1.15,3.16,0.46,6.83-2.07,9.36	c-1.68,1.68-3.91,2.6-6.29,2.6c-1.06,0-2.1-0.18-3.06-0.53c-0.97,0.35-2,0.53-3.06,0.53c-2.38,0-4.62-0.92-6.3-2.6	c-0.04-0.05-0.08-0.09-0.12-0.14c-0.94,2.47-2.92,4.43-5.42,5.31c-1.24,3.5-4.57,6.01-8.49,6.01s-7.25-2.51-8.49-6.01	c-3.5-1.24-6.01-4.57-6.01-8.49c0-0.48,0.04-0.95,0.11-1.4c-0.93,2.75-3.7,4.58-6.71,5.39c-0.76,0.21-1.54,0.31-2.33,0.31	c-2.24,0-4.34-0.84-5.94-2.25c-0.58,0.12-1.18,0.18-1.79,0.18c-2.4,0-4.66-0.94-6.36-2.64c-2.21-2.21-3.03-5.29-2.46-8.14	c-1.92-2.19-2.75-5.26-1.94-8.28c0.8-2.96,3.03-5.25,5.82-6.2c0.94-2.75,3.07-5.32,6.09-6.13c-2.54-0.09-4.93-0.99-6.72-2.79	c-1.79-1.79-2.78-4.17-2.78-6.71c0-1.48,0.33-2.9,0.96-4.19c-3.27-2.2-4.95-6.32-3.88-10.34c1.06-3.94,4.52-6.75,8.54-7.02	c0.27-3.94,3-7.46,7.02-8.54c0.81-0.22,1.64-0.33,2.47-0.33c1.65,0,3.29,0.44,4.74,1.28c1.28,0.73,2.34,1.74,3.14,2.93	c1.29-0.63,2.71-0.97,4.19-0.97c2.54,0,4.92,0.99,6.71,2.79c1.77,1.76,3.08,4.12,3.11,6.62c0.03-0.91,0.23-1.9,0.71-3.09	c0.923-2.279,11.821-8.549,17.581-11.605c2.171-1.152,5.78-1.076,7.885,0.192l12.602,7.744c2.086,1.256,3.369,3.506,3.388,5.941	l0.114,15.46C90.29,41.22,89.21,43.552,87.037,44.815z"/><path fill="#d9eeff" d="M35.459,44.292l-1.89-7.055l7.055,1.89c1.6,0.429,3.245-0.521,3.674-2.121s-0.521-3.245-2.121-3.674	l-7.055-1.89l5.165-5.165c1.172-1.172,1.172-3.071,0-4.243s-3.071-1.172-4.243,0l-5.165,5.165l-1.89-7.055	c-0.429-1.6-2.074-2.55-3.674-2.121s-2.55,2.074-2.121,3.674l1.89,7.055l-7.055-1.89c-1.6-0.429-3.245,0.521-3.674,2.121	s0.521,3.245,2.121,3.674l7.055,1.89l-5.165,5.165c-1.172,1.172-1.172,3.071,0,4.243s3.071,1.172,4.243,0l5.165-5.165l1.89,7.055	c0.429,1.6,2.074,2.55,3.674,2.121S35.888,45.893,35.459,44.292z"/><path fill="#40396e" d="M32.562,49.569c-1.987,0-3.811-1.327-4.349-3.336l-1.218-4.545l-3.327,3.327	c-0.85,0.851-1.98,1.318-3.183,1.318c-1.201,0-2.332-0.468-3.182-1.318c-0.85-0.85-1.317-1.979-1.317-3.182s0.468-2.332,1.317-3.182	l3.328-3.328l-4.546-1.218c-2.396-0.643-3.824-3.114-3.183-5.511c0.644-2.397,3.117-3.822,5.512-3.183l4.546,1.219l-1.219-4.546	c-0.642-2.397,0.786-4.869,3.184-5.512c1.159-0.31,2.373-0.149,3.413,0.449c1.042,0.602,1.786,1.572,2.098,2.733l1.218,4.545	l3.327-3.327c1.753-1.755,4.609-1.757,6.364,0c0.85,0.849,1.318,1.979,1.318,3.182s-0.469,2.333-1.318,3.183l-3.328,3.327	l4.547,1.218c2.396,0.643,3.823,3.114,3.182,5.511c-0.643,2.397-3.115,3.821-5.512,3.183l-4.546-1.219l1.219,4.546v0.001	c0.642,2.396-0.786,4.868-3.182,5.511C33.338,49.519,32.946,49.569,32.562,49.569z M27.772,37.291c0.13,0,0.26,0.017,0.389,0.051	c0.518,0.139,0.922,0.543,1.061,1.061l1.891,7.055c0.213,0.799,1.036,1.278,1.838,1.061c0.798-0.214,1.273-1.038,1.06-1.836	l-1.891-7.056c-0.139-0.519,0.01-1.07,0.389-1.449c0.38-0.38,0.931-0.525,1.449-0.389l7.055,1.891	c0.795,0.215,1.624-0.262,1.837-1.06c0.214-0.799-0.262-1.623-1.061-1.837l-7.056-1.891c-0.518-0.139-0.922-0.543-1.061-1.061	c-0.139-0.519,0.01-1.07,0.389-1.449l5.165-5.165c0.283-0.283,0.439-0.66,0.439-1.061s-0.156-0.777-0.439-1.06	c-0.584-0.586-1.536-0.586-2.122-0.001l-5.164,5.164c-0.38,0.38-0.931,0.526-1.449,0.389c-0.518-0.139-0.922-0.543-1.061-1.061	l-1.891-7.055c-0.104-0.388-0.352-0.711-0.698-0.911c-0.348-0.201-0.751-0.255-1.138-0.149c-0.8,0.214-1.275,1.038-1.062,1.837	l1.891,7.055c0.139,0.519-0.01,1.07-0.389,1.449c-0.379,0.38-0.931,0.526-1.449,0.389l-7.055-1.891	c-0.799-0.217-1.623,0.263-1.838,1.061c-0.213,0.798,0.263,1.622,1.062,1.836l7.056,1.891c0.518,0.139,0.922,0.543,1.061,1.061	c0.139,0.519-0.01,1.07-0.389,1.449l-5.165,5.165c-0.585,0.585-0.585,1.536,0,2.121c0.585,0.583,1.535,0.584,2.122,0l5.164-5.164	C26.997,37.445,27.38,37.291,27.772,37.291z"/><path fill="#d9eeff" d="M35.142,70.783L35.142,70.783c0.358-1.334-0.434-2.704-1.768-3.062l-3.545-0.95l2.595-2.595	c0.977-0.977,0.977-2.559,0-3.536l0,0c-0.977-0.977-2.559-0.977-3.536,0l-2.595,2.595l-0.95-3.545	c-0.358-1.334-1.728-2.126-3.062-1.768l0,0c-1.334,0.358-2.126,1.728-1.768,3.062l0.95,3.545l-3.545-0.95	c-1.334-0.358-2.704,0.434-3.062,1.768l0,0c-0.358,1.334,0.434,2.704,1.768,3.062l3.545,0.95l-2.595,2.595	c-0.977,0.977-0.977,2.559,0,3.536l0,0c0.977,0.977,2.559,0.977,3.536,0l2.595-2.595l0.95,3.545	c0.358,1.334,1.728,2.126,3.062,1.768l0,0c1.334-0.358,2.126-1.728,1.768-3.062l-0.95-3.545l3.545,0.95	C33.414,72.909,34.785,72.118,35.142,70.783z"/><path fill="#40396e" d="M27.072,79.793c-1.766,0.001-3.386-1.18-3.865-2.964l-0.277-1.036l-0.759,0.758	c-1.559,1.561-4.098,1.561-5.656,0c-1.56-1.56-1.56-4.098,0-5.657l0.757-0.758l-1.033-0.276c-2.132-0.573-3.4-2.771-2.83-4.9	c0.573-2.131,2.768-3.396,4.9-2.828l1.034,0.277l-0.277-1.035c-0.57-2.13,0.698-4.327,2.828-4.898	c1.032-0.273,2.111-0.134,3.036,0.399c0.925,0.534,1.586,1.396,1.863,2.429l0.277,1.035l0.758-0.758	c1.559-1.561,4.099-1.561,5.657,0c1.56,1.56,1.56,4.098,0,5.657l-0.758,0.758l1.034,0.276c1.033,0.277,1.896,0.939,2.43,1.864	c0.534,0.926,0.676,2.004,0.398,3.037c-0.275,1.031-0.938,1.894-1.862,2.428c-0.925,0.535-2.002,0.674-3.036,0.399l-1.034-0.277	l0.277,1.034c0.57,2.13-0.698,4.327-2.828,4.899C27.761,79.749,27.413,79.793,27.072,79.793z M23.706,71.396	c0.13,0,0.26,0.017,0.389,0.051c0.518,0.139,0.922,0.544,1.061,1.062l0.949,3.544c0.143,0.534,0.698,0.852,1.224,0.707	c0.533-0.143,0.851-0.692,0.708-1.225l-0.95-3.545c-0.139-0.518,0.01-1.07,0.389-1.449c0.38-0.38,0.932-0.525,1.449-0.389	l3.545,0.95c0.257,0.069,0.526,0.033,0.759-0.1c0.231-0.133,0.396-0.349,0.465-0.606c0,0,0-0.001,0.001-0.002	c0.143-0.531-0.175-1.081-0.709-1.225l-3.543-0.948c-0.518-0.139-0.923-0.543-1.062-1.061c-0.139-0.519,0.01-1.07,0.389-1.449	l2.596-2.595c0.39-0.391,0.39-1.024,0-1.415c-0.392-0.392-1.025-0.39-1.415,0l-2.595,2.596c-0.38,0.38-0.934,0.526-1.448,0.389	c-0.518-0.139-0.923-0.543-1.062-1.061l-0.95-3.545c-0.069-0.259-0.234-0.475-0.466-0.608c-0.229-0.133-0.498-0.166-0.757-0.1	c-0.534,0.144-0.851,0.692-0.708,1.225l0.949,3.546c0.139,0.518-0.01,1.069-0.389,1.448c-0.379,0.38-0.93,0.527-1.449,0.389	l-3.544-0.95c-0.531-0.146-1.082,0.175-1.226,0.708c-0.142,0.531,0.176,1.081,0.71,1.225l3.542,0.948	c0.518,0.139,0.923,0.543,1.062,1.061s-0.01,1.07-0.389,1.449l-2.595,2.595c-0.39,0.391-0.39,1.024,0,1.415	c0.391,0.389,1.023,0.389,1.414,0l2.596-2.595C22.931,71.55,23.313,71.396,23.706,71.396z"/><path fill="#d9eeff" d="M56,77.995h-3v-3c0-1.381-1.119-2.5-2.5-2.5s-2.5,1.119-2.5,2.5v3h-3c-1.381,0-2.5,1.119-2.5,2.5	c0,1.381,1.119,2.5,2.5,2.5h3v3c0,1.381,1.119,2.5,2.5,2.5s2.5-1.119,2.5-2.5v-3h3c1.381,0,2.5-1.119,2.5-2.5	C58.5,79.114,57.381,77.995,56,77.995z"/><path fill="#40396e" d="M50.5,89.995c-2.206,0-4-1.794-4-4v-1.5H45c-2.206,0-4-1.794-4-4s1.794-4,4-4h1.5v-1.5	c0-2.206,1.794-4,4-4s4,1.794,4,4v1.5H56c2.206,0,4,1.794,4,4s-1.794,4-4,4h-1.5v1.5C54.5,88.201,52.706,89.995,50.5,89.995z M45,79.495c-0.552,0-1,0.448-1,1s0.448,1,1,1h3c0.828,0,1.5,0.672,1.5,1.5v3c0,0.552,0.448,1,1,1s1-0.448,1-1v-3	c0-0.828,0.672-1.5,1.5-1.5h3c0.552,0,1-0.448,1-1s-0.448-1-1-1h-3c-0.828,0-1.5-0.672-1.5-1.5v-3c0-0.552-0.448-1-1-1s-1,0.448-1,1	v3c0,0.828-0.672,1.5-1.5,1.5H45z"/><path fill="#d9eeff" d="M78.648,75.817l-1.36-1.36l1.36-1.36c0.939-0.939,0.939-2.461,0-3.399	c-0.939-0.939-2.461-0.939-3.399,0l-1.36,1.36l-1.36-1.36c-0.939-0.939-2.461-0.939-3.399,0c-0.939,0.939-0.939,2.461,0,3.399	l1.36,1.36l-1.36,1.36c-0.939,0.939-0.939,2.461,0,3.399c0.939,0.939,2.461,0.939,3.399,0l1.36-1.36l1.36,1.36	c0.939,0.939,2.461,0.939,3.399,0C79.586,78.278,79.586,76.756,78.648,75.817z"/><path fill="#40396e" d="M76.948,81.418c-1,0-2-0.381-2.761-1.142l-0.299-0.299l-0.218,0.218	c-1.318,1.318-3.407,1.627-4.962,0.601c-2.138-1.41-2.351-4.33-0.639-6.041l0.299-0.299l-0.219-0.219	c-1.317-1.317-1.626-3.407-0.599-4.962c1.411-2.137,4.327-2.348,6.04-0.639l0.299,0.3l0.22-0.22	c1.317-1.317,3.406-1.625,4.961-0.599c2.137,1.411,2.35,4.328,0.64,6.041l-0.3,0.299l0.299,0.299c0,0,0,0,0.001,0	c1.521,1.523,1.521,3.999-0.001,5.521C78.947,81.038,77.947,81.418,76.948,81.418z M74.596,76.443l1.713,1.713	c0.342,0.343,0.937,0.341,1.278,0c0.352-0.353,0.352-0.926,0-1.278l-1.713-1.713c-0.391-0.391-0.391-1.024,0-1.414l1.713-1.713	c0.352-0.353,0.353-0.926,0-1.278c-0.342-0.341-0.937-0.343-1.278,0l-1.713,1.713c-0.391,0.391-1.024,0.391-1.414,0l-1.713-1.713	c-0.354-0.352-0.927-0.352-1.278,0c-0.353,0.353-0.352,0.926,0.001,1.278l1.712,1.713c0.39,0.391,0.39,1.024,0,1.414l-1.713,1.713	c-0.171,0.171-0.265,0.397-0.265,0.639c0,0.242,0.094,0.469,0.265,0.64c0.352,0.352,0.927,0.353,1.278-0.001l1.713-1.712	C73.571,76.054,74.207,76.054,74.596,76.443z"/><path fill="#d9eeff" d="M69.797,48.474c-1.437,0-2.64-1.015-2.933-2.364c-0.186,0.036-0.375,0.054-0.566,0.054	c-0.876,0-1.706-0.381-2.277-1.045c-0.626-0.729-0.839-1.676-0.662-2.552c-0.514,0.404-1.159,0.641-1.853,0.641	c-0.182,0-0.367-0.017-0.553-0.051c-0.788-0.147-1.472-0.592-1.924-1.252c-0.147-0.215-0.265-0.444-0.351-0.683	c-0.346,0.135-0.715,0.205-1.087,0.205c-1.261,0-2.364-0.765-2.812-1.947c-0.454-1.198-0.041-2.579,0.96-3.401	c-0.571-0.67-0.849-1.564-0.691-2.448c0.186-1.035,0.879-1.865,1.795-2.251c-0.916-0.386-1.609-1.216-1.795-2.249	c-0.159-0.885,0.118-1.78,0.69-2.45c-1.001-0.821-1.414-2.202-0.959-3.4c0.447-1.184,1.551-1.948,2.812-1.948	c0.374,0,0.744,0.071,1.092,0.207c0.35-0.968,1.187-1.732,2.267-1.936c0.188-0.035,0.374-0.052,0.556-0.052	c0.677,0,1.309,0.226,1.816,0.612c-0.104-0.812,0.124-1.663,0.697-2.332c0.57-0.666,1.401-1.048,2.277-1.048	c0.181,0,0.359,0.017,0.534,0.048c0.219-1.439,1.466-2.547,2.966-2.547c1.501,0,2.748,1.107,2.966,2.549	c0.175-0.032,0.354-0.048,0.533-0.048c0.876,0,1.706,0.381,2.277,1.045c0.585,0.682,0.81,1.553,0.692,2.378	c0.533-0.471,1.231-0.752,1.986-0.752c0.182,0,0.367,0.017,0.553,0.051c0.863,0.162,1.609,0.69,2.047,1.45	c0.096,0.166,0.174,0.339,0.236,0.518c0.294-0.095,0.603-0.144,0.913-0.144c1.261,0,2.364,0.765,2.813,1.949	c0.432,1.14,0.079,2.445-0.82,3.276c0.588,0.674,0.876,1.58,0.716,2.477c-0.202,1.131-1.012,2.017-2.054,2.347	c0.883,0.279,1.608,0.959,1.928,1.863c0.29,0.832,0.204,1.741-0.234,2.499c-0.098,0.17-0.211,0.329-0.339,0.475	c0.887,0.833,1.232,2.129,0.804,3.263c-0.448,1.183-1.552,1.947-2.813,1.947l0,0c-0.311,0-0.62-0.049-0.915-0.144	c-0.342,0.982-1.186,1.762-2.278,1.968c-0.188,0.035-0.374,0.052-0.556,0.052c-0.774,0-1.489-0.296-2.027-0.789	c0.196,0.89-0.013,1.859-0.65,2.604c-0.571,0.666-1.401,1.047-2.278,1.047c-0.191,0-0.381-0.019-0.567-0.054	C72.437,47.46,71.232,48.474,69.797,48.474z M75.324,40.953c-0.008-0.032-0.614-3.271-0.614-3.271l-1.913-1.105v2.21	C72.797,38.786,75.3,40.93,75.324,40.953z M64.446,40.799l2.351-2.015v-2.209l-1.748,1.009	C65.049,37.584,64.449,40.787,64.446,40.799z M77.709,32.484c0,0,3.11-1.095,3.142-1.104c-0.031-0.01-3.142-1.104-3.142-1.104	l-1.912,1.104L77.709,32.484z M62.048,32.389l1.749-1.01l-1.75-1.01l-2.866,1.01L62.048,32.389z M66.797,26.183v-2.019l-2.308-1.979	l0.559,2.988L66.797,26.183z M72.797,26.183l1.912-1.104l0.57-3.042c-0.01,0.009-2.482,2.128-2.482,2.128V26.183z"/><path fill="#40396e" d="M69.797,15.785c0.828,0,1.5,0.672,1.5,1.5v2.239l1.023-0.877c0.284-0.242,0.631-0.361,0.976-0.361	c0.423,0,0.843,0.178,1.139,0.523c0.539,0.629,0.467,1.576-0.162,2.115l-2.627,2.252c-0.222,0.19-0.349,0.467-0.349,0.759v3.115	c0,0.584,0.479,1.001,1.001,1.001c0.167,0,0.337-0.042,0.499-0.135l2.862-1.652c0.253-0.146,0.429-0.395,0.483-0.682l0.637-3.401	c0.135-0.721,0.765-1.224,1.473-1.224c0.092,0,0.185,0.008,0.278,0.026c0.448,0.084,0.812,0.359,1.023,0.725	c0.173,0.299,0.244,0.659,0.175,1.026l-0.248,1.325l1.774-1.024c0.236-0.136,0.494-0.201,0.748-0.201	c0.596,0,1.173,0.355,1.409,0.979c0.265,0.699-0.081,1.487-0.728,1.861l-1.704,0.984l1.197,0.421	c0.704,0.248,1.188,0.959,1.057,1.694c-0.136,0.758-0.783,1.248-1.48,1.248c-0.165,0-0.333-0.028-0.498-0.086l-3.264-1.149	c-0.108-0.038-0.22-0.057-0.332-0.057c-0.174,0-0.346,0.045-0.5,0.134l-2.862,1.652c-0.667,0.385-0.667,1.347,0,1.732l2.862,1.653	c0.154,0.089,0.326,0.134,0.5,0.134c0.112,0,0.224-0.019,0.332-0.057l3.264-1.149c0.165-0.058,0.333-0.085,0.498-0.085	c0.619,0,1.198,0.386,1.415,1.003c0.151,0.43,0.095,0.883-0.117,1.249c-0.173,0.299-0.449,0.541-0.801,0.664l-1.271,0.448	l1.704,0.984c0.647,0.374,0.992,1.162,0.728,1.861c-0.236,0.624-0.813,0.979-1.409,0.979c-0.254,0-0.512-0.065-0.748-0.201	l-1.774-1.024l0.248,1.325c0.152,0.815-0.386,1.597-1.198,1.751c-0.093,0.017-0.186,0.026-0.278,0.026	c-0.708,0-1.338-0.503-1.473-1.224l-0.637-3.401c-0.054-0.287-0.23-0.536-0.483-0.682l-2.862-1.653	c-0.161-0.093-0.332-0.135-0.498-0.135c-0.522,0-1.002,0.418-1.002,1.001v3.305c0,0.292,0.128,0.569,0.349,0.759l2.627,2.252	c0.629,0.539,0.701,1.486,0.162,2.115c-0.297,0.346-0.717,0.523-1.14,0.523c-0.346,0-0.692-0.118-0.976-0.361l-1.023-0.877v2.049	c0,0.828-0.672,1.5-1.5,1.5s-1.5-0.672-1.5-1.5v-2.049l-1.023,0.877c-0.283,0.242-0.63,0.361-0.975,0.361	c-0.423,0-0.843-0.178-1.14-0.523c-0.539-0.629-0.467-1.576,0.162-2.115l2.627-2.252c0.222-0.19,0.349-0.467,0.349-0.759V35.71	c0-0.584-0.479-1.001-1.002-1.001c-0.166,0-0.337,0.042-0.498,0.135l-2.698,1.557c-0.253,0.146-0.429,0.395-0.483,0.682	l-0.637,3.401c-0.135,0.721-0.765,1.224-1.473,1.224c-0.092,0-0.185-0.008-0.278-0.026c-0.814-0.152-1.351-0.934-1.198-1.751	l0.248-1.325l-1.939,1.119c-0.236,0.136-0.494,0.201-0.748,0.201c-0.596,0-1.173-0.355-1.409-0.979	c-0.265-0.699,0.081-1.487,0.728-1.861l1.868-1.079l-1.196-0.421c-0.705-0.248-1.188-0.959-1.057-1.694	c0.135-0.758,0.783-1.248,1.48-1.248c0.165,0,0.333,0.027,0.498,0.085l3.264,1.149c0.108,0.038,0.22,0.057,0.332,0.057	c0.174,0,0.346-0.045,0.5-0.134l2.698-1.557c0.667-0.385,0.667-1.347,0-1.732l-2.698-1.557c-0.154-0.089-0.326-0.134-0.5-0.134	c-0.112,0-0.224,0.019-0.332,0.057l-3.264,1.149c-0.165,0.058-0.333,0.085-0.498,0.085c-0.697,0-1.344-0.49-1.48-1.247	c-0.131-0.735,0.352-1.446,1.057-1.695l1.196-0.421l-1.868-1.079c-0.647-0.374-0.992-1.162-0.728-1.861	c0.236-0.624,0.813-0.979,1.409-0.979c0.254,0,0.512,0.065,0.748,0.201l1.939,1.119l-0.248-1.325	c-0.151-0.816,0.385-1.597,1.198-1.751c0.093-0.017,0.186-0.026,0.278-0.026c0.708,0,1.338,0.503,1.473,1.224l0.637,3.401	c0.054,0.287,0.23,0.536,0.483,0.682l2.698,1.557c0.161,0.093,0.332,0.135,0.498,0.135c0.522,0,1.002-0.418,1.002-1.001v-3.115	c0-0.292-0.128-0.569-0.349-0.759l-2.627-2.252c-0.629-0.539-0.701-1.486-0.162-2.115c0.297-0.346,0.716-0.524,1.139-0.524	c0.345,0,0.693,0.119,0.976,0.362l1.023,0.877v-2.239C68.297,16.456,68.968,15.785,69.797,15.785 M69.797,12.785	c-1.776,0-3.315,1.034-4.047,2.532c-1.109,0.135-2.133,0.679-2.87,1.539c-0.325,0.38-0.576,0.798-0.754,1.238	c-0.203-0.028-0.41-0.043-0.619-0.043c-0.277,0-0.556,0.026-0.83,0.077c-1.145,0.216-2.109,0.851-2.761,1.716	c-0.108-0.008-0.216-0.012-0.324-0.012c-1.89,0-3.544,1.145-4.215,2.917c-0.529,1.397-0.31,2.911,0.494,4.095	c-0.34,0.781-0.457,1.662-0.299,2.55c0.133,0.746,0.444,1.421,0.884,1.985c-0.44,0.564-0.75,1.239-0.884,1.985	c-0.159,0.888-0.041,1.769,0.298,2.55c-0.803,1.184-1.023,2.698-0.494,4.095c0.671,1.772,2.325,2.917,4.215,2.917	c0.106,0,0.212-0.004,0.318-0.011c0.677,0.901,1.652,1.507,2.767,1.715c0.273,0.051,0.552,0.077,0.83,0.077	c0.185,0,0.368-0.011,0.549-0.033c0.183,0.513,0.46,0.993,0.825,1.419c0.762,0.886,1.826,1.435,2.974,1.549	c0.767,1.389,2.247,2.332,3.943,2.332c1.696,0,3.175-0.943,3.942-2.332c1.148-0.113,2.213-0.663,2.972-1.547	c0.35-0.408,0.619-0.865,0.802-1.353c0.241,0.04,0.487,0.061,0.738,0.061c0.277,0,0.556-0.026,0.83-0.077	c1.183-0.223,2.171-0.892,2.823-1.8c0.032,0.001,0.065,0.001,0.097,0.001c1.89,0,3.544-1.145,4.215-2.917	c0.5-1.322,0.331-2.749-0.37-3.901c0.481-1.053,0.539-2.256,0.152-3.359c-0.179-0.508-0.443-0.969-0.773-1.369	c0.48-0.583,0.819-1.292,0.96-2.081c0.165-0.925,0.032-1.84-0.341-2.645c0.702-1.153,0.873-2.582,0.372-3.905	c-0.671-1.772-2.325-2.917-4.215-2.917c-0.031,0-0.062,0-0.092,0.001c-0.672-0.937-1.68-1.584-2.826-1.8	c-0.276-0.052-0.555-0.078-0.832-0.078c-0.276,0-0.547,0.025-0.811,0.073c-0.176-0.416-0.418-0.812-0.727-1.173	c-0.739-0.859-1.762-1.402-2.869-1.537C73.113,13.82,71.573,12.785,69.797,12.785L69.797,12.785z"/></svg>