<svg xmlns="http://www.w3.org/2000/svg"  viewBox="0 0 100 100" width="50px" height="50px"><path d="M97.121,44.685c-1.216-1.166-2.814-1.809-4.5-1.809c-0.557,0-1.113,0.072-1.665,0.217c-1.671,0.443-3.38,0.667-5.082,0.668 c-4.994,0-9.756-1.929-13.407-5.432c-4.943-4.742-7.009-11.574-5.527-18.271c0.488-2.2-0.219-4.536-1.852-6.104 c-1.216-1.162-2.813-1.803-4.497-1.803c-0.549,0-1.098,0.069-1.665,0.216c-5.738,1.522-10.951,4.601-15.076,8.9 c-1.978,2.062-3.66,4.37-5.016,6.847c-0.571-0.482-1.22-0.881-1.946-1.145l-3.21-1.171l-1.309-4.17 c-0.855-2.724-3.348-4.553-6.202-4.553s-5.346,1.829-6.202,4.554l-1.31,4.172l-3.218,1.176c-2.553,0.936-4.267,3.391-4.265,6.109 c0.002,2.723,1.723,5.177,4.277,6.103l3.216,1.171l1.32,4.175c0.804,2.541,3.04,4.282,5.658,4.498 c-1.227,1.547-2.301,3.222-3.162,5.026c-2.119,0.165-4.198,0.706-6.199,1.614c-6.81,3.093-11.288,9.769-11.407,17.01 c-0.084,5.136,1.852,9.98,5.453,13.642C13.933,89.984,18.744,92,23.877,92h44.661c9.683,0,17.924-7.078,19.17-16.463 c0.285-2.146,0.205-4.304-0.228-6.389c1.137-0.904,2.213-1.885,3.22-2.936c4.126-4.299,6.985-9.635,8.267-15.43 C99.456,48.583,98.75,46.247,97.121,44.685z" opacity=".35"/><path fill="#f2f2f2" d="M95.121,42.685c-1.216-1.166-2.814-1.809-4.5-1.809c-0.557,0-1.113,0.072-1.665,0.217 c-1.671,0.443-3.38,0.667-5.082,0.668c-4.994,0-9.756-1.929-13.407-5.432c-4.943-4.742-7.009-11.574-5.527-18.271 c0.488-2.2-0.219-4.536-1.852-6.104c-1.216-1.162-2.813-1.803-4.497-1.803c-0.549,0-1.098,0.069-1.665,0.216 c-5.738,1.522-10.951,4.601-15.076,8.9c-1.978,2.062-3.66,4.37-5.016,6.847c-0.571-0.482-1.22-0.881-1.946-1.145l-3.21-1.171 l-1.309-4.17c-0.855-2.724-3.348-4.553-6.202-4.553s-5.346,1.829-6.202,4.554l-1.31,4.172l-3.218,1.176 c-2.553,0.936-4.267,3.391-4.265,6.109c0.002,2.723,1.723,5.177,4.277,6.103l3.216,1.171l1.32,4.175 c0.804,2.541,3.04,4.282,5.658,4.498c-1.227,1.547-2.301,3.222-3.162,5.026c-2.119,0.165-4.198,0.706-6.199,1.614 c-6.81,3.093-11.288,9.769-11.407,17.01c-0.084,5.136,1.852,9.98,5.453,13.642C11.933,87.984,16.744,90,21.877,90h44.661 c9.683,0,17.924-7.078,19.17-16.463c0.285-2.146,0.205-4.304-0.228-6.389c1.137-0.904,2.213-1.885,3.22-2.936 c4.126-4.299,6.985-9.635,8.267-15.43C97.456,46.583,96.75,44.247,95.121,42.685z"/><path fill="#ffe385" d="M65.968,40.945c-6.784-6.509-9.266-15.816-7.373-24.37c-4.446,1.179-8.635,3.555-12.053,7.117 c-9.926,10.346-9.585,26.781,0.761,36.707c10.346,9.926,26.781,9.585,36.707-0.761c3.417-3.562,5.617-7.846,6.612-12.337 C82.154,49.547,72.753,47.453,65.968,40.945z"/><path fill="#94cfff" d="M66.102,59.555c-1.025,0-2.014,0.14-2.965,0.379c-2.022-8.526-9.694-14.879-18.872-14.879 s-16.85,6.352-18.872,14.879c-0.951-0.238-1.94-0.379-2.965-0.379c-6.7,0-12.132,5.41-12.132,12.083s5.432,12.083,12.132,12.083 c3.805,0,17.113,0,21.837,0s18.032,0,21.837,0c6.7,0,12.132-5.41,12.132-12.083S72.803,59.555,66.102,59.555z"/><polygon fill="#94cfff" points="24.188,40.577 26.44,33.346 32.665,31.077 26.44,28.807 24.171,21.577 21.901,28.807 15.676,31.082 21.901,33.346"/><path fill="#40396e" d="M24.188,42.076c-0.654,0-1.233-0.424-1.43-1.048l-2.063-6.524l-5.53-2.013 c-0.592-0.215-0.987-0.777-0.987-1.408c0-0.63,0.393-1.193,0.985-1.41l5.531-2.021l2.048-6.524 c0.196-0.625,0.776-1.051,1.431-1.051s1.235,0.426,1.431,1.051l2.048,6.524l5.529,2.016c0.592,0.216,0.986,0.779,0.986,1.409 s-0.394,1.193-0.986,1.409l-5.527,2.017l-2.032,6.521c-0.195,0.626-0.773,1.053-1.429,1.054 C24.189,42.076,24.188,42.076,24.188,42.076z M20.055,31.079l2.359,0.858c0.438,0.159,0.777,0.513,0.917,0.957l0.846,2.674 l0.831-2.668c0.139-0.446,0.479-0.803,0.918-0.963l2.361-0.861l-2.36-0.86c-0.438-0.16-0.778-0.515-0.917-0.96l-0.838-2.671 l-0.838,2.671c-0.14,0.445-0.478,0.8-0.916,0.96L20.055,31.079z"/><g><path fill="#40396e" d="M66.539,85H21.877c-3.783,0-7.328-1.485-9.981-4.183C9.244,78.12,7.817,74.55,7.879,70.765 c0.088-5.319,3.415-10.241,8.475-12.539c2.408-1.093,4.925-1.455,7.498-1.077c2.072-6.735,7.281-11.998,14.001-14.132 c-0.349-7.512,2.387-14.846,7.608-20.287c3.49-3.639,7.899-6.242,12.75-7.529c0.508-0.131,1.044,0.006,1.423,0.368 c0.377,0.362,0.539,0.896,0.426,1.406c-1.863,8.418,0.733,17.002,6.947,22.963c6.213,5.96,14.898,8.197,23.231,5.988 c0.506-0.133,1.045,0.006,1.423,0.368c0.377,0.362,0.539,0.896,0.426,1.406c-1.084,4.9-3.503,9.414-6.993,13.051 c-1.639,1.709-3.483,3.192-5.496,4.423c1.11,2.401,1.509,5.037,1.154,7.704C79.835,79.789,73.724,85,66.539,85z M21.876,60 c-1.458,0-2.875,0.318-4.282,0.957c-4.011,1.821-6.647,5.69-6.716,9.856c-0.049,2.976,1.072,5.781,3.156,7.899 C16.12,80.833,18.905,82,21.877,82h44.661c5.688,0,10.52-4.092,11.24-9.517c0.332-2.499-0.176-4.96-1.469-7.118 c-0.21-0.352-0.268-0.773-0.159-1.168s0.374-0.729,0.734-0.923c2.244-1.21,4.277-2.758,6.044-4.6 c2.551-2.659,4.459-5.842,5.595-9.309c-8.565,1.463-17.234-1.162-23.594-7.265c-6.359-6.1-9.344-14.649-8.236-23.271 c-3.417,1.278-6.517,3.317-9.068,5.976c-4.907,5.115-7.349,12.106-6.7,19.182c0.067,0.733-0.409,1.408-1.123,1.59 c-6.685,1.705-11.824,6.939-13.411,13.659c-0.092,0.391-0.338,0.729-0.681,0.938c-0.344,0.208-0.756,0.271-1.146,0.173 C23.65,60.115,22.755,60,21.876,60z"/></g></svg>