<svg xmlns="http://www.w3.org/2000/svg"  viewBox="0 0 100 100" width="50px" height="50px"><path d="M91.992,76c0.261-0.529,0.471-1.087,0.627-1.67c0.623-2.322,0.305-4.748-0.896-6.829c-1.507-2.611-4.24-4.292-7.23-4.482 c-0.262-0.393-0.565-0.756-0.884-1.102C89.766,58.77,94,52.377,94,45c0-7.993-4.961-14.848-11.965-17.65 C80.023,26.545,76.279,27.067,74,27c-1.619-3.459-2.406-7.468-5.264-9.87C64.153,13.276,58.266,11,52,11 c-10.174,0-19.349,6.001-23.563,15.008C18.22,26.308,10,34.712,10,45c0,4.149,1.34,7.987,3.608,11.112 C15.372,58.541,18.306,58.623,21,60c-0.319,0.346-1.23,2.624-1.492,3.018c-2.989,0.19-5.724,1.872-7.232,4.485 c-1.2,2.081-1.518,4.506-0.895,6.828c0.156,0.582,0.366,1.141,0.627,1.669c-0.261,0.529-0.471,1.087-0.627,1.67 c-0.623,2.322-0.305,4.748,0.896,6.829c1.507,2.611,4.24,4.292,7.23,4.482C21.122,91.402,23.878,93,27,93s5.878-1.599,7.493-4.02 c2.987-0.191,5.72-1.87,7.231-4.483c1.2-2.081,1.518-4.506,0.895-6.828c-0.156-0.582-0.366-1.141-0.627-1.669 c0.261-0.529,0.471-1.087,0.627-1.67c0.419-1.563,0.402-3.171-0.014-4.691c0.617,0.177,1.251,0.302,1.902,0.343 C46.123,72.402,48.878,74,52,74s5.878-1.598,7.492-4.019c0.651-0.042,1.285-0.166,1.902-0.344 c-0.416,1.521-0.433,3.129-0.013,4.693c0.156,0.582,0.366,1.141,0.627,1.669c-0.261,0.529-0.471,1.087-0.627,1.67 c-0.623,2.322-0.305,4.748,0.896,6.829c1.507,2.611,4.24,4.292,7.23,4.482C71.122,91.402,73.878,93,77,93s5.878-1.599,7.493-4.02 c2.987-0.191,5.72-1.87,7.231-4.483c1.2-2.081,1.518-4.506,0.895-6.828C92.463,77.087,92.253,76.528,91.992,76z" opacity=".35"/><path fill="#f2f2f2" d="M89.992,74c0.261-0.529,0.471-1.087,0.627-1.67c0.623-2.322,0.305-4.748-0.896-6.829 c-1.507-2.611-4.24-4.292-7.23-4.482c-0.262-0.393-0.565-0.756-0.884-1.102C87.766,56.77,92,50.377,92,43 c0-10.288-8.22-18.692-18.437-18.992C69.349,15.001,60.174,9,50,9s-19.349,6.001-23.563,15.008C16.22,24.308,8,32.712,8,43 c0,7.376,4.234,13.769,10.392,16.916c-0.319,0.346-0.622,0.708-0.884,1.102c-2.989,0.19-5.724,1.872-7.232,4.485 c-1.2,2.081-1.518,4.506-0.895,6.828c0.156,0.582,0.366,1.141,0.627,1.669c-0.261,0.529-0.471,1.087-0.627,1.67 c-0.623,2.322-0.305,4.748,0.896,6.829c1.507,2.611,4.24,4.292,7.23,4.482C19.122,89.402,21.878,91,25,91s5.878-1.599,7.493-4.02 c2.987-0.191,5.72-1.87,7.231-4.483c1.2-2.081,1.518-4.506,0.895-6.828c-0.156-0.582-0.366-1.141-0.627-1.669 c0.261-0.529,0.471-1.087,0.627-1.67c0.419-1.563,0.402-3.171-0.014-4.691c0.617,0.177,1.251,0.302,1.902,0.343 C44.123,70.402,46.878,72,50,72s5.878-1.598,7.492-4.019c0.651-0.042,1.285-0.166,1.902-0.344 c-0.416,1.521-0.433,3.129-0.013,4.693c0.156,0.582,0.366,1.141,0.627,1.669c-0.261,0.529-0.471,1.087-0.627,1.67 c-0.623,2.322-0.305,4.748,0.896,6.829c1.507,2.611,4.24,4.292,7.23,4.482C69.122,89.402,71.878,91,75,91s5.878-1.599,7.493-4.02 c2.987-0.191,5.72-1.87,7.231-4.483c1.2-2.081,1.518-4.506,0.895-6.828C90.463,75.087,90.253,74.528,89.992,74z"/><path fill="#d9eeff" d="M57.794,50.5L57.794,50.5c-0.592-1.025-1.902-1.376-2.927-0.784l-2.724,1.573v-3.146 C52.143,46.959,51.183,46,50,46h0c-1.183,0-2.143,0.959-2.143,2.143v3.146l-2.724-1.573c-1.025-0.592-2.335-0.241-2.927,0.784l0,0 c-0.592,1.025-0.241,2.335,0.784,2.927L45.714,55l-2.724,1.573c-1.025,0.592-1.376,1.902-0.784,2.927l0,0 c0.592,1.025,1.902,1.376,2.927,0.784l2.724-1.573v3.146C47.857,63.041,48.817,64,50,64h0c1.183,0,2.143-0.959,2.143-2.143v-3.146 l2.724,1.573c1.025,0.592,2.335,0.241,2.927-0.784l0,0c0.592-1.025,0.241-2.335-0.784-2.927L54.286,55l2.724-1.573 C58.035,52.835,58.386,51.525,57.794,50.5z"/><path fill="#94cfff" d="M73,29c-1.359,0-2.663,0.224-3.888,0.624C67.315,20.712,59.442,14,50,14 s-17.315,6.712-19.112,15.624C29.663,29.224,28.359,29,27,29c-6.904,0-12.5,5.596-12.5,12.5S20.096,54,27,54c0.169,0,45.831,0,46,0 c6.904,0,12.5-5.596,12.5-12.5S79.904,29,73,29z"/><path fill="#40396e" d="M50,67c-2.206,0-4-1.794-4-4v-1.071l-0.928,0.535c-1.91,1.105-4.362,0.446-5.465-1.464 c-0.738-1.28-0.688-2.803,0.002-4H27c-7.72,0-14-6.28-14-14s6.28-14,14-14c0.937,0,1.87,0.095,2.79,0.283 C32.315,20.339,40.574,14,50,14s17.685,6.339,20.21,15.283C71.13,29.095,72.063,29,73,29c7.72,0,14,6.28,14,14s-6.28,14-14,14 H60.392c0.688,1.197,0.739,2.72,0.002,3.999c-1.105,1.91-3.554,2.569-5.466,1.465L54,61.929V63C54,65.206,52.206,67,50,67z M47.5,57.83c0.259,0,0.518,0.067,0.75,0.201C48.714,58.299,49,58.794,49,59.33V63c0,0.552,0.448,1,1,1s1-0.448,1-1v-3.67 c0-0.536,0.286-1.031,0.75-1.299c0.465-0.268,1.035-0.268,1.5,0l3.178,1.835c0.477,0.274,1.09,0.111,1.367-0.366 c0.275-0.478,0.11-1.09-0.367-1.366l-2.312-1.335c-0.588-0.34-0.875-1.031-0.699-1.688C54.593,54.456,55.188,54,55.866,54H73 c6.065,0,11-4.935,11-11s-4.935-11-11-11c-1.154,0-2.306,0.185-3.422,0.55c-0.405,0.134-0.851,0.086-1.222-0.13 c-0.37-0.216-0.63-0.579-0.715-0.999C65.956,23.064,58.537,17,50,17s-15.956,6.064-17.642,14.421 c-0.085,0.42-0.345,0.783-0.715,0.999c-0.372,0.217-0.816,0.264-1.222,0.13C29.306,32.185,28.154,32,27,32c-6.065,0-11,4.935-11,11 s4.935,11,11,11h17.134c0.679,0,1.273,0.456,1.449,1.111c0.176,0.656-0.111,1.348-0.699,1.688l-2.312,1.335 c-0.478,0.276-0.643,0.889-0.366,1.367c0.274,0.476,0.888,0.64,1.366,0.365l3.178-1.835C46.982,57.897,47.241,57.83,47.5,57.83z"/><path fill="#d9eeff" d="M34.093,68.75L34.093,68.75c-0.69-1.196-2.219-1.605-3.415-0.915L27.5,69.67V66 c0-1.381-1.119-2.5-2.5-2.5h0c-1.381,0-2.5,1.119-2.5,2.5v3.67l-3.178-1.835c-1.196-0.69-2.725-0.281-3.415,0.915l0,0 c-0.69,1.196-0.281,2.725,0.915,3.415L20,74l-3.178,1.835c-1.196,0.69-1.605,2.219-0.915,3.415l0,0 c0.69,1.196,2.219,1.605,3.415,0.915L22.5,78.33V82c0,1.381,1.119,2.5,2.5,2.5h0c1.381,0,2.5-1.119,2.5-2.5v-3.67l3.178,1.835 c1.196,0.69,2.725,0.281,3.415-0.915l0,0c0.69-1.196,0.281-2.725-0.915-3.415L30,74l3.178-1.835 C34.374,71.475,34.784,69.946,34.093,68.75z"/><path fill="#40396e" d="M25,86c-2.206,0-4-1.794-4-4v-1.071l-0.928,0.535c-1.91,1.104-4.362,0.446-5.465-1.464 c-1.103-1.911-0.445-4.362,1.465-5.464L17,74l-0.928-0.536c-1.91-1.102-2.567-3.553-1.466-5.463 c1.104-1.911,3.552-2.57,5.466-1.465L21,67.071V66c0-2.206,1.794-4,4-4s4,1.794,4,4v1.071l0.928-0.535 c0.926-0.534,2.004-0.677,3.036-0.399c1.032,0.276,1.895,0.938,2.429,1.864h0.001c1.102,1.91,0.444,4.361-1.466,5.463L33,74 l0.928,0.536c1.91,1.102,2.567,3.553,1.466,5.463c-1.104,1.909-3.553,2.568-5.466,1.465L29,80.929V82C29,84.206,27.206,86,25,86z M22.5,76.83c0.259,0,0.518,0.067,0.75,0.201C23.714,77.299,24,77.794,24,78.33V82c0,0.552,0.448,1,1,1s1-0.448,1-1v-3.67 c0-0.536,0.286-1.031,0.75-1.299c0.465-0.268,1.035-0.268,1.5,0l3.178,1.835c0.477,0.275,1.09,0.111,1.367-0.366 c0.275-0.478,0.11-1.09-0.367-1.366l-3.178-1.835C28.786,75.031,28.5,74.536,28.5,74s0.286-1.031,0.75-1.299l3.178-1.835 c0.478-0.275,0.642-0.889,0.367-1.366l0,0c-0.277-0.479-0.891-0.643-1.367-0.366l-3.178,1.835c-0.465,0.268-1.035,0.268-1.5,0 C26.286,70.701,26,70.206,26,69.67V66c0-0.552-0.448-1-1-1s-1,0.448-1,1v3.67c0,0.536-0.286,1.031-0.75,1.299 c-0.465,0.268-1.035,0.268-1.5,0l-3.178-1.835c-0.233-0.135-0.505-0.17-0.759-0.1c-0.259,0.069-0.474,0.234-0.606,0.465 c-0.135,0.232-0.17,0.502-0.101,0.76c0.068,0.258,0.234,0.474,0.466,0.607l3.178,1.835c0.464,0.268,0.75,0.763,0.75,1.299 s-0.286,1.031-0.75,1.299l-3.178,1.835c-0.478,0.276-0.643,0.889-0.366,1.367c0.275,0.477,0.889,0.641,1.366,0.365l3.178-1.835 C21.982,76.897,22.241,76.83,22.5,76.83z"/><g><path fill="#d9eeff" d="M84.093,68.75L84.093,68.75c-0.69-1.196-2.219-1.605-3.415-0.915L77.5,69.67V66 c0-1.381-1.119-2.5-2.5-2.5l0,0c-1.381,0-2.5,1.119-2.5,2.5v3.67l-3.178-1.835c-1.196-0.69-2.725-0.281-3.415,0.915v0 c-0.69,1.196-0.281,2.725,0.915,3.415L70,74l-3.178,1.835c-1.196,0.69-1.605,2.219-0.915,3.415v0 c0.69,1.196,2.219,1.605,3.415,0.915L72.5,78.33V82c0,1.381,1.119,2.5,2.5,2.5l0,0c1.381,0,2.5-1.119,2.5-2.5v-3.67l3.178,1.835 c1.196,0.69,2.725,0.281,3.415-0.915v0c0.69-1.196,0.281-2.725-0.915-3.415L80,74l3.178-1.835 C84.374,71.475,84.784,69.946,84.093,68.75z"/><path fill="#40396e" d="M75,86c-2.206,0-4-1.794-4-4v-1.071l-0.928,0.535C68.161,82.568,65.71,81.91,64.607,80 c-1.103-1.911-0.445-4.362,1.465-5.464L67,74l-0.928-0.536c-1.91-1.102-2.567-3.553-1.466-5.463 c1.104-1.911,3.552-2.57,5.466-1.465L71,67.071V66c0-2.206,1.794-4,4-4s4,1.794,4,4v1.071l0.928-0.535 c0.925-0.534,2.003-0.677,3.036-0.399c1.032,0.276,1.895,0.938,2.429,1.864h0.001c1.102,1.91,0.444,4.361-1.466,5.463L83,74 l0.928,0.536c1.91,1.102,2.567,3.553,1.466,5.463c-1.104,1.909-3.554,2.568-5.466,1.465L79,80.929V82C79,84.206,77.206,86,75,86z M72.5,76.83c0.259,0,0.518,0.067,0.75,0.201C73.714,77.299,74,77.794,74,78.33V82c0,0.552,0.448,1,1,1s1-0.448,1-1v-3.67 c0-0.536,0.286-1.031,0.75-1.299c0.465-0.268,1.035-0.268,1.5,0l3.178,1.835c0.476,0.275,1.091,0.111,1.367-0.366 c0.275-0.478,0.11-1.09-0.367-1.366l-3.178-1.835C78.786,75.031,78.5,74.536,78.5,74s0.286-1.031,0.75-1.299l3.178-1.835 c0.478-0.275,0.642-0.889,0.367-1.366l0,0c-0.276-0.479-0.892-0.643-1.367-0.366l-3.178,1.835c-0.465,0.268-1.035,0.268-1.5,0 C76.286,70.701,76,70.206,76,69.67V66c0-0.552-0.448-1-1-1s-1,0.448-1,1v3.67c0,0.536-0.286,1.031-0.75,1.299 c-0.465,0.268-1.035,0.268-1.5,0l-3.178-1.835c-0.232-0.135-0.505-0.17-0.759-0.1c-0.259,0.069-0.474,0.234-0.606,0.465 c-0.135,0.232-0.17,0.502-0.101,0.76c0.068,0.258,0.234,0.474,0.466,0.607l3.178,1.835c0.464,0.268,0.75,0.763,0.75,1.299 s-0.286,1.031-0.75,1.299l-3.178,1.835c-0.478,0.276-0.643,0.889-0.366,1.367c0.274,0.477,0.888,0.641,1.366,0.365l3.178-1.835 C71.982,76.897,72.241,76.83,72.5,76.83z"/></g></svg>