<svg xmlns="http://www.w3.org/2000/svg"  viewBox="0 0 100 100" width="50px" height="50px"><path d="M98.703,81.432l0.021-0.32l-0.021-0.32c-0.153-2.396-1.589-4.52-3.751-5.547l-5.854-2.772	c1.253-1.875,1.594-4.255,0.873-6.426c-0.826-2.492-2.937-4.369-5.509-4.899l-0.596-0.123l2.201-6.164	c0.852-2.39,0.242-5.094-1.552-6.887c-1.247-1.248-2.905-1.935-4.669-1.935c-0.763,0-1.513,0.131-2.293,0.411l-5.681,2.127	l-0.006-0.028c-0.705-3.408-3.746-5.883-7.23-5.883c-1.37,0-2.703,0.384-3.859,1.098l-2.816-5.55	c-0.127-0.259-0.272-0.505-0.428-0.741l6.661-8.846c1.043-1.387,1.484-3.097,1.242-4.814c-0.242-1.721-1.14-3.243-2.532-4.291	c-1.136-0.853-2.485-1.303-3.904-1.303c-0.168,0-0.334,0.007-0.5,0.02v-2.52c0-3.584-2.916-6.5-6.5-6.5s-6.5,2.916-6.5,6.5v2.559	c-0.166-0.013-0.334-0.02-0.502-0.02c-1.409,0-2.805,0.471-3.915,1.313c-1.387,1.047-2.282,2.572-2.521,4.293	c-0.239,1.722,0.207,3.433,1.254,4.814l6.693,8.852c-0.11,0.169-0.223,0.335-0.319,0.515l-3.112,5.913	c-1.222-0.839-2.669-1.293-4.159-1.293c-3.487,0-6.528,2.476-7.23,5.886l-0.025,0.119l-6.298-2.249	c-0.714-0.254-1.459-0.383-2.214-0.383c-1.711,0-3.334,0.652-4.573,1.839c-1.812,1.739-2.478,4.312-1.734,6.723l2.046,6.591	c-2.479,0.586-4.502,2.43-5.306,4.856c-0.694,2.094-0.402,4.382,0.743,6.222l-6.281,2.977c-2.158,1.022-3.597,3.145-3.754,5.538	L4.27,81.111l0.021,0.327c0.074,1.137,0.438,2.212,1.03,3.138C4.492,85.667,4,87.027,4,88.5c0,3.584,2.916,6.5,6.5,6.5h83	c3.584,0,6.5-2.916,6.5-6.5c0-1.807-0.741-3.444-1.936-4.623C98.427,83.123,98.648,82.295,98.703,81.432z" opacity=".35"/><path fill="#f2f2f2" d="M96.703,79.432l0.021-0.32l-0.021-0.32c-0.153-2.396-1.589-4.52-3.751-5.547l-5.854-2.772	c1.253-1.875,1.594-4.255,0.873-6.426c-0.826-2.492-2.937-4.369-5.509-4.899l-0.596-0.123l2.201-6.164	c0.852-2.39,0.242-5.094-1.552-6.887c-1.247-1.248-2.905-1.935-4.669-1.935c-0.763,0-1.513,0.131-2.293,0.411l-5.681,2.127	l-0.006-0.028c-0.705-3.408-3.746-5.883-7.23-5.883c-1.37,0-2.703,0.384-3.859,1.098l-2.816-5.55	c-0.127-0.259-0.272-0.505-0.428-0.741l6.661-8.846c1.043-1.387,1.484-3.097,1.242-4.814c-0.242-1.721-1.14-3.243-2.532-4.291	c-1.136-0.853-2.485-1.303-3.904-1.303c-0.168,0-0.334,0.007-0.5,0.02v-2.52c0-3.584-2.916-6.5-6.5-6.5s-6.5,2.916-6.5,6.5v2.559	c-0.166-0.013-0.334-0.02-0.502-0.02c-1.409,0-2.805,0.471-3.915,1.313c-1.387,1.047-2.282,2.572-2.521,4.293	c-0.239,1.722,0.207,3.433,1.254,4.814l6.693,8.852c-0.11,0.169-0.223,0.335-0.319,0.515l-3.112,5.913	c-1.222-0.839-2.669-1.293-4.159-1.293c-3.487,0-6.528,2.476-7.23,5.886l-0.025,0.119l-6.298-2.249	c-0.714-0.254-1.459-0.383-2.214-0.383c-1.711,0-3.334,0.652-4.573,1.839c-1.812,1.739-2.478,4.312-1.734,6.723l2.046,6.591	c-2.479,0.586-4.502,2.43-5.306,4.856c-0.694,2.094-0.402,4.382,0.743,6.222l-6.281,2.977c-2.158,1.022-3.597,3.145-3.754,5.538	L2.27,79.111l0.021,0.327c0.074,1.137,0.438,2.212,1.03,3.138C2.492,83.667,2,85.027,2,86.5C2,90.084,4.916,93,8.5,93h83	c3.584,0,6.5-2.916,6.5-6.5c0-1.807-0.741-3.444-1.936-4.623C96.427,81.123,96.648,80.295,96.703,79.432z"/><path fill="#f9b84f" d="M21.039,73.334L8.844,79.112l12.352,5.851c0.428,0.202,0.734,0.594,0.828,1.057	c0.092,0.45-0.031,0.913-0.326,1.263h56.154l-0.136-0.153c-0.313-0.354-0.443-0.833-0.349-1.296c0.094-0.463,0.4-0.854,0.827-1.057	l11.96-5.665L78.351,73.52c-0.427-0.202-0.733-0.594-0.827-1.057c-0.095-0.463,0.035-0.942,0.349-1.296l3.754-4.221	c0.303-0.34,0.225-0.711,0.177-0.854s-0.207-0.489-0.652-0.581l-6.229-1.284c-0.426-0.087-0.792-0.355-1.005-0.733	c-0.213-0.379-0.251-0.831-0.105-1.24l4.135-11.576c0.014-0.037,0.004-0.079-0.111-0.14l-11.151,4.174	c-0.171,0.064-0.349,0.096-0.526,0.096c-0.251,0-0.501-0.063-0.726-0.187c-0.383-0.212-0.655-0.581-0.743-1.011l-1.185-5.746	c-0.1-0.479-0.518-0.698-0.865-0.698c-0.212,0-0.404,0.075-0.57,0.223l-3.868,3.44c-0.277,0.246-0.633,0.379-0.997,0.379	c-0.093,0-0.187-0.009-0.279-0.026c-0.457-0.086-0.848-0.38-1.059-0.795l-5.738-11.311c-0.017-0.035-0.051-0.057-0.091-0.058	c-0.004,0-0.007,0-0.011-0.001c-0.034,0.004-0.066,0.025-0.083,0.056l-6.06,11.513c-0.215,0.408-0.605,0.695-1.06,0.777	c-0.089,0.017-0.179,0.024-0.268,0.024c-0.364,0-0.72-0.133-0.997-0.379l-4.069-3.62c-0.166-0.147-0.358-0.223-0.57-0.223	c-0.348,0-0.766,0.219-0.865,0.698l-1.187,5.752c-0.088,0.426-0.355,0.792-0.733,1.005c-0.228,0.128-0.48,0.192-0.735,0.192	c-0.17,0-0.341-0.029-0.505-0.087l-11.708-4.181l-0.107,0.022c-0.027,0.027-0.037,0.069-0.026,0.105l3.68,11.854	c0.125,0.404,0.074,0.843-0.141,1.207c-0.216,0.364-0.575,0.621-0.989,0.706l-5.196,1.07c-0.445,0.092-0.604,0.437-0.652,0.581	c-0.047,0.144-0.125,0.515,0.178,0.854l3.588,4.035c0.313,0.354,0.443,0.833,0.349,1.296C21.772,72.741,21.466,73.132,21.039,73.334	z"/><path fill="#ffc571" d="M67.874,85.908c0.716-2,1.126-4.146,1.126-6.392c0-10.493-8.507-19-19-19s-19,8.507-19,19	c0,2.246,0.41,4.392,1.126,6.392H67.874z"/><path fill="#40396e" d="M8.186,80.46l11.502,5.448h3.821c-0.009-0.063-0.003-0.126-0.016-0.188	c-0.188-0.926-0.802-1.709-1.656-2.113l-9.49-4.495l9.334-4.421c0.854-0.404,1.467-1.187,1.656-2.113	c0.188-0.926-0.07-1.886-0.698-2.592l-2.867-3.224l4.132-0.852c0.829-0.171,1.547-0.684,1.978-1.413	c0.43-0.729,0.533-1.606,0.282-2.414l-2.851-9.186l9.077,3.242c0.327,0.117,0.669,0.175,1.009,0.175c0.509,0,1.016-0.13,1.47-0.385	c0.757-0.426,1.292-1.159,1.468-2.009l0.967-4.689l3.259,2.898c0.554,0.493,1.265,0.758,1.994,0.758	c0.178,0,0.358-0.016,0.536-0.048c0.908-0.165,1.689-0.738,2.119-1.554l4.801-9.121l4.517,8.901c0.421,0.83,1.203,1.417,2.117,1.59	c0.186,0.035,0.372,0.052,0.558,0.052c0.729,0,1.44-0.266,1.994-0.758l3.057-2.718l0.965,4.682c0.177,0.858,0.721,1.597,1.488,2.02	c0.449,0.248,0.949,0.374,1.451,0.374c0.355,0,0.712-0.063,1.052-0.19l8.314-3.113l-3.124,8.746	c-0.292,0.818-0.215,1.722,0.21,2.479c0.426,0.757,1.159,1.292,2.009,1.468l5.166,1.065l-3.032,3.409	c-0.628,0.706-0.887,1.666-0.698,2.592c0.188,0.926,0.802,1.709,1.656,2.113l8.941,4.235l-9.098,4.31	c-0.854,0.404-1.467,1.187-1.656,2.113c-0.025,0.124-0.022,0.249-0.031,0.374h3.445l11.502-5.448c0.528-0.25,0.865-0.77,0.902-1.348	c-0.037-0.579-0.374-1.098-0.902-1.349l-11.818-5.598l3.754-4.221c1.214-1.365,0.495-3.532-1.294-3.901l-6.23-1.284l4.135-11.577	c0.208-0.584,0.062-1.235-0.377-1.673c-0.306-0.306-0.716-0.47-1.134-0.47c-0.181,0-0.363,0.03-0.54,0.093l-11.152,4.175	l-1.185-5.746c-0.244-1.181-1.271-1.896-2.334-1.896c-0.547,0-1.104,0.189-1.567,0.602l-3.868,3.44l-5.72-11.272	c-0.26-0.549-0.808-0.904-1.416-0.917c-0.01,0-0.022,0-0.033,0c-0.594,0-1.141,0.329-1.419,0.857l-6.059,11.513l-4.07-3.62	c-0.464-0.413-1.02-0.602-1.567-0.602c-1.063,0-2.09,0.715-2.334,1.896l-1.186,5.752L21.69,49.132	c-0.177-0.063-0.359-0.093-0.54-0.093c-0.407,0-0.806,0.155-1.11,0.446c-0.438,0.42-0.601,1.052-0.422,1.633l3.679,11.854	l-5.195,1.071c-1.789,0.369-2.508,2.536-1.294,3.901l3.589,4.035l-12.21,5.784c-0.527,0.25-0.868,0.769-0.906,1.349	C7.318,79.691,7.659,80.21,8.186,80.46z"/><path fill="#40396e" d="M91.5,88h-83C7.672,88,7,87.328,7,86.5S7.672,85,8.5,85h83c0.828,0,1.5,0.672,1.5,1.5	S92.328,88,91.5,88z"/><path fill="#40396e" d="M57.902,21.52c-0.662-0.498-1.603-0.366-2.101,0.296L51.5,27.529V13.718c0-0.828-0.672-1.5-1.5-1.5	s-1.5,0.672-1.5,1.5v13.828l-4.304-5.692c-0.5-0.662-1.441-0.793-2.101-0.292c-0.661,0.499-0.792,1.44-0.292,2.101l7,9.258	c0.283,0.375,0.727,0.596,1.196,0.596c0.001,0,0.001,0,0.002,0c0.471,0,0.913-0.222,1.196-0.598l7-9.298	C58.696,22.958,58.564,22.018,57.902,21.52z"/></svg>