<svg xmlns="http://www.w3.org/2000/svg"  viewBox="0 0 100 100" width="50px" height="50px"><path d="M75,63h-3.68c0.23,0.97,0.23,1.97,0.01,2.93c0.62-0.19,1.25-0.3,1.9-0.3c0.57,0,1.13,0.07,1.68,0.22	c2.02,0.54,3.67,2.03,4.4,3.98c2.86,7.57,2.09,10.44,1.84,11.38C80,85.5,76.06,88.5,71.56,88.5c-0.88,0-1.76-0.12-2.61-0.34	c-2.54-0.69-4.68-2.28-6.03-4.51c-0.96-1.59-1.43-3.37-1.41-5.16L50.92,90.75C49.69,92.18,47.89,93,46,93	c-1.07,0-2.13-0.27-3.08-0.77c-2.7-1.46-4.01-4.53-3.18-7.48l0.63-2.23c-1.07,1.97-3.02,3.69-4.91,4.74	c-1.47,0.81-3.15,1.24-4.83,1.24c-0.89,0-1.77-0.12-2.63-0.34c-2.54-0.68-4.67-2.29-6.02-4.52c-1.4-2.31-1.78-5.01-1.09-7.6	c0.25-0.94,1.02-3.81,7.28-8.94c1.16-0.95,2.62-1.47,4.12-1.47c0.56,0,1.13,0.07,1.68,0.22c1.39,0.37,2.6,1.21,3.47,2.33	c0.01-0.04,0.02-0.08,0.03-0.11L39.52,63H29c-10.48,0-19-8.52-19-19c0-10.29,8.22-18.69,18.44-18.99C32.65,16,41.83,10,52,10	s19.35,6,23.56,15.01C85.78,25.31,94,33.71,94,44C94,54.48,85.48,63,75,63z" opacity=".35"/><path fill="#f2f2f2" d="M73,61h-3.68c0.23,0.97,0.23,1.97,0.01,2.93c0.62-0.19,1.25-0.3,1.9-0.3c0.57,0,1.13,0.07,1.68,0.22	c2.02,0.54,3.67,2.03,4.4,3.98c2.86,7.57,2.09,10.44,1.84,11.38C78,83.5,74.06,86.5,69.56,86.5c-0.88,0-1.76-0.12-2.61-0.34	c-2.54-0.69-4.68-2.28-6.03-4.51c-0.96-1.59-1.43-3.37-1.41-5.16L48.92,88.75C47.69,90.18,45.89,91,44,91	c-1.07,0-2.13-0.27-3.08-0.77c-2.7-1.46-4.01-4.53-3.18-7.48l0.63-2.23c-1.07,1.97-3.02,3.69-4.91,4.74	c-1.47,0.81-3.15,1.24-4.83,1.24c-0.89,0-1.77-0.12-2.63-0.34c-2.54-0.68-4.67-2.29-6.02-4.52c-1.4-2.31-1.78-5.01-1.09-7.6	c0.25-0.94,1.02-3.81,7.28-8.94c1.16-0.95,2.62-1.47,4.12-1.47c0.56,0,1.13,0.07,1.68,0.22c1.39,0.37,2.6,1.21,3.47,2.33	c0.01-0.04,0.02-0.08,0.03-0.11L37.52,61H27C16.52,61,8,52.48,8,42c0-10.29,8.22-18.69,18.44-18.99C30.65,14,39.83,8,50,8	s19.35,6,23.56,15.01C83.78,23.31,92,31.71,92,42C92,52.48,83.48,61,73,61z"/><path fill="#94cfff" d="M73,29.5c-1.359,0-2.663,0.224-3.888,0.624C67.315,21.212,59.442,14.5,50,14.5	s-17.315,6.712-19.112,15.624C29.663,29.724,28.359,29.5,27,29.5c-6.904,0-12.5,5.596-12.5,12.5S20.096,54.5,27,54.5	c0.169,0,45.831,0,46,0c6.904,0,12.5-5.596,12.5-12.5S79.904,29.5,73,29.5z"/><polygon fill="#ffe385" points="63,62.5 55.5,62.5 58.929,54.5 58.929,53 47.159,53 47.159,54.5 41.5,68.5 48.5,68.5 44,84.5"/><rect width="12.5" height="3" x="46.5" y="53" fill="#40396e" opacity=".35"/><path fill="#d9eeff" d="M72.873,77.532c-0.481,1.795-2.383,2.844-4.251,2.343c-1.868-0.5-2.991-2.36-2.51-4.155	c0.481-1.795,5.122-5.592,5.122-5.592S73.354,75.737,72.873,77.532z"/><path fill="#40396e" d="M72.64,69.6c-0.17-0.45-0.55-0.8-1.02-0.92c-0.47-0.13-0.96-0.02-1.34,0.29	c-1.17,0.96-5.06,4.26-5.62,6.36c-0.34,1.27-0.15,2.59,0.54,3.73c0.68,1.12,1.75,1.92,3.03,2.26c0.45,0.12,0.89,0.18,1.33,0.18	c2.19,0,4.18-1.42,4.76-3.58c0.08-0.29,0.11-0.63,0.11-1.01C74.43,74.56,73.1,70.82,72.64,69.6z M71.42,77.14	c-0.26,1-1.34,1.57-2.41,1.29c-0.53-0.14-0.97-0.47-1.24-0.92c-0.26-0.43-0.34-0.93-0.21-1.4c0.15-0.53,1.4-1.94,2.98-3.39	C71.18,74.77,71.56,76.61,71.42,77.14z"/><path fill="#d9eeff" d="M31.929,77.532c-0.481,1.795-2.383,2.844-4.251,2.343c-1.868-0.5-2.991-2.36-2.51-4.155	s5.122-5.592,5.122-5.592S32.41,75.737,31.929,77.532z"/><path fill="#40396e" d="M31.692,69.598c-0.171-0.452-0.549-0.794-1.015-0.919c-0.469-0.125-0.965-0.019-1.339,0.288	c-1.176,0.963-5.059,4.267-5.62,6.365c-0.339,1.267-0.147,2.59,0.539,3.727c0.676,1.118,1.752,1.923,3.031,2.266	c0.442,0.118,0.892,0.177,1.337,0.177c0.843,0,1.673-0.21,2.422-0.623c1.163-0.641,1.991-1.691,2.33-2.958	C33.94,75.821,32.229,71.02,31.692,69.598z M30.479,77.144L30.479,77.144c-0.126,0.471-0.438,0.864-0.88,1.107	c-0.462,0.256-1.006,0.316-1.534,0.175c-0.527-0.141-0.968-0.467-1.24-0.918c-0.261-0.432-0.335-0.929-0.208-1.399	c0.145-0.533,1.4-1.938,2.978-3.391C30.235,74.766,30.621,76.609,30.479,77.144z"/><path fill="#40396e" d="M43.999,86c-0.241,0-0.485-0.059-0.709-0.179c-0.619-0.333-0.924-1.051-0.734-1.728L46.52,70H41.5	c-0.499,0-0.965-0.248-1.243-0.661c-0.279-0.414-0.334-0.938-0.147-1.401L44.935,56H27c-7.72,0-14-6.28-14-14s6.28-14,14-14	c0.937,0,1.87,0.095,2.79,0.283C32.315,19.339,40.574,13,50,13s17.685,6.339,20.21,15.283C71.13,28.095,72.063,28,73,28	c7.72,0,14,6.28,14,14s-6.28,14-14,14H59.918l-2.144,5H63c0.587,0,1.12,0.342,1.364,0.876c0.244,0.533,0.154,1.16-0.229,1.604	l-19,22C44.843,85.819,44.424,86,43.999,86z M43.724,67H48.5c0.47,0,0.912,0.22,1.195,0.594c0.284,0.375,0.376,0.86,0.249,1.313	l-2.677,9.515L59.723,64H55.5c-0.504,0-0.975-0.253-1.252-0.674c-0.278-0.421-0.325-0.954-0.127-1.417l3.429-8	C57.786,53.357,58.329,53,58.929,53H73c6.065,0,11-4.935,11-11s-4.935-11-11-11c-1.154,0-2.306,0.185-3.422,0.55	c-0.405,0.135-0.851,0.085-1.222-0.13c-0.37-0.216-0.63-0.579-0.715-0.999C65.956,22.064,58.537,16,50,16	s-15.956,6.064-17.642,14.421c-0.085,0.42-0.345,0.783-0.715,0.999c-0.371,0.217-0.816,0.264-1.222,0.13	C29.306,31.185,28.154,31,27,31c-6.065,0-11,4.935-11,11s4.935,11,11,11h20.158c0.499,0,0.965,0.248,1.243,0.661	c0.279,0.414,0.334,0.938,0.147,1.401L43.724,67z"/></svg>