<svg xmlns="http://www.w3.org/2000/svg"  viewBox="0 0 100 100" width="50px" height="50px"><path d="M94.937,45.727l-5.839-2.766c1.255-1.876,1.596-4.257,0.875-6.42	c-0.825-2.497-2.938-4.377-5.511-4.906l-0.596-0.122l2.198-6.154c1.102-3.08-0.216-6.464-3.12-8.04	c-0.951-0.52-2.026-0.794-3.11-0.794c-0.785,0-1.556,0.141-2.28,0.414l-5.681,2.127L69,20.179c-0.718-3.462-0.824-7.025-4.362-7.025	c-1.373,0-2.708,0.385-3.859,1.097l-4.157-0.206c-1.097-2.194-1.996-8.979-4.472-9.037l-0.116-0.001	c-2.42,0-4.646,1.328-5.844,3.527l-3.112,5.914c-1.222-0.84-2.668-1.294-4.159-1.294c-3.539,0-6.513,2.419-7.23,5.886l-0.024,0.119	l-6.302-2.25c-0.701-0.249-1.433-0.375-2.176-0.375c-0.434,0-0.869,0.044-1.299,0.131l-0.102,0.021	c-1.216,0.247-2.331,0.834-3.225,1.697c-1.812,1.751-2.467,4.329-1.718,6.707l2.046,6.59c-2.511,0.589-4.486,2.394-5.32,4.896	c-0.675,2.084-0.378,4.357,0.758,6.183l-6.265,2.967c-2.241,1.062-3.666,3.262-3.717,5.741c-0.051,2.483,1.284,4.74,3.48,5.89	l4.765,2.499C12.204,61.014,12,62.241,12,63.5c0,0.7,0.062,1.392,0.185,2.067C10.187,67.665,9,70.489,9,73.5	c0,5.862,4.409,10.715,10.086,11.414C19.785,90.591,24.638,95,30.5,95h37c5.835,0,10.669-4.368,11.403-10.007	C85.059,84.779,90,79.706,90,73.5c0-1.637-0.355-3.229-1.008-4.681c0.421-0.583,0.755-1.222,0.978-1.896	c0.748-2.248,0.359-4.719-1.001-6.621l5.97-2.828c2.257-1.07,3.716-3.376,3.716-5.874S97.195,46.797,94.937,45.727z" opacity=".35"/><path fill="#f2f2f2" d="M92.937,43.727l-5.839-2.766c1.255-1.876,1.596-4.257,0.875-6.42	c-0.825-2.497-2.938-4.377-5.511-4.906l-0.596-0.122l2.198-6.154c1.102-3.08-0.216-6.464-3.12-8.04	c-0.951-0.52-2.026-0.794-3.11-0.794c-0.785,0-1.556,0.141-2.28,0.414l-5.681,2.127l-0.007-0.032	c-0.718-3.462-3.691-5.879-7.229-5.879c-1.373,0-2.708,0.385-3.859,1.097L55.94,6.658c-1.097-2.194-3.315-3.593-5.791-3.65	l-0.116-0.001c-2.42,0-4.646,1.328-5.844,3.527l-3.112,5.914c-1.222-0.84-2.668-1.294-4.159-1.294c-3.539,0-6.513,2.419-7.23,5.886	l-0.024,0.119l-6.302-2.25c-0.701-0.249-1.433-0.375-2.176-0.375c-0.434,0-0.869,0.044-1.299,0.131l-0.102,0.021	c-1.216,0.247-2.331,0.834-3.225,1.697c-1.812,1.751-2.467,4.329-1.718,6.707l2.046,6.59c-2.511,0.589-4.486,2.394-5.32,4.896	c-0.675,2.084-0.378,4.357,0.758,6.183l-6.265,2.967c-2.241,1.062-3.666,3.262-3.717,5.741c-0.051,2.483,1.284,4.74,3.48,5.89	l4.765,2.499C10.204,59.014,10,60.241,10,61.5c0,0.7,0.062,1.392,0.185,2.067C8.187,65.665,7,68.489,7,71.5	c0,5.862,4.409,10.715,10.086,11.414C17.785,88.591,22.638,93,28.5,93h37c5.835,0,10.669-4.368,11.403-10.007	C83.059,82.779,88,77.706,88,71.5c0-1.637-0.355-3.229-1.008-4.681c0.421-0.583,0.755-1.222,0.978-1.896	c0.748-2.248,0.359-4.719-1.001-6.621l5.97-2.828c2.257-1.07,3.716-3.376,3.716-5.874S95.195,44.797,92.937,43.727z"/><path fill="#ffc571" d="M77.716,57.619c-0.313-0.354-0.443-0.833-0.349-1.296s0.4-0.854,0.827-1.057l11.96-5.666	l-11.802-5.59c-0.428-0.202-0.734-0.594-0.828-1.057c-0.095-0.463,0.035-0.942,0.349-1.296l3.754-4.221	c0.303-0.34,0.225-0.711,0.177-0.854c-0.048-0.145-0.207-0.489-0.652-0.581l-6.229-1.284c-0.426-0.087-0.792-0.355-1.005-0.733	c-0.213-0.379-0.251-0.831-0.105-1.24l4.135-11.575c0.014-0.038,0.004-0.08-0.111-0.143L66.683,25.2	c-0.171,0.064-0.349,0.096-0.526,0.096c-0.251,0-0.501-0.063-0.726-0.187c-0.383-0.212-0.655-0.581-0.743-1.011l-1.185-5.745	c-0.1-0.48-0.519-0.699-0.865-0.699c-0.212,0-0.404,0.075-0.57,0.224L58.2,21.317c-0.277,0.246-0.633,0.379-0.997,0.379	c-0.093,0-0.187-0.009-0.279-0.026c-0.457-0.086-0.848-0.38-1.059-0.795l-5.737-11.31c-0.018-0.035-0.052-0.058-0.094-0.059	c-0.038,0-0.074,0.022-0.092,0.055l-6.06,11.513c-0.215,0.408-0.605,0.695-1.059,0.777c-0.09,0.017-0.18,0.024-0.269,0.024	c-0.364,0-0.72-0.133-0.997-0.379l-4.069-3.62c-0.166-0.147-0.358-0.223-0.57-0.223c-0.347,0-0.766,0.219-0.865,0.699l-1.187,5.752	c-0.088,0.426-0.355,0.792-0.733,1.005c-0.228,0.128-0.48,0.192-0.735,0.192c-0.17,0-0.341-0.029-0.505-0.088l-11.708-4.181	l-0.105,0.021c-0.029,0.028-0.04,0.07-0.028,0.107l3.68,11.854c0.125,0.404,0.074,0.843-0.141,1.207	c-0.216,0.364-0.574,0.621-0.989,0.706l-5.196,1.071c-0.445,0.092-0.604,0.437-0.652,0.58c-0.047,0.145-0.125,0.516,0.178,0.855	l3.588,4.035c0.313,0.354,0.443,0.833,0.349,1.296s-0.4,0.854-0.828,1.057l-12.197,5.78L22,56.5h-0.5c-2.761,0-5,2.239-5,5	s2.239,5,5,5h-3c-2.761,0-5,2.239-5,5s2.239,5,5,5h10c-2.761,0-5,2.239-5,5s2.239,5,5,5h37c2.761,0,5-2.239,5-5s-2.239-5-5-5h11	c2.761,0,5-2.239,5-5s-2.239-5-5-5H74c0-0.5,0.574-0.913,1-1l6-2c0.445-0.092,0.755-0.485,0.803-0.63	c0.048-0.144,0.126-0.515-0.177-0.854L77.716,57.619z"/><circle cx="50" cy="50.005" r="19" fill="#ffe385"/><path fill="#d9eeff" d="M28.5,85c-1.93,0-3.5-1.57-3.5-3.5s1.57-3.5,3.5-3.5c0.828,0,1.5-0.672,1.5-1.5S29.328,75,28.5,75	h-10c-1.93,0-3.5-1.57-3.5-3.5s1.57-3.5,3.5-3.5h3c0.828,0,1.5-0.672,1.5-1.5S22.328,65,21.5,65c-1.93,0-3.5-1.57-3.5-3.5	s1.57-3.5,3.5-3.5h43c1.93,0,3.5,1.57,3.5,3.5S66.43,65,64.5,65c-0.828,0-1.5,0.672-1.5,1.5s0.672,1.5,1.5,1.5h12	c1.93,0,3.5,1.57,3.5,3.5S78.43,75,76.5,75h-11c-0.828,0-1.5,0.672-1.5,1.5s0.672,1.5,1.5,1.5c1.93,0,3.5,1.57,3.5,3.5	S67.43,85,65.5,85H28.5z"/><path fill="#f2f2f2" d="M32.782,58c3.02,6.493,9.584,11.005,17.218,11.005c7.286,0,13.607-4.106,16.795-10.126	C66.179,58.339,65.382,58,64.5,58H32.782z"/><path fill="#40396e" d="M65.5,88h-37c-3.584,0-6.5-2.916-6.5-6.5c0-1.287,0.376-2.489,1.024-3.5H18.5	c-3.584,0-6.5-2.916-6.5-6.5c0-2.81,1.792-5.208,4.293-6.114C15.48,64.301,15,62.956,15,61.5c0-2.271,1.17-4.273,2.939-5.436	l-9.792-5.136c-0.504-0.264-0.815-0.79-0.804-1.358s0.344-1.082,0.857-1.325l12.194-5.776l-3.587-4.035	c-0.566-0.636-0.747-1.502-0.483-2.315c0.274-0.824,0.938-1.413,1.776-1.586l5.196-1.071l-3.68-11.854	c-0.182-0.576-0.022-1.204,0.418-1.63c0.206-0.199,0.464-0.335,0.743-0.392l0.105-0.021c0.27-0.055,0.546-0.034,0.805,0.057	l11.708,4.181l1.187-5.751c0.231-1.117,1.191-1.896,2.334-1.896c0.582,0,1.124,0.208,1.566,0.602l4.07,3.62l6.06-11.513	c0.292-0.536,0.831-0.856,1.419-0.856c0.632,0.015,1.169,0.354,1.436,0.888L57.2,20.199l3.868-3.439	c0.44-0.394,0.983-0.603,1.567-0.603c1.143,0,2.103,0.779,2.334,1.895l1.185,5.747l11.151-4.175c0.409-0.154,0.86-0.122,1.241,0.086	c0.871,0.473,1.029,1.351,0.809,1.968L75.22,33.251l6.23,1.284c0.841,0.173,1.504,0.763,1.773,1.578	c0.271,0.813,0.092,1.682-0.48,2.324l-3.753,4.22l11.804,5.591c0.523,0.248,0.857,0.775,0.857,1.355s-0.334,1.107-0.857,1.355	l-11.96,5.666l-1.121,0.997l1.121-0.997l3.91,4.396c0.571,0.642,0.75,1.511,0.479,2.326c-0.208,0.629-0.894,1.367-1.816,1.6	l-2.093,0.698C81.494,66.693,83,68.924,83,71.5c0,3.584-2.916,6.5-6.5,6.5h-5.524C71.624,79.011,72,80.213,72,81.5	C72,85.084,69.084,88,65.5,88z M28.5,78c-1.93,0-3.5,1.57-3.5,3.5s1.57,3.5,3.5,3.5h37c1.93,0,3.5-1.57,3.5-3.5S67.43,78,65.5,78	c-0.828,0-1.5-0.672-1.5-1.5s0.672-1.5,1.5-1.5h11c1.93,0,3.5-1.57,3.5-3.5S78.43,68,76.5,68H74c-0.828,0-1.5-0.672-1.5-1.5	c0-1.223,1.046-2.184,2.092-2.445l5.276-1.759l-3.273-3.68c0-0.001-0.001-0.001-0.001-0.002c-0.624-0.703-0.884-1.673-0.696-2.592	c0.187-0.919,0.805-1.709,1.654-2.111l9.099-4.311l-8.941-4.235c-0.85-0.401-1.469-1.192-1.655-2.114	c-0.188-0.916,0.072-1.886,0.696-2.589l3.034-3.411l-5.166-1.065c-0.849-0.173-1.582-0.707-2.009-1.466	c-0.426-0.758-0.503-1.661-0.212-2.479l3.125-8.748l-8.313,3.112c-0.804,0.304-1.745,0.237-2.503-0.182	c-0.771-0.427-1.313-1.164-1.488-2.023l-0.965-4.68l-3.057,2.719c-0.69,0.613-1.633,0.881-2.553,0.705	c-0.905-0.17-1.697-0.765-2.116-1.589l-4.517-8.903l-4.802,9.121c-0.433,0.823-1.205,1.39-2.118,1.555	c-0.897,0.169-1.845-0.102-2.528-0.708l-3.26-2.899l-0.968,4.688c-0.175,0.851-0.71,1.583-1.466,2.009	c-0.749,0.422-1.667,0.501-2.481,0.211l-9.076-3.241l2.852,9.186c0.25,0.808,0.147,1.688-0.281,2.413	c-0.433,0.73-1.154,1.245-1.98,1.414l-4.13,0.852l2.867,3.224c0.625,0.705,0.885,1.675,0.697,2.594	c-0.187,0.919-0.806,1.71-1.657,2.112l-9.475,4.488l10.492,5.503c0.611,0.32,0.925,1.017,0.76,1.687C23.291,57.529,22.69,58,22,58	h-0.5c-1.93,0-3.5,1.57-3.5,3.5s1.57,3.5,3.5,3.5c0.828,0,1.5,0.672,1.5,1.5S22.328,68,21.5,68h-3c-1.93,0-3.5,1.57-3.5,3.5	s1.57,3.5,3.5,3.5h10c0.828,0,1.5,0.672,1.5,1.5S29.328,78,28.5,78z M80.506,63.014h0.01H80.506z M80.697,62.031	c-0.017,0.003-0.032,0.007-0.049,0.011C80.665,62.038,80.681,62.034,80.697,62.031z M22.481,20.711l0.004,0.014	C22.484,20.721,22.482,20.716,22.481,20.711z M76.533,20.663c-0.001,0.002-0.002,0.003-0.002,0.005L76.533,20.663z M63.067,18.996	l-0.002,0.002C63.066,18.997,63.066,18.997,63.067,18.996z M48.789,10.244c0.003,0.005,0.005,0.01,0.008,0.014L48.789,10.244z"/></svg>