<svg xmlns="http://www.w3.org/2000/svg"  viewBox="0 0 100 100" width="50px" height="50px"><path d="M97.5,41.74c0,2.5-1.46,4.8-3.73,5.87l-3.03,1.45c0.53,1.48,0.58,3.12,0.07,4.66	c-0.32,0.97-0.81,1.83-1.45,2.55C89.78,57.8,90,59.4,90,61.02c0,8.66-6.16,15.91-14.33,17.6c1.89,5.86,1.26,8.25,1.04,9.09	c-1.15,4.29-5.1,7.28-9.59,7.28c-0.88,0-1.76-0.11-2.62-0.34c-2.54-0.68-4.68-2.28-6.02-4.51c-0.38-0.62-0.67-1.27-0.9-1.94	c-0.77,2.37-2.38,4.33-4.59,5.55C51.51,94.57,49.84,95,48.15,95c-0.88,0-1.77-0.12-2.62-0.35c-3.4-0.91-5.92-3.45-6.94-6.54	c-1.29,4.07-5.11,6.88-9.47,6.88c-0.88,0-1.76-0.11-2.61-0.34c-5.34-1.43-8.52-6.87-7.11-12.12c0.16-0.61,0.55-2.04,2.5-4.35	C14.13,75.82,8.45,68.6,8.45,60.07c0-9.61,7.18-17.57,16.45-18.77c1.15-2.67,2.72-5.12,4.66-7.28c-0.43-1.4-0.41-2.9,0.07-4.33	c0.58-1.8,1.9-3.3,3.61-4.14l-1.15-3.69c-0.69-2.24-0.09-4.78,1.53-6.48c0.88-0.93,2.01-1.57,3.27-1.87l0.23-0.05	c0.42-0.07,0.85-0.11,1.28-0.11c0.79,0,1.54,0.13,2.24,0.38l3.25,1.17c1.15-2.5,3.64-4.15,6.52-4.15c0.86,0,1.71,0.16,2.51,0.46	l1.66-3.18c0.99-1.89,2.93-3.23,5.05-3.48l0.11-0.02c0.22-0.02,0.43-0.03,0.64-0.03c0.19,0,0.38,0.01,0.57,0.03	c2.31,0.18,3.068,3.682,4.078,5.772l2.762,0.808c0.72-0.24,1.47-0.36,2.23-0.36c2.79,0,3.636,1.733,4.816,4.163l4.484-1.163	c0.74-0.28,1.51-0.42,2.29-0.42c1.01,0,2.02,0.25,2.93,0.7c3.05,1.6,4.39,5.07,3.24,8.16l-1.1,3.12c1.94,0.78,3.44,2.35,4.12,4.4	c0.51,1.56,0.47,3.22-0.07,4.7l3.06,1.45C96.04,36.92,97.5,39.23,97.5,41.74z" opacity=".35"/><path fill="#f2f2f2" d="M95.5,39.74c0,2.5-1.46,4.8-3.73,5.87l-3.03,1.45c0.53,1.48,0.58,3.12,0.07,4.66	c-0.32,0.97-0.81,1.83-1.45,2.55C87.78,55.8,88,57.4,88,59.02c0,8.66-6.16,15.91-14.33,17.6c1.89,5.86,1.26,8.25,1.04,9.09	c-1.15,4.29-5.1,7.28-9.59,7.28c-0.88,0-1.76-0.11-2.62-0.34c-2.54-0.68-4.68-2.28-6.02-4.51c-0.38-0.62-0.67-1.27-0.9-1.94	c-0.77,2.37-2.38,4.33-4.59,5.55C49.51,92.57,47.84,93,46.15,93c-0.88,0-1.77-0.12-2.62-0.35c-3.4-0.91-5.92-3.45-6.94-6.54	c-1.29,4.07-5.11,6.88-9.47,6.88c-0.88,0-1.76-0.11-2.61-0.34c-5.34-1.43-8.52-6.87-7.11-12.12c0.16-0.61,0.55-2.04,2.5-4.35	C12.13,73.82,6.45,66.6,6.45,58.07c0-9.61,7.18-17.57,16.45-18.77c1.15-2.67,2.72-5.12,4.66-7.28c-0.43-1.4-0.41-2.9,0.07-4.33	c0.58-1.8,1.9-3.3,3.61-4.14l-1.15-3.69c-0.69-2.24-0.09-4.78,1.53-6.48c0.88-0.93,2.01-1.57,3.27-1.87l0.23-0.05	c0.42-0.07,0.85-0.11,1.28-0.11c0.79,0,1.54,0.13,2.24,0.38l3.25,1.17c1.15-2.5,3.64-4.15,6.52-4.15c0.86,0,1.71,0.16,2.51,0.46	l1.66-3.18c0.99-1.89,2.93-3.23,5.05-3.48l0.11-0.02c0.22-0.02,0.43-0.03,0.64-0.03c0.19,0,0.38,0.01,0.57,0.03	c2.31,0.18,4.36,1.58,5.37,3.67l1.47,2.91c0.72-0.24,1.47-0.36,2.23-0.36c2.79,0,5.29,1.64,6.47,4.07l2.83-1.07	c0.74-0.28,1.51-0.42,2.29-0.42c1.01,0,2.02,0.25,2.93,0.7c3.05,1.6,4.39,5.07,3.24,8.16l-1.1,3.12c1.94,0.78,3.44,2.35,4.12,4.4	c0.51,1.56,0.47,3.22-0.07,4.7l3.06,1.45C94.04,34.92,95.5,37.23,95.5,39.74z"/><path fill="#f9b84f" d="M79.774,45.986l-0.428-0.893c-0.002-0.086,0.004-0.173,0.022-0.259	c0.071-0.355,0.305-0.655,0.631-0.81l9-4.287l-9-4.287c-0.325-0.155-0.559-0.455-0.631-0.81c-0.018-0.086-0.024-0.173-0.022-0.259	l0.428-0.893l2.722-3.077c0.231-0.261,0.171-0.545,0.135-0.655c-0.036-0.11-0.158-0.375-0.497-0.445l-4.75-0.984	c-0.325-0.067-0.604-0.273-0.766-0.562c-0.162-0.29-0.191-0.637-0.08-0.951l3.153-8.874c0.01-0.028,0.003-0.061-0.085-0.107	l-8.503,3.2c-0.13,0.049-0.266,0.073-0.401,0.073c-0.191,0-0.382-0.048-0.553-0.143c-0.292-0.162-0.5-0.445-0.567-0.775	l-0.903-4.405c-0.076-0.368-0.395-0.535-0.66-0.535c-0.162,0-0.308,0.058-0.435,0.171l-2.95,2.637	c-0.211,0.189-0.482,0.29-0.76,0.29c-0.071,0-0.142-0.007-0.213-0.02c-0.349-0.066-0.646-0.291-0.807-0.609l-4.375-8.671	c-0.013-0.027-0.039-0.043-0.069-0.044c-0.003,0-0.005,0-0.008-0.001c-0.026,0.003-0.051,0.019-0.063,0.043l-4.62,8.826	c-0.164,0.313-0.462,0.533-0.808,0.596c-0.068,0.013-0.136,0.019-0.204,0.019c-0.278,0-0.549-0.102-0.76-0.29l-3.103-2.775	c-0.127-0.113-0.273-0.171-0.435-0.171c-0.265,0-0.584,0.168-0.66,0.535l-0.905,4.409c-0.067,0.326-0.271,0.607-0.559,0.77	c-0.174,0.098-0.366,0.148-0.561,0.148c-0.13,0-0.26-0.022-0.385-0.067l-8.927-3.205l-0.082,0.017	c-0.021,0.021-0.028,0.053-0.02,0.081l2.806,9.088c0.095,0.31,0.057,0.646-0.107,0.925c-0.165,0.279-0.439,0.476-0.754,0.541	l-3.962,0.82c-0.34,0.07-0.461,0.335-0.497,0.445c-0.036,0.11-0.095,0.395,0.135,0.655l2.039,2.306l0.98,1.636l8.24,18.145	l32.029-0.385c0,0-0.157-0.899,0.168-0.965l4.75-0.984c0.34-0.07,0.461-0.335,0.497-0.445c0.036-0.11,0.096-0.395-0.135-0.655	L79.774,45.986z"/><circle cx="58.4" cy="39.997" r="12.5" fill="#ffc571"/><path fill="#94cfff" d="M80,59.02c0,5.5-4.475,9.975-9.975,9.975c-0.067,0-0.133-0.01-0.19-0.01l-0.228-0.01	c-0.019-0.01-0.038-0.01-0.057-0.01c-0.086,0-0.161,0.01-0.247,0.029H25.375c-6.023,0-10.925-4.902-10.925-10.925	c0-6.023,4.902-10.925,10.925-10.925c0.656,0,1.349,0.067,2.043,0.199c0.76,0.152,1.501-0.351,1.663-1.121	c1.776-8.825,9.604-15.228,18.62-15.228c9.737,0,17.86,7.296,18.886,16.967c0.047,0.389,0.247,0.75,0.56,0.988	c0.323,0.238,0.722,0.333,1.112,0.266c0.627-0.114,1.206-0.171,1.767-0.171C75.525,49.045,80,53.519,80,59.02z"/><path fill="#40396e" d="M70.025,71.994c-0.114,0-0.227-0.006-0.334-0.015H69.69c-0.006,0-0.037-0.001-0.078-0.003	c-0.099,0.013-0.194,0.018-0.31,0.018H25.375c-7.678,0-13.925-6.247-13.925-13.925c0-8.042,6.837-14.548,15.029-13.879	c1.228-4.515,3.854-8.484,7.542-11.408l-1.219-1.377c-0.516-0.584-0.679-1.375-0.437-2.116c0.245-0.747,0.85-1.288,1.619-1.447	l3.582-0.742l-2.694-8.722c-0.16-0.52-0.006-1.166,0.369-1.56c0.212-0.222,0.486-0.373,0.787-0.434	c0.269-0.057,0.628-0.051,0.887,0.041l8.538,3.065l0.822-4.011c0.212-1.022,1.087-1.734,2.13-1.734c0.529,0,1.023,0.189,1.429,0.548	l2.765,2.473l4.407-8.419c0.23-0.44,0.728-0.781,1.221-0.838c0.103-0.012,0.204-0.013,0.307-0.004	c0.562,0.045,1.064,0.392,1.304,0.907l4.145,8.211l2.6-2.325c0.411-0.363,0.905-0.553,1.436-0.553c1.028,0,1.924,0.73,2.129,1.736	l0.819,3.997l8.11-3.052c0.4-0.148,0.845-0.122,1.223,0.074c0.844,0.441,1.037,1.324,0.793,1.969l-3.008,8.469l4.354,0.902	c0.769,0.159,1.373,0.7,1.618,1.447c0.242,0.741,0.079,1.532-0.437,2.115l-2.557,2.892l8.58,4.086	c0.522,0.249,0.855,0.776,0.855,1.354s-0.333,1.105-0.854,1.354l-8.582,4.087l2.558,2.891c0.516,0.584,0.679,1.375,0.437,2.116	c-0.248,0.749-0.852,1.288-1.618,1.447L80.9,51.95c1.366,2.089,2.1,4.527,2.1,7.069C83,66.174,77.18,71.994,70.025,71.994z M69.208,69.005c0,0-0.001,0-0.002,0C69.207,69.005,69.208,69.005,69.208,69.005z M69.535,68.974c0.041,0,0.081,0.002,0.118,0.005	l0.372,0.016c5.5,0,9.975-4.475,9.975-9.975c0-2.625-1.02-5.107-2.871-6.989c-0.385-0.392-0.525-0.962-0.366-1.487	s0.594-0.922,1.131-1.033l2.531-0.524l-1.774-2.006c-0.091-0.104-0.168-0.22-0.229-0.345l-0.429-0.893	c-0.092-0.192-0.143-0.402-0.147-0.615c-0.004-0.2,0.014-0.398,0.052-0.591c0.164-0.813,0.708-1.511,1.457-1.867l6.156-2.933	l-6.156-2.932c-0.749-0.356-1.294-1.056-1.457-1.87c-0.038-0.187-0.056-0.387-0.052-0.588c0.005-0.213,0.056-0.423,0.147-0.615	l0.429-0.893c0.061-0.125,0.138-0.24,0.229-0.345l1.774-2.006l-3.346-0.693c-0.748-0.152-1.396-0.627-1.771-1.3	c-0.373-0.667-0.439-1.463-0.184-2.184l2.128-5.991l-5.622,2.115c-0.69,0.265-1.536,0.212-2.21-0.162	c-0.679-0.379-1.155-1.029-1.31-1.787l-0.611-2.982l-1.866,1.669c-0.61,0.545-1.451,0.781-2.259,0.625	c-0.806-0.153-1.486-0.666-1.859-1.404l-3.132-6.206l-3.338,6.376c-0.382,0.729-1.063,1.23-1.87,1.376	c-0.775,0.149-1.623-0.089-2.229-0.626l-2.022-1.81l-0.612,2.989c-0.155,0.752-0.626,1.397-1.29,1.774	c-0.666,0.374-1.466,0.443-2.182,0.19l-6.261-2.247l1.968,6.37c0.218,0.713,0.128,1.486-0.247,2.126	c-0.382,0.646-1.018,1.102-1.745,1.252l-2.557,0.529l1.092,1.234c0.054,0.062,0.103,0.126,0.146,0.195l0.214,0.34	c0.43,0.684,0.242,1.584-0.425,2.039c-4.123,2.808-6.939,7.02-7.931,11.86c-0.164,0.801-0.945,1.325-1.743,1.174	c-0.668-0.124-1.333-0.187-1.976-0.187c-6.024,0-10.925,4.9-10.925,10.925s4.9,10.925,10.925,10.925h43.896	C69.355,68.981,69.448,68.974,69.535,68.974z M81.372,50.056h0.01H81.372z M77.684,26.856h0.002	C77.686,26.856,77.685,26.856,77.684,26.856z M70.569,19.629c-0.002,0.001-0.003,0.001-0.005,0.002L70.569,19.629z M78.276,17.437	c-0.008,0.019-0.014,0.037-0.021,0.056L78.276,17.437z M58.399,9h0.01H58.399z"/><path fill="#d9eeff" d="M68.429,84.027c-0.481,1.795-2.383,2.844-4.251,2.343c-1.868-0.5-2.991-2.36-2.51-4.155 c0.481-1.795,5.122-5.592,5.122-5.592S68.91,82.231,68.429,84.027z"/><path fill="#40396e" d="M68.192,76.093c-0.171-0.452-0.549-0.794-1.016-0.919c-0.465-0.125-0.964-0.019-1.338,0.288 c-1.176,0.963-5.058,4.267-5.62,6.364c-0.339,1.267-0.147,2.59,0.539,3.728c0.675,1.117,1.752,1.922,3.032,2.266 c0.443,0.118,0.888,0.175,1.325,0.175c2.19,0,4.185-1.421,4.763-3.58C70.44,82.315,68.729,77.514,68.192,76.093z M66.979,83.638 c-0.267,0.992-1.35,1.569-2.413,1.283c-0.527-0.141-0.968-0.468-1.24-0.919c-0.262-0.432-0.336-0.929-0.209-1.399 c0.145-0.533,1.4-1.937,2.978-3.39C66.735,81.261,67.121,83.104,66.979,83.638z"/><path fill="#d9eeff" d="M49.457,84.027c-0.481,1.795-2.383,2.844-4.251,2.343c-1.868-0.5-2.991-2.36-2.51-4.155 c0.481-1.795,5.122-5.592,5.122-5.592S49.938,82.231,49.457,84.027z"/><path fill="#40396e" d="M49.221,76.093c-0.171-0.452-0.549-0.794-1.016-0.919c-0.465-0.125-0.964-0.019-1.338,0.288 c-1.176,0.963-5.058,4.266-5.621,6.365c-0.693,2.59,0.909,5.277,3.572,5.992c0.441,0.118,0.89,0.177,1.334,0.177 c0.844,0,1.675-0.211,2.424-0.624c1.163-0.641,1.99-1.691,2.33-2.957C51.469,82.316,49.758,77.515,49.221,76.093z M48.008,83.638 c-0.126,0.47-0.438,0.864-0.881,1.107c-0.461,0.256-1.006,0.319-1.532,0.176c-1.065-0.285-1.716-1.325-1.45-2.317 c0.145-0.533,1.4-1.937,2.979-3.391C47.764,81.261,48.149,83.104,48.008,83.638z"/><path fill="#d9eeff" d="M30.436,84.027c-0.481,1.795-2.383,2.844-4.251,2.343c-1.868-0.5-2.991-2.36-2.51-4.155 c0.481-1.795,5.122-5.592,5.122-5.592S30.917,82.231,30.436,84.027z"/><path fill="#40396e" d="M30.2,76.09c-0.17-0.45-0.55-0.79-1.01-0.92c-0.47-0.12-0.97-0.01-1.34,0.29 c-1.18,0.96-5.06,4.27-5.62,6.37c-0.7,2.59,0.9,5.27,3.57,5.99c0.44,0.12,0.88,0.17,1.32,0.17c2.19,0,4.19-1.42,4.77-3.57v-0.01 C32.45,82.32,30.74,77.51,30.2,76.09z M28.99,83.64c-0.27,0.99-1.36,1.57-2.42,1.28c-1.06-0.28-1.71-1.32-1.45-2.32 c0.15-0.53,1.4-1.93,2.98-3.39c0.55,1.77,0.92,3.38,0.92,4.14C29.02,83.47,29.01,83.57,28.99,83.64z"/></svg>