<svg xmlns="http://www.w3.org/2000/svg"  viewBox="0 0 100 100" width="50px" height="50px"><path d="M96.264,59.495c-0.802-1.538-2.156-2.673-3.823-3.198c-0.629-0.196-1.281-0.296-1.939-0.296 c-2.853,0-5.345,1.827-6.201,4.547l-0.522,1.66c-1.031-0.735-2.274-1.163-3.595-1.2l-0.102-0.006h-0.157 c-2.353,0-4.505,1.305-5.638,3.399C74.096,64.681,73.721,65,73,65c-0.716,0-1.091-0.314-1.282-0.592 c-0.433-0.802-1.023-1.483-1.715-2.024c4.473-0.874,7.861-4.818,7.861-9.544c0-0.82-0.003-3.102-2.884-7.848 c1.387-0.826,2.647-1.879,3.719-3.138c2.829-3.32,4.049-7.716,3.349-12.06c-0.907-5.619-5.051-10.271-10.561-11.851 c-0.919-0.264-2.831,0.546-3.762,0.46C64.233,12.652,58.889,8,52,8c-6.89,0-13.214,3.668-16.705,9.421 c-0.934,0.086-1.866,0.261-2.784,0.524c-5.507,1.578-9.651,6.229-10.559,11.851c-0.701,4.343,1.477,8.193,4.304,11.513 c1.073,1.26,1.376,2.859,2.763,3.685c-2.881,4.746-2.884,7.027-2.884,7.848c0,4.724,5.052,7.124,9.523,8 c-0.69,0.54-2.941,2.764-3.373,3.561C32.096,64.681,31.721,65,31,65c-0.716,0-2.618,1.128-2.809,0.851 c-1.125-2.084-1.753-4.826-4.194-4.846c-1.384,0-2.696,0.435-3.775,1.203L18.064,63c-0.855-2.722-1.711-6.999-4.566-6.999 c-0.658,0-1.311,0.1-1.951,0.3c-1.655,0.521-3.009,1.656-3.811,3.194c-0.803,1.541-0.958,3.302-0.436,4.956l7.398,23.501 C16.214,92.766,20.622,96,25.668,96h52.664c5.046,0,9.454-3.234,10.969-8.048l7.398-23.499 C97.222,62.797,97.067,61.036,96.264,59.495z" opacity=".35"/><path fill="#f2f2f2" d="M94.264,57.495c-0.802-1.538-2.156-2.673-3.823-3.198c-0.629-0.196-1.281-0.296-1.939-0.296 c-2.853,0-5.345,1.827-6.201,4.547l-0.522,1.66c-1.031-0.735-2.274-1.163-3.595-1.2l-0.102-0.006h-0.157 c-2.353,0-4.505,1.305-5.638,3.399C72.096,62.681,71.721,63,71,63c-0.716,0-1.091-0.314-1.282-0.592 c-0.433-0.802-1.023-1.483-1.715-2.024c4.473-0.874,7.861-4.818,7.861-9.544c0-0.82-0.003-3.102-2.884-7.848 c1.387-0.826,2.647-1.879,3.719-3.138c2.829-3.32,4.049-7.716,3.349-12.06c-0.907-5.619-5.051-10.271-10.561-11.851 c-0.919-0.264-1.85-0.438-2.782-0.524C63.213,9.668,56.889,6,50,6c-6.89,0-13.214,3.668-16.705,9.421 c-0.934,0.086-1.866,0.261-2.784,0.524c-5.507,1.578-9.651,6.229-10.559,11.851c-0.701,4.343,0.52,8.738,3.348,12.058 c1.073,1.26,2.333,2.314,3.72,3.14c-2.881,4.746-2.884,7.027-2.884,7.848c0,4.724,3.385,8.668,7.856,9.543 c-0.69,0.54-1.274,1.22-1.706,2.018C30.096,62.681,29.721,63,29,63c-0.716,0-1.091-0.314-1.282-0.592 c-1.125-2.084-3.279-3.383-5.721-3.403c-1.384,0-2.696,0.435-3.775,1.203l-0.522-1.657c-0.855-2.722-3.348-4.55-6.203-4.55 c-0.658,0-1.311,0.1-1.951,0.3c-1.655,0.521-3.009,1.656-3.811,3.194c-0.803,1.541-0.958,3.302-0.436,4.956l7.398,23.501 C14.214,90.766,18.622,94,23.668,94h52.664c5.046,0,9.454-3.234,10.969-8.048l7.398-23.499 C95.222,60.797,95.067,59.036,94.264,57.495z"/><path fill="#d9eeff" d="M37.091,50.841c0,1.783-1.444,3.227-3.227,3.227c-1.783,0-3.227-1.444-3.227-3.227 c0-1.783,3.227-6.455,3.227-6.455S37.091,49.058,37.091,50.841z"/><path fill="#40396e" d="M33.864,55.568c-2.607,0-4.728-2.121-4.728-4.728c0-2.089,2.674-6.121,3.494-7.307 c0.28-0.405,0.741-0.647,1.234-0.647l0,0c0.493,0,0.954,0.242,1.234,0.647c0.82,1.186,3.493,5.218,3.493,7.307 C38.591,53.447,36.47,55.568,33.864,55.568z M33.864,47.155c-0.999,1.662-1.725,3.176-1.728,3.686c0,0.952,0.775,1.728,1.728,1.728 c0.952,0,1.727-0.775,1.727-1.728C35.588,50.331,34.862,48.817,33.864,47.155z"/><path fill="#d9eeff" d="M53.227,57.295c0,1.783-1.444,3.227-3.227,3.227s-3.227-1.444-3.227-3.227 c0-1.783,3.227-6.455,3.227-6.455S53.227,55.512,53.227,57.295z"/><path fill="#40396e" d="M50,62.022c-2.606,0-4.727-2.12-4.727-4.727c0-2.089,2.673-6.121,3.493-7.308 c0.561-0.811,1.908-0.811,2.469,0c0.819,1.187,3.493,5.219,3.493,7.308C54.727,59.902,52.606,62.022,50,62.022z M50,53.609 c-0.999,1.663-1.725,3.177-1.728,3.687c0,0.952,0.775,1.727,1.727,1.727s1.727-0.774,1.727-1.727 C51.725,56.785,50.999,55.271,50,53.609z"/><path fill="#d9eeff" d="M69.364,50.841c0,1.783-1.444,3.227-3.227,3.227c-1.783,0-3.227-1.444-3.227-3.227 c0-1.783,3.227-6.455,3.227-6.455S69.364,49.058,69.364,50.841z"/><path fill="#40396e" d="M66.136,55.568c-2.606,0-4.727-2.121-4.727-4.728c0-2.089,2.673-6.121,3.493-7.307 c0.56-0.811,1.908-0.811,2.468,0c0.82,1.186,3.494,5.218,3.494,7.307C70.864,53.447,68.743,55.568,66.136,55.568z M66.136,47.155 c-0.999,1.662-1.725,3.176-1.727,3.686c0,0.952,0.775,1.728,1.727,1.728c0.953,0,1.728-0.775,1.728-1.728 C67.861,50.331,67.135,48.817,66.136,47.155z"/><path fill="#94cfff" d="M67.697,22.194c-1.812-0.52-3.536-0.392-5.069,0.144C61.198,16.687,56.095,12.5,50,12.5 s-11.198,4.187-12.629,9.837c-1.533-0.535-3.256-0.663-5.069-0.144c-3.061,0.878-5.426,3.493-5.933,6.637 c-0.844,5.233,3.174,9.753,8.247,9.753c0.279,0,30.765,0,30.765,0c5.074,0,9.092-4.52,8.247-9.753 C73.123,25.687,70.758,23.071,67.697,22.194z"/><path fill="#40396e" d="M65.382,40.083H34.618c-2.895,0-5.632-1.265-7.51-3.471c-1.877-2.203-2.686-5.127-2.219-8.021 c0.6-3.715,3.347-6.793,7-7.84c1.494-0.429,2.995-0.506,4.476-0.231C38.444,14.847,43.853,11,50,11s11.556,3.847,13.635,9.521 c1.481-0.276,2.98-0.197,4.475,0.23c0,0,0,0.001,0,0.001c3.653,1.047,6.4,4.125,7,7.84c0.467,2.894-0.342,5.817-2.219,8.021 C71.014,38.818,68.277,40.083,65.382,40.083z M34.619,23.362c-0.633,0-1.269,0.091-1.903,0.273 c-2.501,0.717-4.456,2.901-4.865,5.435c-0.332,2.054,0.216,4.041,1.541,5.598c1.307,1.535,3.212,2.415,5.226,2.415h30.765 c2.014,0,3.918-0.88,5.226-2.415c1.325-1.557,1.873-3.544,1.541-5.598c-0.409-2.533-2.364-4.718-4.865-5.435l0,0 c-1.394-0.401-2.793-0.36-4.161,0.117c-0.398,0.14-0.835,0.104-1.205-0.095c-0.371-0.199-0.641-0.545-0.744-0.953 C59.877,17.58,55.282,14,50,14s-9.877,3.58-11.174,8.705c-0.103,0.408-0.373,0.754-0.744,0.953 c-0.371,0.197-0.808,0.233-1.205,0.095C36.132,23.493,35.377,23.362,34.619,23.362z"/><g><path fill="#70bfff" d="M14.333,69.5l5.933,16.649h59.474L85,69.5c-5,0-7-4-7-4s-2,4-7,4s-7-4-7-4s-2,4-7,4s-7-4-7-4 s-2,4-7,4s-7-4-7-4s-2,4-7,4s-7-4-7-4s-2,4-7,4"/></g><g><path fill="#40396e" d="M85,71c-3.47,0-5.721-1.624-7-2.99C76.721,69.376,74.47,71,71,71s-5.721-1.624-7-2.99 C62.721,69.376,60.47,71,57,71s-5.721-1.624-7-2.99C48.721,69.376,46.47,71,43,71s-5.721-1.624-7-2.99 C34.721,69.376,32.47,71,29,71s-5.721-1.624-7-2.99C20.721,69.376,18.47,71,15,71c-0.829,0-1.5-0.672-1.5-1.5S14.171,68,15,68 c3.966,0,5.596-3.051,5.664-3.181c0.258-0.497,0.774-0.814,1.334-0.814c0.003,0,0.007,0,0.011,0 c0.564,0.005,1.081,0.319,1.333,0.824C23.404,64.949,25.034,68,29,68s5.596-3.051,5.664-3.181c0.258-0.497,0.774-0.814,1.334-0.814 c0.003,0,0.007,0,0.011,0c0.564,0.005,1.081,0.319,1.333,0.824C37.404,64.949,39.034,68,43,68s5.596-3.051,5.664-3.181 c0.258-0.497,0.774-0.814,1.334-0.814c0.003,0,0.007,0,0.011,0c0.564,0.005,1.081,0.319,1.333,0.824C51.404,64.949,53.034,68,57,68 s5.596-3.051,5.664-3.181c0.259-0.5,0.762-0.852,1.345-0.814c0.564,0.005,1.081,0.319,1.333,0.824C65.404,64.949,67.034,68,71,68 s5.596-3.051,5.664-3.181c0.259-0.5,0.756-0.852,1.345-0.814c0.564,0.005,1.081,0.319,1.333,0.824C79.404,64.949,81.034,68,85,68 c0.829,0,1.5,0.672,1.5,1.5S85.829,71,85,71z"/></g><g><path fill="#40396e" d="M76.332,89H23.668c-2.852,0-5.344-1.828-6.2-4.549L10.069,60.95c-0.249-0.79,0.19-1.632,0.98-1.881 c0.787-0.246,1.632,0.189,1.881,0.98l7.398,23.501C20.791,85.016,22.132,86,23.668,86h52.664c1.536,0,2.877-0.984,3.339-2.449 l7.398-23.501c0.249-0.791,1.093-1.227,1.881-0.98c0.791,0.249,1.229,1.091,0.98,1.881l-7.398,23.501 C81.676,87.172,79.184,89,76.332,89z"/></g></svg>