<svg xmlns="http://www.w3.org/2000/svg"  viewBox="0 0 100 100" width="50px" height="50px"><path d="M97.5,41.74c0,2.49-1.45,4.79-3.7,5.86l-3.06,1.46c0.54,1.48,0.58,3.11,0.07,4.68	c-0.31,0.94-0.81,1.8-1.45,2.52C89.78,57.8,90,59.4,90,61.02c0,9.32-7.14,17.01-16.23,17.89c1.78,5.66,1.16,7.97,0.94,8.8	c-1.15,4.29-5.1,7.28-9.59,7.28c-0.88,0-1.76-0.11-2.62-0.34c-2.54-0.68-4.68-2.28-6.02-4.51c-1.09-1.81-1.56-3.84-1.38-5.88	l-3.32,4.2c-1.53,1.93-3.82,3.03-6.28,3.03c-1.36,0-2.7-0.34-3.88-1c-1.23-0.68-2.21-1.64-2.91-2.76c-1.16,4.28-5.1,7.26-9.59,7.26	c-0.88,0-1.76-0.11-2.61-0.34c-5.34-1.43-8.52-6.87-7.11-12.12c0.16-0.61,0.55-2.03,2.5-4.35C14.13,75.83,8.45,68.6,8.45,60.07	c0-9.61,7.18-17.57,16.45-18.77c1.15-2.67,2.71-5.11,4.65-7.27c-0.41-1.38-0.4-2.86,0.06-4.29c0.61-1.85,1.93-3.35,3.63-4.19	l-1.14-3.7c-0.7-2.24-0.1-4.78,1.52-6.48c0.93-0.97,2.11-1.62,3.42-1.89c0.41-0.08,0.88-0.13,1.36-0.13c0.77,0,1.51,0.12,2.19,0.37	l3.3,1.18c1.15-2.51,3.64-4.15,6.52-4.15c0.86,0,1.71,0.15,2.51,0.45l1.66-3.17c0.99-1.91,2.94-3.24,5.08-3.49	c0.21-0.02,0.47-0.04,0.73-0.04c0.19,0,0.38,0.01,0.57,0.02c2.3,0.19,2.833,2.608,3.853,4.698l2.977,1.892	c0.71-0.24,1.47-0.36,2.23-0.36c2.79,0,3.321,2.32,4.491,4.75l4.809-1.75c0.75-0.28,1.51-0.42,2.29-0.42c1.04,0,2.07,0.26,2.99,0.73	c2.97,1.56,4.32,5.03,3.19,8.12l-1.11,3.14c1.93,0.78,3.46,2.39,4.13,4.41c0.5,1.54,0.46,3.19-0.08,4.68l3.06,1.46	C96.04,36.94,97.5,39.24,97.5,41.74z" opacity=".35"/><path fill="#f2f2f2" d="M95.5,39.74c0,2.49-1.45,4.79-3.7,5.86l-3.06,1.46c0.54,1.48,0.58,3.11,0.07,4.68	c-0.31,0.94-0.81,1.8-1.45,2.52C87.78,55.8,88,57.4,88,59.02c0,9.32-7.14,17.01-16.23,17.89c1.78,5.66,1.16,7.97,0.94,8.8	c-1.15,4.29-5.1,7.28-9.59,7.28c-0.88,0-1.76-0.11-2.62-0.34c-2.54-0.68-4.68-2.28-6.02-4.51c-1.09-1.81-1.56-3.84-1.38-5.88	l-3.32,4.2c-1.53,1.93-3.82,3.03-6.28,3.03c-1.36,0-2.7-0.34-3.88-1c-1.23-0.68-2.21-1.64-2.91-2.76c-1.16,4.28-5.1,7.26-9.59,7.26	c-0.88,0-1.76-0.11-2.61-0.34c-5.34-1.43-8.52-6.87-7.11-12.12c0.16-0.61,0.55-2.03,2.5-4.35C12.13,73.83,6.45,66.6,6.45,58.07	c0-9.61,7.18-17.57,16.45-18.77c1.15-2.67,2.71-5.11,4.65-7.27c-0.41-1.38-0.4-2.86,0.06-4.29c0.61-1.85,1.93-3.35,3.63-4.19	l-1.14-3.7c-0.7-2.24-0.1-4.78,1.52-6.48c0.93-0.97,2.11-1.62,3.42-1.89c0.41-0.08,0.88-0.13,1.36-0.13c0.77,0,1.51,0.12,2.19,0.37	l3.3,1.18c1.15-2.51,3.64-4.15,6.52-4.15c0.86,0,1.71,0.15,2.51,0.45l1.66-3.17c0.99-1.91,2.94-3.24,5.08-3.49	c0.21-0.02,0.47-0.04,0.73-0.04c0.19,0,0.38,0.01,0.57,0.02c2.3,0.19,4.35,1.6,5.37,3.69l1.46,2.9c0.71-0.24,1.47-0.36,2.23-0.36	c2.79,0,5.29,1.63,6.46,4.06l2.84-1.06c0.75-0.28,1.51-0.42,2.29-0.42c1.04,0,2.07,0.26,2.99,0.73c2.97,1.56,4.32,5.03,3.19,8.12	l-1.11,3.14c1.93,0.78,3.46,2.39,4.13,4.41c0.5,1.54,0.46,3.19-0.08,4.68l3.06,1.46C94.04,34.94,95.5,37.24,95.5,39.74z"/><path fill="#f9b84f" d="M79.774,45.986l-0.428-0.893c-0.002-0.086,0.004-0.173,0.022-0.259	c0.071-0.355,0.305-0.655,0.631-0.81l9-4.287l-9-4.287c-0.325-0.155-0.559-0.455-0.631-0.81c-0.018-0.086-0.024-0.173-0.022-0.259	l0.428-0.893l2.722-3.077c0.231-0.261,0.171-0.545,0.135-0.655c-0.036-0.11-0.158-0.375-0.497-0.445l-4.75-0.984	c-0.325-0.067-0.604-0.273-0.766-0.562c-0.162-0.29-0.191-0.637-0.08-0.951l3.153-8.874c0.01-0.028,0.003-0.061-0.085-0.107	l-8.503,3.2c-0.13,0.049-0.266,0.073-0.401,0.073c-0.191,0-0.382-0.048-0.553-0.143c-0.292-0.162-0.5-0.445-0.567-0.775	l-0.903-4.405c-0.076-0.368-0.395-0.535-0.66-0.535c-0.162,0-0.308,0.058-0.435,0.171l-2.95,2.637	c-0.211,0.189-0.482,0.29-0.76,0.29c-0.071,0-0.142-0.007-0.213-0.02c-0.349-0.066-0.646-0.291-0.807-0.609l-4.375-8.671	c-0.013-0.027-0.039-0.043-0.069-0.044c-0.003,0-0.005,0-0.008-0.001c-0.026,0.003-0.051,0.019-0.063,0.043l-4.62,8.826	c-0.164,0.313-0.462,0.533-0.808,0.596c-0.068,0.013-0.136,0.019-0.204,0.019c-0.278,0-0.549-0.102-0.76-0.29l-3.103-2.775	c-0.127-0.113-0.273-0.171-0.435-0.171c-0.265,0-0.584,0.168-0.66,0.535l-0.905,4.409c-0.067,0.326-0.271,0.607-0.559,0.77	c-0.174,0.098-0.366,0.148-0.561,0.148c-0.13,0-0.26-0.022-0.385-0.067l-8.927-3.205l-0.082,0.017	c-0.021,0.021-0.028,0.053-0.02,0.081l2.806,9.088c0.095,0.31,0.057,0.646-0.107,0.925c-0.165,0.279-0.439,0.476-0.754,0.541	l-3.962,0.82c-0.34,0.07-0.461,0.335-0.497,0.445c-0.036,0.11-0.095,0.395,0.135,0.655l2.039,2.306l0.98,1.636l8.24,18.145	l32.029-0.385c0,0-0.157-0.899,0.168-0.965l4.75-0.984c0.34-0.07,0.461-0.335,0.497-0.445c0.036-0.11,0.096-0.395-0.135-0.655	L79.774,45.986z"/><circle cx="58.4" cy="39.997" r="12.5" fill="#ffc571"/><path fill="#94cfff" d="M80,59.02c0,5.5-4.475,11.475-9.975,11.475h-44.65c-6.023,0-10.925-6.402-10.925-12.425	c0-6.023,4.902-10.925,10.925-10.925c0.656,0,1.349,0.067,2.043,0.199c0.76,0.152,1.501-0.351,1.663-1.121	c1.776-8.825,9.604-15.228,18.62-15.228c9.737,0,17.86,7.296,18.886,16.967c0.047,0.389,0.247,0.75,0.56,0.988	c0.323,0.238,0.722,0.333,1.112,0.266c0.627-0.114,1.206-0.171,1.767-0.171C75.525,49.045,80,53.519,80,59.02z"/><path fill="#d9eeff" d="M66.429,84.027c-0.481,1.795-2.383,2.844-4.251,2.343c-1.868-0.5-2.991-2.36-2.51-4.155	c0.481-1.795,5.122-5.592,5.122-5.592S66.91,82.231,66.429,84.027z"/><path fill="#40396e" d="M66.192,76.093c-0.171-0.452-0.549-0.794-1.016-0.919c-0.466-0.125-0.964-0.019-1.338,0.288	c-1.176,0.963-5.058,4.267-5.62,6.364c-0.339,1.267-0.147,2.59,0.539,3.728c0.675,1.117,1.752,1.922,3.032,2.266	c0.443,0.118,0.888,0.175,1.325,0.175c2.19,0,4.185-1.421,4.763-3.58C68.44,82.315,66.729,77.514,66.192,76.093z M64.979,83.638	c-0.266,0.992-1.352,1.569-2.413,1.283c-0.527-0.141-0.968-0.468-1.24-0.919c-0.262-0.432-0.336-0.929-0.209-1.399	c0.145-0.533,1.4-1.937,2.978-3.39C64.735,81.261,65.121,83.104,64.979,83.638z"/><path fill="#d9eeff" d="M30.436,84.027c-0.481,1.795-2.383,2.844-4.251,2.343c-1.868-0.5-2.991-2.36-2.51-4.155	c0.481-1.795,5.122-5.592,5.122-5.592S30.917,82.231,30.436,84.027z"/><path fill="#40396e" d="M30.2,76.09c-0.17-0.45-0.55-0.79-1.01-0.92c-0.47-0.12-0.97-0.01-1.34,0.29	c-1.18,0.96-5.06,4.27-5.62,6.37c-0.7,2.59,0.9,5.27,3.57,5.99c0.44,0.12,0.88,0.17,1.32,0.17c2.19,0,4.19-1.42,4.77-3.57v-0.01	C32.45,82.32,30.74,77.51,30.2,76.09z M28.99,83.64c-0.27,0.99-1.36,1.57-2.42,1.28c-1.06-0.28-1.71-1.32-1.45-2.32	c0.15-0.53,1.4-1.93,2.98-3.39c0.55,1.77,0.92,3.38,0.92,4.14C29.02,83.47,29.01,83.57,28.99,83.64z"/><polygon fill="#ffe385" points="60.5,59.995 53,59.995 56.429,51.995 49.5,51.995 43,65.995 49,65.995 43.5,81.495"/><path fill="#40396e" d="M89.64,38.38l-8.58-4.08l2.56-2.9c0.52-0.58,0.68-1.37,0.44-2.11c-0.25-0.75-0.85-1.29-1.62-1.45	l-4.36-0.9l3.01-8.47c0.25-0.64,0.05-1.53-0.79-1.97c-0.38-0.19-0.82-0.22-1.22-0.07l-8.11,3.05l-0.82-4c-0.21-1-1.1-1.73-2.13-1.73	c-0.53,0-1.03,0.19-1.44,0.55l-2.6,2.32l-4.14-8.21c-0.24-0.51-0.74-0.86-1.31-0.9c-0.1-0.01-0.2-0.01-0.3,0	c-0.5,0.06-0.99,0.4-1.22,0.84l-4.41,8.42l-2.77-2.48c-0.4-0.35-0.89-0.54-1.42-0.54c-1.05,0-1.92,0.71-2.13,1.73l-0.83,4.01	l-8.53-3.06c-0.26-0.1-0.62-0.1-0.89-0.05c-0.3,0.07-0.58,0.22-0.79,0.44c-0.37,0.39-0.53,1.04-0.37,1.56l2.7,8.72l-3.58,0.74	c-0.77,0.16-1.38,0.7-1.62,1.45c-0.25,0.74-0.08,1.53,0.43,2.12l1.22,1.37c-3.69,2.93-6.31,6.9-7.54,11.41	c-8.19-0.67-15.03,5.84-15.03,13.88c0,7.68,6.25,13.92,13.93,13.92h18.31l-3.02,8.5c-0.49,1.39,0.09,2.92,1.38,3.63	c0.44,0.24,0.94,0.37,1.45,0.37c0.92,0,1.78-0.41,2.35-1.13l8.99-11.37H69.3c0.12,0,0.21,0,0.31-0.01h0.08	c0.11,0.01,0.22,0.01,0.34,0.01c7.15,0,12.97-5.82,12.97-12.97c0-2.54-0.73-4.98-2.1-7.07l0.83-0.17l0.71-0.15	c0.77-0.16,1.37-0.7,1.62-1.45c0.24-0.74,0.08-1.53-0.44-2.11l-2.56-2.89l8.58-4.09c0.53-0.25,0.86-0.78,0.86-1.35	C90.5,39.16,90.17,38.63,89.64,38.38z M79.35,42.67c-0.74,0.36-1.29,1.05-1.45,1.87c-0.04,0.19-0.06,0.39-0.05,0.59	c0,0.21,0.05,0.42,0.14,0.61l0.43,0.89c0.06,0.13,0.14,0.25,0.23,0.35l1.77,2.01l-2.53,0.52c-0.53,0.11-0.97,0.51-1.13,1.03	c-0.16,0.53-0.02,1.1,0.37,1.49c1.85,1.88,2.87,4.36,2.87,6.99c0,5.5-4.47,9.97-9.97,9.97l-0.38-0.01c-0.11-0.01-0.25,0-0.38,0.01	H54.11c-0.46,0-0.89,0.21-1.18,0.57L43.5,81.49L47.23,71c0.16-0.46,0.09-0.97-0.19-1.37c-0.28-0.4-0.74-0.64-1.23-0.64H25.38	c-6.03,0-10.93-4.9-10.93-10.92c0-6.03,4.9-10.93,10.93-10.93c0.64,0,1.3,0.07,1.97,0.19c0.8,0.15,1.58-0.37,1.74-1.17	c0.99-4.84,3.81-9.06,7.93-11.86c0.67-0.46,0.86-1.36,0.43-2.04l-0.21-0.34c-0.05-0.07-0.1-0.14-0.15-0.2L36,30.49l2.55-0.53	c0.73-0.15,1.37-0.61,1.75-1.25c0.37-0.64,0.46-1.42,0.25-2.13l-1.97-6.37l6.26,2.25c0.72,0.25,1.52,0.18,2.18-0.19	c0.67-0.38,1.14-1.02,1.29-1.78l0.61-2.99l2.03,1.81c0.6,0.54,1.45,0.78,2.22,0.63c0.81-0.15,1.49-0.65,1.87-1.38l3.34-6.37	l3.13,6.2c0.38,0.74,1.06,1.25,1.86,1.41c0.81,0.15,1.65-0.08,2.26-0.63l1.87-1.67l0.54,2.64l0.07,0.35	c0.15,0.75,0.63,1.4,1.31,1.78c0.67,0.38,1.52,0.43,2.21,0.17l5.62-2.12l-2.13,5.99c-0.25,0.72-0.19,1.52,0.19,2.19	c0.37,0.67,1.02,1.14,1.77,1.29l3.34,0.7l-1.77,2c-0.09,0.11-0.17,0.22-0.23,0.35l-0.43,0.89c-0.09,0.19-0.14,0.4-0.14,0.62	c-0.01,0.2,0.01,0.4,0.05,0.58c0.16,0.82,0.71,1.52,1.45,1.87l6.16,2.94L79.35,42.67z"/></svg>