<svg xmlns="http://www.w3.org/2000/svg"  viewBox="0 0 100 100" width="50px" height="50px"><path d="M95.934,36.683c-0.754-10.335-8.26-19.341-18.254-21.9c-2.048-0.524-4.144-0.79-6.229-0.79 c-7.29,0-14.152,3.239-18.827,8.887C52.177,23.418,51.311,29.391,51,30c-2.103-4.552-5.748-13.433-10.733-14.571 c-1.236-0.284-2.503-0.428-3.765-0.428c-1.773,0-3.521,0.28-5.198,0.835c-3.066,1.017-5.371,3.502-6.166,6.646 c-0.563,2.227-0.31,4.523,0.666,6.518H20.5c-5.238,0-9.5,4.262-9.5,9.5s4.262,9.5,9.5,9.5h1.268C20.66,49.554,20,51.45,20,53.5 c0,1.237,0.245,2.415,0.677,3.5H17.5C12.262,57,8,61.262,8,66.5s4.262,9.5,9.5,9.5h25.071c-0.638,1.428-0.915,3.017-0.771,4.63 c0.278,3.143,2.104,5.911,4.88,7.404C49.065,89.32,51.77,90,54.5,90c4.546,0,8.938-1.908,12.05-5.235 c3.155-3.374,4.722-7.772,4.412-12.386c-0.239-3.564-1.654-6.798-3.841-9.379H71.5c6.777,0,13.317-2.854,17.941-7.829 C94.13,50.129,96.436,43.562,95.934,36.683z" opacity=".35"/><path fill="#f2f2f2" d="M93.934,34.683c-0.754-10.335-8.26-19.341-18.254-21.9c-2.048-0.524-4.144-0.79-6.229-0.79 c-7.29,0-14.152,3.239-18.827,8.887c-0.446,0.539-0.826,1.119-1.137,1.729c-2.103-4.552-6.234-8.041-11.219-9.179 c-1.236-0.284-2.503-0.428-3.765-0.428c-1.773,0-3.521,0.28-5.198,0.835c-3.066,1.017-5.371,3.502-6.166,6.646 c-0.563,2.227-0.31,4.523,0.666,6.518H18.5C13.262,27,9,31.262,9,36.5s4.262,9.5,9.5,9.5h1.268C18.66,47.554,18,49.45,18,51.5 c0,1.237,0.245,2.415,0.677,3.5H15.5C10.262,55,6,59.262,6,64.5s4.262,9.5,9.5,9.5h25.071c-0.638,1.428-0.915,3.017-0.771,4.63 c0.278,3.143,2.104,5.911,4.88,7.404C47.065,87.32,49.77,88,52.5,88c4.546,0,8.938-1.908,12.05-5.235 c3.155-3.374,4.722-7.772,4.412-12.386c-0.239-3.564-1.654-6.798-3.841-9.379H69.5c6.777,0,13.317-2.854,17.941-7.829 C92.13,48.129,94.436,41.562,93.934,34.683z"/><path fill="#70bfff" d="M74.067,19.08c-7.048-1.804-14.113,0.722-18.437,5.944c-1.143,1.381-0.771,3.459,0.801,4.321 l0.295,0.162c1.214,0.666,2.697,0.328,3.589-0.731c2.872-3.412,7.512-5.065,12.149-3.909c4.706,1.172,8.295,5.204,8.928,10.012 C82.36,42.214,76.65,48.5,69.5,48.5h-42c-1.657,0-3,1.343-3,3v0c0,1.657,1.343,3,3,3h42c10.37,0,18.719-8.814,17.951-19.344 C86.895,27.545,81.461,20.972,74.067,19.08z"/><path fill="#40396e" d="M69.5,56h-42c-2.481,0-4.5-2.019-4.5-4.5s2.019-4.5,4.5-4.5h42c3.019,0,5.897-1.308,7.896-3.586 c2.023-2.308,2.915-5.27,2.51-8.34c-0.555-4.21-3.691-7.728-7.804-8.753c-3.953-0.984-8.033,0.324-10.639,3.42 c-1.36,1.615-3.655,2.067-5.458,1.081l-0.296-0.163c-1.133-0.622-1.923-1.707-2.166-2.978c-0.246-1.285,0.094-2.603,0.931-3.614 c4.868-5.881,12.516-8.348,19.965-6.441l0,0c7.942,2.034,13.907,9.198,14.507,17.421c0.4,5.479-1.435,10.706-5.167,14.72 C80.097,53.729,74.892,56,69.5,56z M27.5,50c-0.827,0-1.5,0.673-1.5,1.5s0.673,1.5,1.5,1.5h42c4.562,0,8.965-1.923,12.083-5.275 c3.158-3.397,4.71-7.822,4.372-12.459c-0.507-6.956-5.548-13.015-12.259-14.733c-6.311-1.616-12.791,0.473-16.91,5.448 c-0.265,0.319-0.373,0.734-0.296,1.138c0.044,0.229,0.188,0.65,0.664,0.911l0.296,0.163c0.563,0.31,1.269,0.15,1.719-0.383 c3.349-3.978,8.581-5.664,13.659-4.398c5.298,1.32,9.338,5.85,10.053,11.271c0.511,3.883-0.666,7.786-3.229,10.71 C77.083,48.32,73.383,50,69.5,50H27.5z"/><path fill="#70bfff" d="M44.37,27.871c-0.627-3.949-3.658-7.217-7.556-8.108c-1.873-0.428-3.751-0.325-5.465,0.243 c-2.059,0.682-2.669,3.315-1.181,4.894l0,0c0.796,0.845,2.004,1.144,3.11,0.79c0.717-0.23,1.504-0.257,2.283-0.051 c1.436,0.379,2.571,1.594,2.859,3.051c0.505,2.559-1.45,4.81-3.92,4.81h-16c-1.657,0-3,1.343-3,3v0c0,1.657,1.343,3,3,3h16 C40.549,39.5,45.36,34.102,44.37,27.871z"/><path fill="#40396e" d="M34.5,41h-16c-2.481,0-4.5-2.019-4.5-4.5s2.019-4.5,4.5-4.5h16c0.75,0,1.454-0.334,1.932-0.916 c0.484-0.589,0.667-1.336,0.516-2.104c-0.177-0.898-0.888-1.659-1.77-1.892c-0.484-0.127-0.984-0.117-1.443,0.03 c-1.652,0.529-3.482,0.061-4.66-1.19c-1.065-1.131-1.474-2.709-1.091-4.221c0.375-1.481,1.456-2.649,2.893-3.126 c2.005-0.663,4.173-0.762,6.271-0.28c4.481,1.023,7.979,4.775,8.703,9.334l0,0c0.534,3.361-0.416,6.759-2.604,9.322 C41.055,39.527,37.866,41,34.5,41z M18.5,35c-0.827,0-1.5,0.673-1.5,1.5s0.673,1.5,1.5,1.5h16c2.487,0,4.844-1.09,6.466-2.989 c1.642-1.923,2.325-4.375,1.923-6.904l0,0c-0.534-3.361-3.109-6.127-6.409-6.881c-1.565-0.356-3.175-0.287-4.66,0.204 c-0.661,0.22-0.869,0.782-0.927,1.014c-0.13,0.513,0.007,1.047,0.366,1.429c0.398,0.422,0.997,0.571,1.562,0.39 c1.004-0.321,2.083-0.349,3.121-0.073c1.999,0.527,3.548,2.181,3.949,4.212c0.323,1.64-0.093,3.312-1.142,4.589 C37.699,34.267,36.15,35,34.5,35H18.5z"/><g><path fill="#70bfff" d="M52.147,61.5l-36.647,0c-1.657,0-3,1.343-3,3v0c0,1.657,1.343,3,3,3l36.822,0 c2.088,0,3.956,1.523,4.158,3.601c0.232,2.384-1.644,4.399-3.981,4.399c-0.614,0-1.207-0.138-1.742-0.397 c-1.029-0.498-2.236-0.454-3.132,0.256l-0.293,0.232c-1.598,1.268-1.368,3.754,0.429,4.721c1.434,0.772,3.054,1.188,4.738,1.188 c5.741,0,10.367-4.863,9.977-10.686C62.121,65.506,57.467,61.5,52.147,61.5z"/><path fill="#40396e" d="M52.5,83c-1.904,0-3.789-0.473-5.449-1.367c-1.292-0.695-2.142-1.983-2.271-3.444 c-0.129-1.455,0.477-2.865,1.621-3.772l0.295-0.233c1.308-1.039,3.115-1.204,4.715-0.431c0.964,0.469,2.208,0.233,2.94-0.574 c0.48-0.529,0.706-1.215,0.636-1.931C54.865,69.987,53.694,69,52.322,69H15.5c-2.481,0-4.5-2.019-4.5-4.5s2.019-4.5,4.5-4.5 h36.647c6.229,0,11.424,4.706,11.827,10.714c0.216,3.218-0.877,6.284-3.076,8.636C58.728,81.67,55.667,83,52.5,83z M49.349,76.269 c-0.294,0-0.568,0.089-0.791,0.266l-0.295,0.233c-0.354,0.281-0.535,0.703-0.495,1.156c0.041,0.459,0.297,0.849,0.705,1.068 C49.698,79.651,51.09,80,52.5,80c2.375,0,4.579-0.959,6.207-2.699c1.626-1.738,2.433-4.006,2.274-6.386 C60.683,66.477,56.803,63,52.147,63H15.5c-0.827,0-1.5,0.673-1.5,1.5s0.673,1.5,1.5,1.5h36.822c2.898,0,5.381,2.177,5.651,4.956 c0.15,1.546-0.36,3.091-1.401,4.237c-1.606,1.772-4.333,2.293-6.468,1.26C49.851,76.33,49.593,76.269,49.349,76.269z"/></g></svg>