<svg xmlns="http://www.w3.org/2000/svg"  viewBox="0 0 100 100" width="50px" height="50px"><path d="M94,45c0-10.3-8.2-18.7-18.4-19C71.3,17,62.2,11,52,11s-19.3,6-23.6,15C18.2,26.3,10,34.7,10,45c0,9.4,6.8,17.1,15.7,18.7 c-0.3,0.1-0.5,0.3-0.8,0.4c-4,2.7-9,6.7-10.4,10.4c-1,2.9-0.9,6,0.4,8.8s3.6,4.9,6.5,5.9c1.3,0.5,2.6,0.7,3.9,0.7 c1.7,0,3.3-0.4,4.8-1.1c2.8-1.3,4.9-3.6,5.9-6.5c0.3-0.7,0.4-1.5,0.5-2.4c0.2,0.5,0.4,1,0.7,1.5c1.5,2.6,4.2,4.3,7.2,4.5 c1.6,2.4,4.4,4,7.5,4s5.9-1.6,7.5-4c1.6-0.1,3.2-0.7,4.5-1.6c1.3,2.7,3.6,4.8,6.4,5.8c1.3,0.5,2.6,0.7,3.9,0.7 c1.7,0,3.3-0.4,4.8-1.1c2.8-1.3,4.9-3.6,5.9-6.5c1-2.8,0.7-7.4-0.9-13.4l0,0c0,0-0.5-1.6-0.5-1.8L82,62.7C89,59.9,94,53,94,45z" opacity=".35"/><path fill="#f2f2f2" d="M92,43c0-10.3-8.2-18.7-18.4-19C69.3,15,60.2,9,50,9s-19.3,6-23.6,15C16.2,24.3,8,32.7,8,43 c0,9.4,6.8,17.1,15.7,18.7c-0.3,0.1-0.5,0.3-0.8,0.4c-4,2.7-9,6.7-10.4,10.4c-1,2.9-0.9,6,0.4,8.8s3.6,4.9,6.5,5.9 c1.3,0.5,2.6,0.7,3.9,0.7c1.7,0,3.3-0.4,4.8-1.1c2.8-1.3,4.9-3.6,5.9-6.5c0.3-0.7,0.4-1.5,0.5-2.4c0.2,0.5,0.4,1,0.7,1.5 c1.5,2.6,4.2,4.3,7.2,4.5c1.6,2.4,4.4,4,7.5,4s5.9-1.6,7.5-4c1.6-0.1,3.2-0.7,4.5-1.6c1.3,2.7,3.6,4.8,6.4,5.8 c1.3,0.5,2.6,0.7,3.9,0.7c1.7,0,3.3-0.4,4.8-1.1c2.8-1.3,4.9-3.6,5.9-6.5c1-2.8,0.7-7.4-0.9-13.4l0,0c0,0-0.5-1.6-0.5-1.8L80,60.7 C87,57.9,92,51,92,43z"/><path fill="#94cfff" d="M73,30.5c-1.4,0-2.7,0.2-3.9,0.6c-1.8-8.9-9.7-15.6-19.1-15.6s-17.3,6.7-19.1,15.6c-1.2-0.4-2.5-0.6-3.9-0.6 c-6.9,0-12.5,5.6-12.5,12.5S20.1,55.5,27,55.5c0.2,0,45.8,0,46,0c6.9,0,12.5-5.6,12.5-12.5S79.9,30.5,73,30.5z"/><path fill="#40396e" d="M73,57H27c-7.7,0-14-6.3-14-14s6.3-14,14-14c0.9,0,1.9,0.1,2.8,0.3C32.3,20.4,40.6,14,50,14 s17.7,6.3,20.2,15.3c0.9-0.2,1.9-0.3,2.8-0.3c7.7,0,14,6.3,14,14S80.7,57,73,57z M27,32c-6.1,0-11,4.9-11,11s4.9,11,11,11h46 c6.1,0,11-4.9,11-11s-4.9-11-11-11c-1.2,0-2.3,0.2-3.4,0.5c-0.4,0.1-0.8,0.1-1.2-0.1c-0.4-0.2-0.6-0.6-0.7-1C66,23.1,58.5,17,50,17 s-16,6.1-17.6,14.4c-0.1,0.4-0.3,0.8-0.7,1c-0.4,0.2-0.8,0.3-1.2,0.1C29.3,32.2,28.2,32,27,32z"/><path fill="#2785bd" d="M77,79.2c0.9-2.6-1.4-10.7-1.4-10.7s-7,4.7-7.9,7.3c-0.9,2.6,0.4,5.4,3,6.4C73.2,83.1,76,81.8,77,79.2z"/><path fill="#40396e" d="M72.3,84c-0.7,0-1.5-0.1-2.2-0.4c-3.3-1.2-5.1-4.9-3.9-8.3c1.1-2.9,7.3-7.2,8.5-8c0.4-0.3,0.9-0.3,1.3-0.2 s0.8,0.5,0.9,1c0.4,1.4,2.4,8.7,1.4,11.6l0,0c-0.6,1.6-1.8,2.9-3.3,3.6C74.2,83.8,73.2,84,72.3,84z M74.7,71 c-2.7,2-5.2,4.2-5.6,5.3c-0.7,1.8,0.3,3.8,2.1,4.4c1.8,0.7,3.8-0.3,4.4-2.1l0,0C75.9,77.6,75.4,74.2,74.7,71z M77,79.2L77,79.2 L77,79.2z"/><path fill="#2785bd" d="M28,78.2c0.9-2.6-1.4-10.7-1.4-10.7s-7,4.7-7.9,7.3s0.4,5.4,3,6.4S27,80.8,28,78.2z"/><path fill="#40396e" d="M23.3,83c-0.7,0-1.5-0.1-2.2-0.4c-3.3-1.2-5.1-4.9-3.9-8.3c1.1-2.9,7.3-7.2,8.5-8c0.4-0.3,0.9-0.3,1.3-0.2 c0.5,0.2,0.8,0.5,0.9,1c0.4,1.4,2.4,8.7,1.4,11.6l0,0c-0.6,1.6-1.8,2.9-3.3,3.6C25.2,82.8,24.2,83,23.3,83z M25.7,70 c-2.7,2-5.2,4.2-5.6,5.3c-0.7,1.8,0.3,3.8,2.1,4.4c1.8,0.7,3.8-0.3,4.4-2.1l0,0C26.9,76.6,26.4,73.2,25.7,70z M28,78.2L28,78.2 L28,78.2z"/><path fill="#d9eeff" d="M59.1,65.8L59.1,65.8c-0.7-1.2-2.2-1.6-3.4-0.9l-3.2,1.8V63c0-1.4-1.1-2.5-2.5-2.5l0,0 c-1.4,0-2.5,1.1-2.5,2.5v3.7l-3.2-1.8c-1.2-0.7-2.7-0.3-3.4,0.9l0,0c-0.7,1.2-0.3,2.7,0.9,3.4L45,71l-3.2,1.8 c-1.2,0.7-1.6,2.2-0.9,3.4l0,0c0.7,1.2,2.2,1.6,3.4,0.9l3.2-1.8V79c0,1.4,1.1,2.5,2.5,2.5l0,0c1.4,0,2.5-1.1,2.5-2.5v-3.7l3.2,1.8 c1.2,0.7,2.7,0.3,3.4-0.9l0,0c0.7-1.2,0.3-2.7-0.9-3.4L55,71l3.2-1.8C59.4,68.5,59.8,67,59.1,65.8z"/><path fill="#40396e" d="M50,83c-2.2,0-4-1.8-4-4V78l-0.9,0.5c-1.9,1.1-4.4,0.4-5.5-1.5c-1.1-1.9-0.4-4.4,1.5-5.5L42,71l-0.9-0.5 c-1.9-1.1-2.6-3.6-1.5-5.5c1.1-1.9,3.6-2.6,5.5-1.5l0.9,0.5V63c0-2.2,1.8-4,4-4c2.2,0,4,1.8,4,4v1.1l0.9-0.5c0.9-0.5,2-0.7,3-0.4 c1,0.3,1.9,0.9,2.4,1.9h0c1.1,1.9,0.4,4.4-1.5,5.5L58,71l0.9,0.5c1.9,1.1,2.6,3.6,1.5,5.5c-1.1,1.9-3.6,2.6-5.5,1.5L54,78V79 C54,81.2,52.2,83,50,83z M47.5,73.9c0.3,0,0.5,0.1,0.8,0.2c0.5,0.3,0.8,0.8,0.8,1.3V79c0,0.6,0.4,1,1,1c0.6,0,1-0.4,1-1v-3.7 c0-0.5,0.3-1,0.8-1.3c0.5-0.3,1-0.3,1.5,0l3.2,1.8c0.5,0.3,1.1,0.1,1.4-0.4c0.3-0.5,0.1-1.1-0.4-1.4l-3.2-1.8 c-0.5-0.3-0.8-0.8-0.8-1.3s0.3-1,0.8-1.3l3.2-1.8c0.5-0.3,0.6-0.9,0.4-1.4l0,0c-0.3-0.5-0.9-0.6-1.4-0.4L53.2,68 c-0.5,0.3-1,0.3-1.5,0c-0.5-0.3-0.8-0.8-0.8-1.3V63c0-0.6-0.4-1-1-1c-0.6,0-1,0.4-1,1v3.7c0,0.5-0.3,1-0.8,1.3 c-0.5,0.3-1,0.3-1.5,0l-3.2-1.8c-0.2-0.1-0.5-0.2-0.8-0.1c-0.3,0.1-0.5,0.2-0.6,0.5c-0.1,0.2-0.2,0.5-0.1,0.8 c0.1,0.3,0.2,0.5,0.5,0.6l3.2,1.8c0.5,0.3,0.8,0.8,0.8,1.3s-0.3,1-0.8,1.3l-3.2,1.8c-0.5,0.3-0.6,0.9-0.4,1.4 c0.3,0.5,0.9,0.6,1.4,0.4l3.2-1.8C47,73.9,47.2,73.9,47.5,73.9z"/></svg>