<svg xmlns="http://www.w3.org/2000/svg"  viewBox="0 0 100 100" width="50px" height="50px"><path d="M19.086,84.914C19.785,90.591,24.638,95,30.5,95h37c5.835,0,10.669-4.368,11.403-10.007	C85.059,84.779,90,79.706,90,73.5c0-3.261-1.363-6.219-3.563-8.319c2.415-3.848,4.165-8.086,5.14-12.484	c0.526-2.235-0.181-4.604-1.851-6.188c-1.218-1.151-2.81-1.786-4.483-1.786c-0.55,0-1.099,0.07-1.653,0.215	c-2.331,0.617-4.717,0.93-7.092,0.93c-6.974,0-13.618-2.684-18.711-7.559c-6.885-6.59-9.766-16.084-7.715-25.354	c0.515-2.229-0.194-4.591-1.851-6.162c-1.218-1.154-2.81-1.79-4.483-1.79c-0.543,0-1.085,0.068-1.655,0.214	c-7.084,1.871-13.53,5.667-18.646,10.979C13.005,27.04,9.593,42.575,14.31,56.624C12.838,58.588,12,60.999,12,63.5	c0,0.699,0.062,1.389,0.185,2.064C10.187,67.661,9,70.485,9,73.5C9,79.362,13.409,84.215,19.086,84.914z" opacity=".35"/><path fill="#f2f2f2" d="M17.086,82.914C17.785,88.591,22.638,93,28.5,93h37c5.835,0,10.669-4.368,11.403-10.007	C83.059,82.779,88,77.706,88,71.5c0-3.261-1.363-6.219-3.563-8.319c2.415-3.848,4.165-8.086,5.14-12.484	c0.526-2.235-0.181-4.604-1.851-6.188c-1.218-1.151-2.81-1.786-4.483-1.786c-0.55,0-1.099,0.07-1.653,0.215	c-2.331,0.617-4.717,0.93-7.092,0.93c-6.974,0-13.618-2.684-18.711-7.559c-6.885-6.59-9.766-16.084-7.715-25.354	c0.515-2.229-0.194-4.591-1.851-6.162c-1.218-1.154-2.81-1.79-4.483-1.79c-0.543,0-1.085,0.068-1.655,0.214	c-7.084,1.871-13.53,5.667-18.646,10.979C11.005,25.04,7.593,40.575,12.31,54.624C10.838,56.588,10,58.999,10,61.5	c0,0.699,0.062,1.389,0.185,2.064C8.187,65.661,7,68.485,7,71.5C7,77.362,11.409,82.215,17.086,82.914z"/><path fill="#ffe385" d="M76.5,66.5h-3.175c0.461-0.428,0.914-0.869,1.355-1.328c4.429-4.605,7.281-10.143,8.569-15.95	c-10.976,2.905-23.161,0.198-31.954-8.217C42.502,32.59,39.285,20.558,41.74,9.5c-5.763,1.525-11.192,4.596-15.621,9.201	c-10.052,10.451-11.98,25.707-5.946,38c-2.11,0.586-3.672,2.504-3.672,4.798c0,2.757,2.243,5,5,5h-3c-2.757,0-5,2.243-5,5	s2.243,5,5,5h10c-2.757,0-5,2.243-5,5s2.243,5,5,5h37c2.757,0,5-2.243,5-5s-2.243-5-5-5h11c2.757,0,5-2.243,5-5	S79.257,66.5,76.5,66.5z"/><path fill="#d9eeff" d="M28.5,85c-1.93,0-3.5-1.57-3.5-3.5s1.57-3.5,3.5-3.5c0.828,0,1.5-0.672,1.5-1.5S29.328,75,28.5,75	h-10c-1.93,0-3.5-1.57-3.5-3.5s1.57-3.5,3.5-3.5h3c0.828,0,1.5-0.672,1.5-1.5S22.328,65,21.5,65c-1.93,0-3.5-1.57-3.5-3.5	s1.57-3.5,3.5-3.5h43c1.93,0,3.5,1.57,3.5,3.5S66.43,65,64.5,65c-0.828,0-1.5,0.672-1.5,1.5s0.672,1.5,1.5,1.5h12	c1.93,0,3.5,1.57,3.5,3.5S78.43,75,76.5,75h-11c-0.828,0-1.5,0.672-1.5,1.5s0.672,1.5,1.5,1.5c1.93,0,3.5,1.57,3.5,3.5	S67.43,85,65.5,85H28.5z"/><path fill="#f2f2f2" d="M64.5,68c-0.828,0-1.5-0.672-1.5-1.5s0.672-1.5,1.5-1.5c1.93,0,3.5-1.57,3.5-3.5S66.43,58,64.5,58	h-43c-0.211,0-0.416,0.026-0.618,0.062c1.608,2.926,3.681,5.662,6.222,8.094C39.491,78.01,58.604,78.529,71.588,68H64.5z"/><path fill="#40396e" d="M65.5,88h-37c-3.584,0-6.5-2.916-6.5-6.5c0-1.288,0.376-2.489,1.024-3.5H18.5	c-3.584,0-6.5-2.916-6.5-6.5c0-2.81,1.792-5.208,4.293-6.114C15.48,64.301,15,62.956,15,61.5c0-2.306,1.244-4.404,3.169-5.557	c-5.617-12.877-2.945-28.077,6.869-38.282c4.468-4.645,10.11-7.968,16.318-9.611c0.509-0.132,1.045,0.006,1.423,0.368	c0.378,0.363,0.539,0.896,0.425,1.407c-2.448,11.031,0.964,22.282,9.128,30.097c8.167,7.816,19.583,10.749,30.533,7.851	c0.509-0.132,1.045,0.007,1.423,0.368c0.378,0.362,0.539,0.896,0.426,1.407c-1.271,5.728-3.973,11.041-7.85,15.462	C80.279,65.2,83,68.038,83,71.5c0,3.584-2.916,6.5-6.5,6.5h-5.524C71.624,79.011,72,80.212,72,81.5C72,85.084,69.084,88,65.5,88z M28.5,78c-1.93,0-3.5,1.57-3.5,3.5s1.57,3.5,3.5,3.5h37c1.93,0,3.5-1.57,3.5-3.5S67.43,78,65.5,78c-0.828,0-1.5-0.672-1.5-1.5	s0.672-1.5,1.5-1.5h11c1.93,0,3.5-1.57,3.5-3.5S78.43,68,76.5,68h-3.176c-0.616,0-1.17-0.377-1.396-0.951	c-0.227-0.574-0.077-1.228,0.374-1.647c0.44-0.409,0.874-0.83,1.296-1.27c3.524-3.663,6.114-8.084,7.574-12.898	c-11.202,2.141-22.598-1.186-30.915-9.144c-8.317-7.961-12.125-19.184-10.442-30.435c-4.766,1.655-9.09,4.421-12.615,8.086	c-9.306,9.676-11.589,24.263-5.681,36.299c0.196,0.4,0.204,0.868,0.021,1.275s-0.537,0.712-0.967,0.831	C19.059,58.567,18,59.946,18,61.5c0,1.93,1.57,3.5,3.5,3.5c0.828,0,1.5,0.672,1.5,1.5S22.328,68,21.5,68h-3	c-1.93,0-3.5,1.57-3.5,3.5s1.57,3.5,3.5,3.5h10c0.828,0,1.5,0.672,1.5,1.5S29.328,78,28.5,78z"/></svg>