<svg xmlns="http://www.w3.org/2000/svg"  viewBox="0 0 100 100" width="50px" height="50px"><path d="M98.064,83.877c0.362-0.754,0.584-1.582,0.639-2.445l0.021-0.32l-0.021-0.32c-0.153-2.396-1.589-4.52-3.751-5.547 l-5.854-2.772c1.253-1.875,1.594-4.255,0.873-6.426c-0.826-2.492-2.937-4.369-5.509-4.899l-0.596-0.123l2.201-6.164 c0.852-2.39,0.242-5.094-1.552-6.887c-1.247-1.248-2.905-1.935-4.669-1.935c-0.763,0-1.513,0.131-2.293,0.411l-5.681,2.127 l-0.006-0.028c-0.705-3.408-3.746-5.883-7.23-5.883c-1.37,0-2.703,0.384-3.859,1.098l-2.268-4.469L58.5,31.496 c0.166,0.013,0.333,0.02,0.501,0.02c1.418,0,2.768-0.451,3.907-1.306c1.389-1.045,2.286-2.567,2.528-4.288 c0.242-1.718-0.199-3.428-1.244-4.815l-7-9.3C55.971,10.186,54.029,9.218,52,9.218c-2.026,0-3.965,0.966-5.185,2.58l-6.997,9.256 c-1.05,1.385-1.496,3.096-1.257,4.817c0.239,1.721,1.135,3.246,2.512,4.285c1.123,0.852,2.517,1.32,3.925,1.321 c0.168,0,0.336-0.007,0.502-0.021l-0.011,7.918l-2.412,4.583c-1.222-0.839-2.669-1.293-4.159-1.293 c-3.487,0-6.528,2.476-7.23,5.886l-0.025,0.119l-6.298-2.249c-0.714-0.254-1.459-0.383-2.214-0.383 c-1.711,0-3.334,0.652-4.573,1.839c-1.812,1.739-2.478,4.312-1.734,6.723l2.046,6.591c-2.479,0.586-4.502,2.43-5.306,4.856 c-0.694,2.094-0.402,4.382,0.743,6.222l-6.281,2.977c-2.158,1.022-3.597,3.145-3.754,5.538L4.27,81.111l0.021,0.327 c0.074,1.137,0.438,2.212,1.03,3.138C4.492,85.667,4,87.027,4,88.5c0,3.584,2.916,6.5,6.5,6.5h83c3.584,0,6.5-2.916,6.5-6.5 C100,86.693,99.259,85.056,98.064,83.877z" opacity=".35"/><path fill="#f2f2f2" d="M96.064,81.877c0.362-0.754,0.584-1.582,0.639-2.445l0.021-0.32l-0.021-0.32 c-0.153-2.396-1.589-4.52-3.751-5.547l-5.854-2.772c1.253-1.875,1.594-4.255,0.873-6.426c-0.826-2.492-2.937-4.369-5.509-4.899 l-0.596-0.123l2.201-6.164c0.852-2.39,0.242-5.094-1.552-6.887c-1.247-1.248-2.905-1.935-4.669-1.935 c-0.763,0-1.513,0.131-2.293,0.411l-5.681,2.127l-0.006-0.028c-0.705-3.408-3.746-5.883-7.23-5.883 c-1.37,0-2.703,0.384-3.859,1.098l-2.268-4.469L56.5,29.496c0.166,0.013,0.333,0.02,0.501,0.02c1.418,0,2.768-0.451,3.907-1.306 c1.389-1.045,2.286-2.567,2.528-4.288c0.242-1.718-0.199-3.428-1.244-4.815l-7-9.3C53.971,8.186,52.029,7.218,50,7.218 c-2.026,0-3.965,0.966-5.185,2.58l-6.997,9.256c-1.05,1.385-1.496,3.096-1.257,4.817c0.239,1.721,1.135,3.246,2.512,4.285 c1.123,0.852,2.517,1.32,3.925,1.321c0.168,0,0.336-0.007,0.502-0.021l-0.011,7.918l-2.412,4.583 c-1.222-0.839-2.669-1.293-4.159-1.293c-3.487,0-6.528,2.476-7.23,5.886l-0.025,0.119l-6.298-2.249 c-0.714-0.254-1.459-0.383-2.214-0.383c-1.711,0-3.334,0.652-4.573,1.839c-1.812,1.739-2.478,4.312-1.734,6.723l2.046,6.591 c-2.479,0.586-4.502,2.43-5.306,4.856c-0.694,2.094-0.402,4.382,0.743,6.222l-6.281,2.977c-2.158,1.022-3.597,3.145-3.754,5.538 L2.27,79.111l0.021,0.327c0.074,1.137,0.438,2.212,1.03,3.138C2.492,83.667,2,85.027,2,86.5C2,90.084,4.916,93,8.5,93h83 c3.584,0,6.5-2.916,6.5-6.5C98,84.693,97.259,83.056,96.064,81.877z"/><path fill="#f9b84f" d="M21.039,73.334L8.844,79.112l12.352,5.851c0.428,0.202,0.734,0.594,0.828,1.057 c0.092,0.45-0.031,0.913-0.326,1.263h56.154l-0.136-0.153c-0.313-0.354-0.443-0.833-0.349-1.296c0.094-0.463,0.4-0.854,0.827-1.057 l11.96-5.665L78.351,73.52c-0.427-0.202-0.733-0.594-0.827-1.057c-0.095-0.463,0.035-0.942,0.349-1.296l3.754-4.221 c0.303-0.34,0.225-0.711,0.177-0.854s-0.207-0.489-0.652-0.581l-6.229-1.284c-0.426-0.087-0.792-0.355-1.005-0.733 c-0.213-0.379-0.251-0.831-0.105-1.24l4.135-11.576c0.014-0.037,0.004-0.079-0.111-0.14l-11.151,4.174 c-0.171,0.064-0.349,0.096-0.526,0.096c-0.251,0-0.501-0.062-0.726-0.187c-0.383-0.212-0.655-0.581-0.743-1.011l-1.185-5.746 c-0.1-0.479-0.518-0.698-0.865-0.698c-0.212,0-0.404,0.075-0.57,0.223l-3.868,3.44c-0.277,0.246-0.633,0.379-0.997,0.379 c-0.093,0-0.187-0.009-0.279-0.026c-0.457-0.086-0.848-0.38-1.059-0.795l-5.738-11.311c-0.017-0.035-0.051-0.057-0.091-0.058 c-0.004,0-0.007,0-0.011-0.001c-0.034,0.004-0.066,0.025-0.083,0.056l-6.06,11.513c-0.215,0.408-0.605,0.695-1.06,0.777 c-0.089,0.017-0.179,0.024-0.268,0.024c-0.364,0-0.72-0.133-0.997-0.379l-4.069-3.62c-0.166-0.147-0.358-0.223-0.57-0.223 c-0.348,0-0.766,0.219-0.865,0.698l-1.187,5.752c-0.088,0.426-0.355,0.792-0.733,1.005c-0.228,0.128-0.48,0.192-0.735,0.192 c-0.17,0-0.341-0.029-0.505-0.087l-11.708-4.181l-0.107,0.022c-0.027,0.027-0.037,0.069-0.026,0.105l3.68,11.854 c0.125,0.404,0.074,0.843-0.141,1.207c-0.216,0.364-0.575,0.621-0.989,0.706l-5.196,1.07c-0.445,0.092-0.604,0.437-0.652,0.581 c-0.047,0.144-0.125,0.515,0.178,0.854l3.588,4.035c0.313,0.354,0.443,0.833,0.349,1.296 C21.772,72.741,21.466,73.132,21.039,73.334z"/><path fill="#40396e" d="M50,33.516c-0.828,0-1.5-0.672-1.5-1.5v-16c0-0.828,0.672-1.5,1.5-1.5s1.5,0.672,1.5,1.5v16 C51.5,32.844,50.828,33.516,50,33.516z"/><path fill="#40396e" d="M57.001,24.516c-0.455,0-0.904-0.206-1.199-0.598l-5.805-7.71l-5.801,7.673 c-0.5,0.661-1.44,0.793-2.101,0.292c-0.661-0.499-0.792-1.44-0.292-2.101l7-9.259c0.283-0.375,0.727-0.596,1.196-0.596 c0.001,0,0.001,0,0.002,0c0.47,0,0.913,0.222,1.196,0.598l7,9.298c0.498,0.662,0.366,1.603-0.296,2.101 C57.632,24.417,57.315,24.516,57.001,24.516z"/><path fill="#ffc571" d="M67.874,85.908c0.716-2,1.126-4.146,1.126-6.392c0-10.493-8.507-19-19-19s-19,8.507-19,19 c0,2.246,0.41,4.392,1.126,6.392H67.874z"/><path fill="#40396e" d="M91.5,88h-83C7.672,88,7,87.328,7,86.5S7.672,85,8.5,85h83c0.828,0,1.5,0.672,1.5,1.5 S92.328,88,91.5,88z"/><g><path fill="#40396e" d="M8.186,80.46l11.502,5.448h3.821c-0.009-0.063-0.003-0.126-0.016-0.188 c-0.188-0.926-0.802-1.709-1.656-2.113l-9.49-4.495l9.334-4.421c0.854-0.404,1.467-1.187,1.656-2.113 c0.188-0.926-0.07-1.886-0.698-2.592l-2.867-3.224l4.132-0.852c0.829-0.171,1.547-0.684,1.978-1.413 c0.43-0.729,0.533-1.606,0.282-2.414l-2.851-9.186l9.077,3.242c0.327,0.117,0.669,0.175,1.009,0.175c0.509,0,1.016-0.13,1.47-0.385 c0.757-0.426,1.292-1.159,1.468-2.009l0.967-4.689l3.259,2.898c0.554,0.493,1.265,0.758,1.994,0.758 c0.178,0,0.358-0.016,0.536-0.048c0.908-0.165,1.689-0.738,2.119-1.554l4.801-9.121l4.517,8.901c0.421,0.83,1.203,1.417,2.117,1.59 c0.186,0.035,0.372,0.052,0.558,0.052c0.729,0,1.44-0.266,1.994-0.758l3.057-2.718l0.965,4.682c0.177,0.858,0.721,1.597,1.488,2.02 c0.449,0.248,0.949,0.374,1.451,0.374c0.355,0,0.712-0.063,1.052-0.19l8.314-3.113l-3.124,8.746 c-0.292,0.818-0.215,1.722,0.21,2.479c0.426,0.757,1.159,1.292,2.009,1.468l5.166,1.065l-3.032,3.409 c-0.628,0.706-0.887,1.666-0.698,2.592c0.188,0.926,0.802,1.709,1.656,2.113l8.941,4.235l-9.098,4.31 c-0.854,0.404-1.467,1.187-1.656,2.113c-0.025,0.124-0.022,0.249-0.031,0.374h3.445l11.502-5.448 c0.528-0.25,0.865-0.77,0.902-1.348c-0.037-0.579-0.374-1.098-0.902-1.349l-11.818-5.598l3.754-4.221 c1.214-1.365,0.495-3.532-1.294-3.901l-6.23-1.284l4.135-11.577c0.208-0.584,0.062-1.235-0.377-1.673 c-0.306-0.306-0.716-0.47-1.134-0.47c-0.181,0-0.363,0.03-0.54,0.093l-11.152,4.175l-1.185-5.746 c-0.244-1.181-1.271-1.896-2.334-1.896c-0.547,0-1.104,0.189-1.567,0.602l-3.868,3.44l-5.72-11.272 c-0.26-0.549-0.808-0.904-1.416-0.917c-0.01,0-0.022,0-0.033,0c-0.594,0-1.141,0.329-1.419,0.857l-6.059,11.513l-4.07-3.62 c-0.464-0.413-1.02-0.602-1.567-0.602c-1.063,0-2.09,0.715-2.334,1.896l-1.186,5.752L21.69,49.132 c-0.177-0.063-0.359-0.093-0.54-0.093c-0.407,0-0.806,0.155-1.11,0.446c-0.438,0.42-0.601,1.052-0.422,1.633l3.679,11.854 l-5.195,1.071c-1.789,0.369-2.508,2.536-1.294,3.901l3.589,4.035l-12.21,5.784c-0.527,0.25-0.868,0.769-0.906,1.349 C7.318,79.691,7.659,80.21,8.186,80.46z"/></g></svg>